<?xml version="1.0" encoding="UTF-8" standalone="no"?>
<!-- Created with Inkscape (http://www.inkscape.org/) -->

<svg
   width="1920"
   height="1080"
   viewBox="0 0 508 285.75001"
   version="1.1"
   id="svg8"
   inkscape:version="1.1.1 (3bf5ae0d25, 2021-09-20, custom)"
   sodipodi:docname="preview.svg"
   xmlns:inkscape="http://www.inkscape.org/namespaces/inkscape"
   xmlns:sodipodi="http://sodipodi.sourceforge.net/DTD/sodipodi-0.dtd"
   xmlns="http://www.w3.org/2000/svg"
   xmlns:svg="http://www.w3.org/2000/svg"
   xmlns:rdf="http://www.w3.org/1999/02/22-rdf-syntax-ns#"
   xmlns:cc="http://creativecommons.org/ns#"
   xmlns:dc="http://purl.org/dc/elements/1.1/">
  <defs
     id="defs2">
    <clipPath
       clipPathUnits="userSpaceOnUse"
       id="clipPath840">
      <rect
         x="0"
         y="0"
         width="508"
         height="285.75"
         fill="url(#linearGradient84615)"
         stroke-linecap="round"
         stroke-linejoin="round"
         stroke-width="0.257017"
         style="fill:#d9d9d9;fill-opacity:1;paint-order:stroke fill markers"
         id="rect842" />
    </clipPath>
    <clipPath
       clipPathUnits="userSpaceOnUse"
       id="clipPath1101">
      <rect
         style="fill:#333333;stroke:none;stroke-width:0.529169"
         id="rect1103"
         width="508"
         height="285.75"
         x="-8.1475598e-14"
         y="-4.4140625e-06"
         rx="13.426337"
         ry="13.426337" />
    </clipPath>
  </defs>
  <sodipodi:namedview
     id="base"
     pagecolor="#5c5c5c"
     bordercolor="#666666"
     borderopacity="1.0"
     inkscape:pageopacity="0"
     inkscape:pageshadow="2"
     inkscape:zoom="0.24748738"
     inkscape:cx="476.79199"
     inkscape:cy="567.70571"
     inkscape:document-units="mm"
     inkscape:current-layer="layer1"
     showgrid="false"
     units="px"
     inkscape:window-width="1368"
     inkscape:window-height="707"
     inkscape:window-x="0"
     inkscape:window-y="0"
     inkscape:window-maximized="1"
     inkscape:pagecheckerboard="0"
     inkscape:snap-bbox="true"
     inkscape:bbox-nodes="true"
     inkscape:snap-nodes="true"
     inkscape:snap-bbox-edge-midpoints="true"
     width="200px">
    <inkscape:grid
       type="xygrid"
       id="grid28" />
  </sodipodi:namedview>
  <metadata
     id="metadata5">
    <rdf:RDF>
      <cc:Work
         rdf:about="">
        <dc:format>image/svg+xml</dc:format>
        <dc:type
           rdf:resource="http://purl.org/dc/dcmitype/StillImage" />
      </cc:Work>
    </rdf:RDF>
  </metadata>
  <g
     inkscape:label="Layer 1"
     inkscape:groupmode="layer"
     id="layer1"
     transform="translate(0,-287.47498)">
    <g
       id="wave-dark"
       transform="translate(0,287.47498)"
       clip-path="url(#clipPath1101)">
      <rect
         x="0"
         y="0"
         width="508"
         height="285.75"
         fill="url(#linearGradient84615)"
         stroke-linecap="round"
         stroke-linejoin="round"
         stroke-width="0.257017"
         style="fill:#383838;fill-opacity:1;paint-order:stroke fill markers"
         id="rect854" />
      <g
         id="g868"
         clip-path="url(#clipPath840)">
        <path
           d="m 532.52,261.515 c 0,0 -20.448,-0.23405 -30.711,-2.2058 -24.472,-4.7012 -51.68,-24.876 -85.249,-33.521 -39.723,-10.23 -87.454,5.7354 -116.95,-0.72145 -60.36,-13.212 -73.187,-43.796 -114.76,-50.966 -37.922,-6.5411 -74.878,10.457 -115.82,1.7753 -32.171,-6.8218 -72.331,-42.981 -72.331,-42.981 l -9.6915,-263.96 541.38,-4.6525 z"
           fill="url(#linearGradient14878)"
           id="path856"
           style="fill:#474747;fill-opacity:1;stroke:#e0e0e0;stroke-width:1.05833;stroke-linecap:round;stroke-miterlimit:4;stroke-dasharray:none;stroke-opacity:1;paint-order:stroke fill markers" />
        <path
           d="m 545.27,182.395 c 0,0 -29.204,9.7276 -62.698,3.2186 -31.698,-6.16 -36.835,-24.095 -69.984,-27.146 -23.362,-2.1505 -56.218,15.325 -84.235,11.298 -20.958,-3.0127 -59.836,-48.407 -59.836,-48.407 l 63.476,-56.308 212.55,17.675 z"
           fill="url(#linearGradient29554)"
           id="path858"
           style="fill:#262626;fill-opacity:1;stroke:#e0e0e0;stroke-width:1.05833;stroke-linecap:round;stroke-miterlimit:4;stroke-dasharray:none;stroke-opacity:1;paint-order:stroke fill markers" />
        <path
           d="m 538.1,186.745 c 0,0 -40.995,-30.948 -91.798,-34.942 -47.77,-3.7557 -76.702,26.423 -129.78,18.301 -57.74,-8.8359 -73.392,-44.639 -119.64,-58.48 -50.718,-15.18 -83.915,3.2312 -131,-24.741 -41.216,-24.487 -76.23,-74.85 -76.23,-74.85 l -4.9455,-175.02 551.7,15.608 z"
           fill="url(#linearGradient44051)"
           id="path860"
           style="fill:#333333;fill-opacity:1;stroke:#e0e0e0;stroke-width:1.05833;stroke-linecap:round;stroke-miterlimit:4;stroke-dasharray:none;stroke-opacity:1;paint-order:stroke fill markers" />
        <path
           d="m 543.3,153.555 c 0,0 -3.9467,-0.9397 -11.58,-2.9571 -7.6332,-2.0174 -36.279,-19.226 -60.594,-26.778 -42.652,-13.248 -85.919,-0.80563 -126.45,-8.6784 -60.435,-11.738 -84.454,-43.625 -130,-49.987 C 183.281,60.77 148.10774,72.93309 104.826,63.0094 27.812621,39.97979 -22.667757,-26.593519 -22.667757,-26.593519 L -15.2935,-162.987 l 578.7633,29.9094 z"
           fill="url(#linearGradient58716)"
           id="path862"
           style="fill:#404040;fill-opacity:1;stroke:#e0e0e0;stroke-width:1.05833;stroke-linecap:round;stroke-miterlimit:4;stroke-dasharray:none;stroke-opacity:1;paint-order:stroke fill markers"
           sodipodi:nodetypes="cscccccccc" />
        <path
           d="m 549.33,111.885 c 0,0 -32.254,0.0326 -73.39,-13.516 -40.51,-13.343 -65.505,-29.642 -97.792,-39.995 -51.284,-16.445 -93.642,-0.59355 -141.48,-9.2493 -74.961,-13.564 -100.84,-74.329 -146.66,-101.8 -54.993,-32.964 -102.43,-24.775 -102.43,-24.775 l -2.2821,-71.214 575.79,13.853 z"
           fill="url(#linearGradient61448)"
           id="path864"
           style="fill:#383838;fill-opacity:1;stroke:#e0e0e0;stroke-width:1.05833;stroke-linecap:round;stroke-miterlimit:4;stroke-dasharray:none;stroke-opacity:1;paint-order:stroke fill markers" />
        <path
           d="m 558.15,66.60051 c 0,0 -22.397,-5.2033 -32.249,-9.3179 -9.8522,-4.1146 -32.68,-14.871 -54.483,-21.887 -30.63,-9.8574 -68.317,-5.7996 -103.27,-11.527 -45.175,-7.4016 -79.837,-25.061 -91.939,-35.184998 -22.152,-18.533 -31.647,-42.896 -31.647,-42.896 l -10.083,-48.643002 340.06,-1.6146 z"
           fill="url(#linearGradient78259)"
           id="path866"
           style="fill:#525252;fill-opacity:1;stroke:#e0e0e0;stroke-width:1.05833;stroke-linecap:round;stroke-miterlimit:4;stroke-dasharray:none;stroke-opacity:1;paint-order:stroke fill markers" />
      </g>
    </g>
    <g
       id="info"
       transform="matrix(1.5238095,0,0,1.5238095,251.58095,115.21097)">
      <rect
         style="fill:none;fill-opacity:0.989292;stroke-width:0.405478"
         id="rect867"
         width="127"
         height="11.1125"
         x="-61.912498"
         y="285.62238" />
      <g
         id="g843">
        <g
           id="g930"
           transform="matrix(0.26458333,0,0,0.26458333,50.00625,289.06196)">
          <path
             id="path918"
             style="fill:#ffffff"
             d="m 191.375,-30.5 c -1.108,0 -2,0.892 -2,2 v 9 c 0,1.108 0.892,2 2,2 h 12 c 1.108,0 2,-0.892 2,-2 v -9 c 0,-1.108 -0.892,-2 -2,-2 z m 0,1 h 12 c 0.554,0 1,0.446 1,1 v 9 c 0,0.554 -0.446,1 -1,1 h -12 c -0.554,0 -1,-0.446 -1,-1 v -9 c 0,-0.554 0.446,-1 1,-1 z m 1.71875,1 -0.71875,0.6875 L 195,-25 l -2.59375,2.8125 0.6875,0.6875 2.96875,-3.15625 0.3125,-0.34375 -0.3125,-0.34375 z m 3.28125,7 v 1 h 4 v -1 z"
             transform="translate(-189.375,32.500007)" />
        </g>
        <g
           style="enable-background:new"
           id="g941"
           transform="matrix(0.26458333,0,0,0.26458333,4.0984488,289.06198)">
          <path
             d="M 7.5098,-8.3933e-5 C 6.98171,-9.4355e-5 6.4741,0.20956607 6.1016,0.58389607 5.73135,0.95590607 5.52356,1.4616461 5.52348,1.9861961 5.51562,2.5339661 5.08086,2.9637461 4.53325,2.9647161 4.37039,2.9626861 4.2124,2.9170011 4.07231,2.8338561 A 0.50005,0.50005 0 0 0 4.0645,2.8299461 c -0.94825,-0.54336 -2.1712,-0.2126 -2.7168,0.73438 l -0.51562,0.84766 a 0.50005,0.50005 0 0 0 -0.005859,0.00977 c -0.54496,0.94581 -0.21898,2.168 0.72461,2.7168 a 0.50005,0.50005 0 0 0 0.00195,0.00195 c 0.30786,0.17772 0.49609,0.50395 0.49609,0.85938 0,0.35554 -0.18818,0.68159 -0.49609,0.85938 -0.94343,0.54576 -1.2713,1.7668999 -0.72656,2.7108999 a 0.50005,0.50005 0 0 0 0,0.002 l 0.48828,0.8418 c 0,0 0.00195,0.002 0.00195,0.002 0.25709,0.46235 0.68834,0.80462 1.1973,0.94922 0.50986,0.14497 1.0572,0.0795 1.5195,-0.17969 a 0.50005,0.50005 0 0 0 0.00586,-0.0039 c 0.22559,-0.13165 0.49383,-0.16716 0.74609,-0.09961 a 0.50005,0.50005 0 0 0 0.00195,0 c 0.25231,0.0675 0.46602,0.23231 0.5957,0.45898 a 0.50005,0.50005 0 0 0 0.00391,0.0078 c 0.083519,0.14076 0.12916,0.29929 0.13086,0.46289 0.00256,1.0925 0.89902,1.9883 1.9922,1.9883 h 0.97852 c 1.0911,0 1.987,-0.89332 1.9922,-1.9844 a 0.50005,0.50005 0 0 0 0,-0.0039 c -0.0013,-0.26322 0.10291,-0.51496 0.28906,-0.70117 0.18507,-0.18507 0.43568,-0.2872 0.69727,-0.28711 0.16548,0.0054 0.32874,0.05101 0.47266,0.13281 0.9455,0.54308 2.1684,0.21626 2.7168,-0.72656 l 0.50977,-0.85156 a 0.50005,0.50005 0 0 0 0.0039,-0.0059 c 0.26597,-0.45645 0.3393,-0.99921 0.20312,-1.5098 -0.13616,-0.5104599 -0.46983,-0.9474699 -0.92774,-1.2108999 -0.22759,-0.13092 -0.39325,-0.34587 -0.46094,-0.59961 -0.06766,-0.25363 -0.03256,-0.52315 0.09961,-0.75 a 0.50005,0.50005 0 0 0 0.002,-0.00391 c 0.08524,-0.1488 0.20851,-0.27212 0.35742,-0.35742 a 0.50005,0.50005 0 0 0 0.0039,-0.00195 c 0.89916,-0.52597 1.2257,-1.6612 0.77734,-2.5859 a 0.50005,0.50005 0 0 0 -0.05273,-0.13086 l -0.48633,-0.84375 c -0.54562,-0.94691 -1.7685,-1.2777 -2.7168,-0.73438 a 0.50005,0.50005 0 0 0 -0.0059,0.00391 c -0.22567,0.13295 -0.49439,0.17132 -0.74805,0.10547 -0.25358,-0.06584 -0.47094,-0.23099 -0.60352,-0.45703 a 0.50005,0.50005 0 0 0 0,-0.00195 c -0.08345,-0.14063 -0.12913,-0.29929 -0.13086,-0.46289 v 0.019531 c 0.01552,-0.53821 -0.1872,-1.06120003 -0.5625,-1.44730003 -0.37528,-0.38603 -0.89133,-0.603740003 -1.4297,-0.603520003 h -0.97852 z m 0,1.000000003 h 0.97852 c 0.26844,-1.1316e-4 0.52569,0.10822003 0.71289,0.30078003 0.18718,0.19253 0.28703,0.45232 0.2793,0.7207 a 0.50005,0.50005 0 0 0 0,0.019531 c 0.00358,0.33821 0.097494,0.6697 0.26953,0.96094 0.26667,0.45468 0.70265,0.78549 1.2129,0.91797 0.50797,0.13186 1.049,0.057654 1.502,-0.20703 0.48013,-0.2751 1.0773,-0.11421 1.3535,0.36523 l 0.46875,0.8125 a 0.50005,0.50005 0 0 0 0.01758,0.035156 c 0.27261,0.47764 0.11336,1.0719 -0.36133,1.3496 -0.30024,0.17284 -0.54975,0.42233 -0.72266,0.72266 v 0.00195 c -0.26515,0.45616 -0.33913,0.99992 -0.20312,1.5098 0.13615,0.51038 0.4697,0.9455 0.92773,1.209 0.22756,0.13093 0.39328,0.3478999 0.46094,0.6015599 0.0673,0.25234 0.03091,0.51999 -0.09961,0.74609 -6.72e-4,0.0012 6.76e-4,0.0027 0,0.0039 l -0.51172,0.85156 a 0.50005,0.50005 0 0 0 -0.0039,0.0059 c -0.27779,0.47762 -0.87471,0.63719 -1.3535,0.36133 a 0.50005,0.50005 0 0 0 -0.002,-0.002 c -0.2896,-0.1656 -0.61582,-0.25672 -0.94922,-0.26562 a 0.50005,0.50005 0 0 0 -0.0098,0 c -0.52982,-0.0026 -1.0394,0.20741 -1.4141,0.58203 -0.37447,0.37457 -0.58457,0.88233 -0.58203,1.4121 -0.00472,0.55042 -0.44117,0.98438 -0.99219,0.98438 H 7.50974 c -0.55436,0 -0.99414,-0.43796 -0.99414,-0.99219 a 0.50005,0.50005 0 0 0 0,-0.0059 c -0.00351,-0.33749 -0.096364,-0.66827 -0.26758,-0.95898 -0.26208,-0.45657 -0.69447,-0.79164 -1.2031,-0.92774 -0.50677,-0.13569 -1.0479,-0.06304 -1.502,0.19922 -0.23061,0.12928 -0.5016,0.16018 -0.75586,0.08789 -0.25426,-0.07224 -0.46952,-0.24144 -0.59766,-0.47266 a 0.50005,0.50005 0 0 0 -0.00391,-0.0098 L 1.6933,11.072113 c -0.27481,-0.47621 -0.11658,-1.0704 0.35938,-1.3456999 0.61589,-0.35561 0.99609,-1.0154 0.99609,-1.7266 0,-0.71066 -0.38088,-1.3689 -0.99609,-1.7246 v -0.00195 C 1.5762,5.9951031 1.41771,5.4000031 1.6933,4.9216631 l 0.51562,-0.84766 a 0.50005,0.50005 0 0 0 0.00586,-0.00977 c 0.27621,-0.47941 0.87345,-0.64227 1.3535,-0.36719 0.29021,0.17048 0.62038,0.26409 0.95703,0.26758 a 0.50005,0.50005 0 0 0 0.00586,0 c 1.0839,1.326e-4 1.9766,-0.88107 1.9922,-1.9648 a 0.50005,0.50005 0 0 0 0,-0.00977 c -0.00125,-0.26248 0.10196,-0.51319 0.28711,-0.69922 0.18511,-0.186 0.43681,-0.29102003 0.69922,-0.29102003 z M 8.00003,4.9999161 c -1.6509,0 -3,1.3491 -3,3 0,1.6509 1.3491,2.9999999 3,2.9999999 1.6509,0 3,-1.3490999 3,-2.9999999 0,-1.6509 -1.3491,-3 -3,-3 z m 0,1 c 1.1105,0 2,0.88951 2,2 0,1.11049 -0.88951,2 -2,2 -1.11049,0 -2,-0.88951 -2,-2 0,-1.11049 0.88951,-2 2,-2 z"
             clip-rule="evenodd"
             color="#000000"
             color-rendering="auto"
             dominant-baseline="auto"
             fill="#363636"
             fill-rule="evenodd"
             image-rendering="auto"
             shape-rendering="auto"
             solid-color="#000000"
             stop-color="#000000"
             style="font-variant-ligatures:normal;font-variant-position:normal;font-variant-caps:normal;font-variant-numeric:normal;font-variant-alternates:normal;font-variant-east-asian:normal;font-feature-settings:normal;font-variation-settings:normal;text-indent:0;text-decoration-line:none;text-decoration-style:solid;text-decoration-color:#000000;text-transform:none;text-orientation:mixed;white-space:normal;shape-padding:0;shape-margin:0;inline-size:0;isolation:auto;mix-blend-mode:normal;fill:#ffffff"
             id="path932" />
        </g>
        <g
           id="g957"
           transform="matrix(0.26458333,0,0,0.26458333,-42.597917,289.06196)">
          <path
             id="path946"
             style="fill:#ffffff"
             class="ColorScheme-Text"
             d="m -158,-36 c -1.108,0 -2,0.892 -2,2 v 10 c 0,1.108 0.892,2 2,2 h 10 c 1.108,0 2,-0.892 2,-2 v -10 c 0,-1.108 -0.892,-2 -2,-2 z m 0,3 h 10 c 0.554,0 1,0.446 1,1 v 8 c 0,0.554 -0.446,1 -1,1 h -10 c -0.554,0 -1,-0.446 -1,-1 v -8 c 0,-0.554 0.446,-1 1,-1 z m 3,2 v 6 l 4,-3 z"
             transform="translate(161,36.999988)" />
        </g>
        <path
           id="rect981"
           style="opacity:1;fill:#ffffff;stroke:none;stroke-width:0.635;stroke-linecap:square"
           d="m -50.270833,288.00363 c -0.439745,0 -0.79375,0.354 -0.79375,0.79375 v 4.7625 c 0,0.43975 0.354005,0.79375 0.79375,0.79375 h 4.7625 c 0.439746,0 0.79375,-0.354 0.79375,-0.79375 v -4.7625 c 0,-0.43975 -0.354004,-0.79375 -0.79375,-0.79375 z m 4.094324,1.58649 c 0.0023,-1.1e-4 0.0044,0 0.0067,0 0.07329,0 0.132292,0.059 0.132292,0.13229 v 1.58851 c 0,0.055 -0.0331,0.10193 -0.08062,0.12196 -0.002,8.3e-4 -0.0042,10e-4 -0.0062,0.002 -0.0041,10e-4 -0.0081,0.003 -0.0124,0.004 -0.0063,0.002 -0.01295,0.003 -0.01964,0.004 -0.0045,4.5e-4 -0.0089,5.1e-4 -0.01343,5.1e-4 h -3.384807 l 0.896586,0.89659 c 0.05182,0.0518 0.05182,0.13524 0,0.18707 -0.05182,0.0518 -0.135245,0.0518 -0.187068,0 l -1.11311,-1.11363 c -0.0015,-10e-4 -0.0027,-0.003 -0.0041,-0.004 -0.0017,-0.002 -0.0035,-0.003 -0.0052,-0.005 -0.0015,-0.002 -0.0032,-0.003 -0.0046,-0.005 v -5.2e-4 c -0.0014,-0.002 -0.0028,-0.003 -0.0041,-0.005 -0.0014,-0.002 -0.0028,-0.004 -0.0041,-0.006 -9.69e-4,-10e-4 -0.0022,-0.003 -0.0031,-0.004 -2.73e-4,-4e-4 -7.67e-4,-6.3e-4 -10e-4,-10e-4 v -5.2e-4 c -0.0011,-0.002 -0.0021,-0.003 -0.0031,-0.005 -6.13e-4,-0.001 -0.0015,-0.002 -0.0021,-0.003 -1.8e-4,-3.2e-4 -3.39e-4,-7.1e-4 -5.16e-4,-10e-4 -2.96e-4,-5.5e-4 -7.46e-4,-10e-4 -10e-4,-0.002 -5.22e-4,-9.9e-4 -0.0011,-0.002 -0.0016,-0.003 -1.67e-4,-3.5e-4 -3.52e-4,-6.9e-4 -5.16e-4,-10e-4 -3.12e-4,-6.4e-4 -2.19e-4,-0.001 -5.16e-4,-0.002 -8.73e-4,-0.002 -0.0018,-0.004 -0.0026,-0.006 -7.51e-4,-0.002 -0.0019,-0.004 -0.0026,-0.006 v -5.2e-4 c -1.21e-4,-3.5e-4 -3.97e-4,-6.8e-4 -5.16e-4,-0.001 -9.1e-4,-0.003 -0.0013,-0.005 -0.0021,-0.008 -1.38e-4,-5.2e-4 -3.86e-4,-0.001 -5.19e-4,-0.002 -2.3e-4,-9.2e-4 -8.17e-4,-0.002 -0.001,-0.003 -3.52e-4,-0.002 -2.2e-4,-0.003 -5.16e-4,-0.005 -3.76e-4,-0.002 -7.47e-4,-0.004 -10e-4,-0.006 v -5.1e-4 c -2.54e-4,-0.002 -8.49e-4,-0.003 -0.001,-0.005 v -5.2e-4 -5.2e-4 c -4.05e-4,-0.004 -5.16e-4,-0.008 -5.16e-4,-0.0124 0,-0.002 -9.8e-5,-0.004 0,-0.006 v -5.2e-4 c 9.2e-5,-0.002 3.38e-4,-0.004 5.16e-4,-0.006 v -5.2e-4 -5.1e-4 c 1.93e-4,-0.002 7.64e-4,-0.004 0.001,-0.006 3.78e-4,-0.003 5e-4,-0.005 10e-4,-0.008 2.14e-4,-0.001 2.75e-4,-0.002 5.16e-4,-0.003 2.43e-4,-0.001 7.67e-4,-0.002 0.001,-0.003 8.1e-4,-0.003 0.0016,-0.006 0.0026,-0.009 1.22e-4,-3.6e-4 3.92e-4,-6.8e-4 5.16e-4,-0.001 v -5.1e-4 c 5.37e-4,-0.002 0.0015,-0.003 0.0021,-0.005 1.35e-4,-3.5e-4 3.76e-4,-6.9e-4 5.16e-4,-10e-4 v -5.1e-4 c 2.12e-4,-5.2e-4 2.99e-4,-10e-4 5.16e-4,-0.002 6.09e-4,-0.001 0.0014,-0.003 0.0021,-0.004 0.0012,-0.002 0.0023,-0.005 0.0036,-0.007 7.75e-4,-10e-4 0.0018,-0.003 0.0026,-0.004 0.0013,-0.002 0.0027,-0.005 0.0041,-0.007 9.68e-4,-10e-4 0.0021,-0.003 0.0031,-0.004 v -5.2e-4 c 3.68e-4,-5e-4 6.56e-4,-0.001 0.001,-0.002 8.83e-4,-0.001 0.0022,-0.002 0.0031,-0.003 v -5.1e-4 -5.2e-4 c 8.46e-4,-0.001 0.0017,-0.002 0.0026,-0.003 4.07e-4,-4.7e-4 0.0011,-5.7e-4 0.0016,-0.001 v -5.2e-4 c 0.0015,-0.002 0.003,-0.003 0.0046,-0.005 l 1.122413,-1.12293 c 0.05182,-0.0518 0.135244,-0.0518 0.187068,0 0.05182,0.0518 0.05182,0.13524 0,0.18707 l -0.896586,0.8971 h 3.252515 v -1.4531 c 0,-0.071 0.05548,-0.12876 0.125574,-0.13229 z"
           sodipodi:nodetypes="ssssssssscsssccccscccccccccccccccccccccccccsccccccccscccccccscscccccccccccccccccccccccccscc" />
        <path
           id="rect1930"
           style="opacity:1;fill:#ffffff;stroke:none;stroke-width:0.635;stroke-linecap:square"
           d="m -4.2333333,288.00363 c -0.4397457,0 -0.79375,0.354 -0.79375,0.79375 v 4.7625 c 0,0.43975 0.3540043,0.79375 0.79375,0.79375 h 4.76249996 c 0.43974559,0 0.79375004,-0.354 0.79375004,-0.79375 v -4.7625 c 0,-0.43975 -0.35400445,-0.79375 -0.79375004,-0.79375 z m 1.190625,1.3224 2.38124998,10e-4 c 0.0732886,0 0.13229166,0.059 0.13229166,0.1323 0,0.0733 -0.0590031,0.13229 -0.13229166,0.13229 H -2.9104166 v 1.32291 h 1.98437495 c 0.0732886,0 0.13229166,0.059 0.13229166,0.1323 0,0.0733 -0.0590031,0.13229 -0.13229166,0.13229 H -2.9104166 v 1.5875 h 2.24895828 c 0.0732886,0 0.13229166,0.059 0.13229166,0.13229 0,0.0733 -0.0590031,0.13229 -0.13229166,0.13229 H -3.0427083 c -0.073289,0 -0.1322917,-0.059 -0.1322917,-0.13229 v -1.84537 c -1.137e-4,-0.003 0,-0.005 0,-0.007 0,-0.003 -1.137e-4,-0.005 0,-0.007 v -1.58078 c 0,-0.0733 0.059004,-0.13229 0.1322917,-0.13229 z" />
        <path
           id="rect1932"
           style="opacity:1;fill:#ffffff;stroke:none;stroke-width:2.4;stroke-linecap:square"
           d="m 392,9 c -1.66203,0 -3,1.337953 -3,3 v 18 c 0,1.662047 1.33797,3 3,3 h 18 c 1.66203,0 3,-1.337953 3,-3 V 12 c 0,-1.662047 -1.33797,-3 -3,-3 z m 9,5 a 6.9999998,6.9999998 0 0 1 5.74219,3 h -1.27344 A 5.9999601,5.9999601 0 0 0 401,15 a 5.9999601,5.9999601 0 0 0 -6,6 5.9999601,5.9999601 0 0 0 6,6 5.9999601,5.9999601 0 0 0 4.46875,-2 h 1.25977 A 6.9999998,6.9999998 0 0 1 401,28 a 6.9999998,6.9999998 0 0 1 -7,-7 6.9999998,6.9999998 0 0 1 7,-7 z"
           transform="matrix(0.26458333,0,0,0.26458333,-61.9125,285.62238)" />
      </g>
    </g>
    <rect
       style="fill:#e0e0e0;stroke-width:1.26769"
       id="viewbox"
       width="251.91318"
       height="148.16667"
       x="128.04341"
       y="356.26663"
       rx="7.4402661"
       ry="7.4402661" />
    <rect
       style="fill:#333333;stroke:none;stroke-width:0.546874"
       id="rect872"
       width="195.79167"
       height="16.933332"
       x="156.10416"
       y="374.86954"
       ry="3.2991934"
       rx="3.2991934" />
    <g
       id="archlinux"
       transform="matrix(0.88890574,0,0,0.88890574,161.40687,383.33621)">
      <circle
         cx="8.4665003"
         cy="2.8228999e-07"
         r="7.1436"
         style="fill:#333333;stroke-width:1.625;paint-order:stroke markers fill"
         id="circle44" />
      <path
         d="m 8.466,-4.6975 c -0.377,0.924 -0.604,1.529 -1.024,2.425 0.257,0.273 0.573,0.59 1.086,0.95 -0.551,-0.227 -0.928,-0.455 -1.209,-0.692 -0.537,1.121 -1.378,2.717 -3.086,5.785 1.342,-0.774 2.383,-1.252 3.352,-1.434 A 2.457,2.457 0 0 1 7.522,1.7615 l 10e-4,-0.043 c 0.022,-0.86 0.469,-1.521 0.999,-1.476 0.53,0.045 0.941,0.779 0.92,1.638 a 2.427,2.427 0 0 1 -0.054,0.462 c 0.959,0.188 1.988,0.664 3.312,1.428 -0.261,-0.48 -0.494,-0.913 -0.717,-1.326 -0.35,-0.272 -0.716,-0.625 -1.461,-1.008 0.512,0.133 0.88,0.287 1.165,0.459 -2.262,-4.212 -2.445,-4.772 -3.221,-6.593 z"
         id="path46"
         inkscape:connector-curvature="0"
         style="fill:#ffffff;fill-rule:evenodd;stroke-width:1.6875" />
    </g>
    <g
       id="debian"
       transform="matrix(0.88886074,0,0,0.88886074,161.40699,172.72529)">
      <g
         transform="matrix(1.0385,0,0,1.0385,-0.32619,-11.098)"
         id="g58"
         style="stroke-width:1.5648">
        <circle
           cx="8.467"
           cy="288.53"
           r="6.8790002"
           style="fill:#333333;stroke-width:1.5648;paint-order:stroke markers fill"
           id="circle56" />
      </g>
      <path
         d="m 11.077,287.92 c 0.009,0.229 -0.066,0.34 -0.134,0.536 l -0.122,0.06 c -0.1,0.195 0.01,0.124 -0.062,0.278 -0.156,0.14 -0.474,0.434 -0.575,0.461 -0.074,0 0.05,-0.087 0.066,-0.12 -0.208,0.143 -0.167,0.215 -0.487,0.302 l -0.01,-0.021 c -0.787,0.37 -1.881,-0.364 -1.867,-1.366 -0.008,0.064 -0.024,0.048 -0.041,0.073 -0.04,-0.515 0.238,-1.033 0.708,-1.245 0.46,-0.227 1,-0.134 1.328,0.173 -0.18,-0.237 -0.54,-0.488 -0.967,-0.465 -0.418,0.006 -0.81,0.273 -0.94,0.561 -0.214,0.135 -0.239,0.52 -0.332,0.59 -0.126,0.924 0.236,1.322 0.848,1.791 0.096,0.065 0.027,0.075 0.04,0.125 a 1.66,1.66 0 0 1 -0.543,-0.415 c 0.082,0.119 0.17,0.234 0.283,0.325 -0.192,-0.065 -0.448,-0.465 -0.523,-0.481 0.33,0.592 1.34,1.038 1.87,0.816 -0.245,0.01 -0.556,0.005 -0.831,-0.096 -0.116,-0.06 -0.273,-0.183 -0.245,-0.206 0.722,0.27 1.468,0.204 2.093,-0.296 0.159,-0.124 0.333,-0.335 0.383,-0.338 -0.076,0.114 0.013,0.055 -0.045,0.155 0.158,-0.255 -0.07,-0.104 0.163,-0.44 l 0.086,0.118 c -0.032,-0.213 0.263,-0.47 0.233,-0.805 0.068,-0.103 0.076,0.11 0.004,0.346 0.1,-0.262 0.026,-0.304 0.052,-0.52 0.028,0.073 0.064,0.15 0.083,0.227 -0.065,-0.253 0.066,-0.426 0.099,-0.573 -0.032,-0.014 -0.1,0.112 -0.116,-0.187 0.003,-0.13 0.036,-0.068 0.05,-0.1 -0.026,-0.015 -0.093,-0.114 -0.134,-0.305 0.03,-0.045 0.079,0.116 0.12,0.123 -0.027,-0.152 -0.071,-0.267 -0.073,-0.384 -0.117,-0.245 -0.041,0.033 -0.136,-0.105 -0.125,-0.389 0.103,-0.09 0.119,-0.267 0.188,0.274 0.296,0.698 0.346,0.874 a 3.575,3.575 0 0 0 -0.174,-0.623 c 0.058,0.024 -0.092,-0.44 0.075,-0.133 -0.178,-0.656 -0.764,-1.27 -1.302,-1.558 0.065,0.06 0.149,0.136 0.119,0.148 -0.268,-0.16 -0.221,-0.172 -0.26,-0.24 -0.217,-0.088 -0.232,0.008 -0.376,0 -0.411,-0.218 -0.49,-0.194 -0.87,-0.33 l 0.018,0.08 c -0.272,-0.091 -0.317,0.034 -0.612,0 -0.018,-0.014 0.095,-0.05 0.187,-0.064 -0.263,0.035 -0.251,-0.052 -0.509,0.009 0.064,-0.045 0.13,-0.074 0.199,-0.112 -0.215,0.013 -0.513,0.125 -0.421,0.023 -0.35,0.156 -0.973,0.376 -1.322,0.703 l -0.011,-0.073 c -0.16,0.192 -0.698,0.574 -0.74,0.823 l -0.044,0.01 c -0.083,0.14 -0.137,0.3 -0.203,0.445 -0.109,0.186 -0.16,0.072 -0.144,0.1 -0.214,0.435 -0.32,0.8 -0.412,1.1 0.065,0.097 0,0.589 0.026,0.982 -0.108,1.943 1.363,3.829 2.971,4.264 0.236,0.085 0.586,0.081 0.884,0.09 -0.351,-0.1 -0.397,-0.054 -0.74,-0.173 -0.247,-0.116 -0.3,-0.25 -0.476,-0.401 l 0.07,0.122 c -0.344,-0.121 -0.2,-0.15 -0.48,-0.238 l 0.074,-0.097 c -0.11,-0.008 -0.294,-0.187 -0.344,-0.287 l -0.122,0.005 c -0.146,-0.18 -0.224,-0.31 -0.219,-0.41 l -0.039,0.07 c -0.044,-0.077 -0.538,-0.678 -0.282,-0.538 -0.048,-0.043 -0.11,-0.07 -0.18,-0.195 l 0.053,-0.06 c -0.123,-0.158 -0.227,-0.361 -0.22,-0.43 0.067,0.09 0.112,0.106 0.157,0.121 -0.31,-0.772 -0.328,-0.042 -0.564,-0.785 l 0.05,-0.004 c -0.038,-0.058 -0.062,-0.12 -0.092,-0.182 l 0.021,-0.216 c -0.224,-0.259 -0.062,-1.101 -0.03,-1.563 0.022,-0.188 0.187,-0.388 0.312,-0.702 L 5.82,286.787 c 0.146,-0.254 0.832,-1.02 1.15,-0.981 0.155,-0.194 -0.03,0 -0.06,-0.05 0.338,-0.35 0.445,-0.247 0.673,-0.31 0.246,-0.146 -0.211,0.057 -0.095,-0.056 0.426,-0.109 0.302,-0.247 0.857,-0.302 0.059,0.033 -0.136,0.051 -0.184,0.094 0.354,-0.173 1.122,-0.134 1.62,0.097 0.58,0.27 1.23,1.07 1.255,1.822 l 0.03,0.008 c -0.015,0.299 0.045,0.644 -0.06,0.962 l 0.071,-0.15"
         id="path60"
         inkscape:connector-curvature="0"
         style="fill:#ffffff;stroke-width:1.6875" />
    </g>
    <g
       id="ubuntu"
       transform="matrix(1.7143321,0,0,1.7143321,160.31482,400.36961)">
      <g
         transform="matrix(0.53846,0,0,0.53846,0.42321,-1.1189)"
         id="g225"
         style="stroke-width:1.5648">
        <path
           d="m 8.467,1.588 a 6.879,6.879 0 1 1 0,13.757 6.879,6.879 0 0 1 0,-13.757 z"
           id="path223"
           style="fill:#333333;stroke-width:1.5648" />
      </g>
      <path
         d="m 5.0272,1.2448 a 2.1951,2.1951 0 1 0 0,4.3902 2.1951,2.1951 0 0 0 0,-4.3902 z M 5.80962,1.85663 A 0.29243,0.29243 0 0 1 6.02739,2.29373 0.29295,0.29295 0 1 1 5.80962,1.85663 Z M 5.02668,2.16669 c 0.11822,0 0.23229,0.016074 0.34066,0.046147 a 0.41117,0.41117 0 0 0 0.55117,0.3194 c 0.21673,0.2131 0.35777,0.50295 0.37851,0.82597 l -0.41739,0.0057 A 0.85605,0.85605 0 0 0 4.66633,2.663937 L 4.46256,2.298397 a 1.2688,1.2688 0 0 1 0.56465,-0.1317 z m -0.7062,0.21362 0.21466,0.35932 a 0.85501,0.85501 0 0 0 0,1.4005 l -0.21466,0.3588 a 1.2745,1.2745 0 0 1 -0.52576,-0.7399 0.41013,0.41013 0 0 0 0,-0.63828 1.2755,1.2755 0 0 1 0.52576,-0.74042 z M 3.53443,3.14666 a 0.29322,0.29322 0 1 1 0,0.58643 0.29296,0.29296 0 0 1 0,-0.58591 z m 2.3452,0.36865 0.41739,0.00674 A 1.2693,1.2693 0 0 1 5.91851,4.3475 0.40962,0.40962 0 0 0 5.36734,4.66638 1.2724,1.2724 0 0 1 4.46255,4.581346 l 0.20377,-0.36503 a 0.85553,0.85553 0 0 0 1.2133,-0.70101 z M 5.73704,4.44135 A 0.29359,0.29359 0 1 1 5.808593,5.02415 0.29359,0.29359 0 0 1 5.73704,4.44135 Z"
         id="path227"
         inkscape:connector-curvature="0"
         style="fill:#ffffff;stroke-width:0.87499" />
    </g>
    <g
       id="windows"
       transform="matrix(0.92307539,0,0,0.92307539,161.11788,475.05339)">
      <g
         transform="matrix(1.04,0,0,1.04,-0.339,-300.07)"
         style="stroke-width:1.5633;paint-order:markers stroke fill"
         id="g232">
        <path
           d="m 8.4665,281.92 c 3.6644,0 6.6145,2.9501 6.6145,6.6145 0,3.6644 -2.9501,6.6145 -6.6145,6.6145 -3.6644,0 -6.6145,-2.9501 -6.6145,-6.6145 0,-3.6644 2.9501,-6.6145 6.6145,-6.6145 z"
           id="path230"
           style="fill:#333333;stroke-width:1.5633" />
      </g>
      <path
         d="m 4.852,-0.2645 -0.003,-2.58 2.894,-0.431 v 3.011 z m 3.374,-3.088 3.857,-0.616 v 3.704 H 8.226 Z m 3.858,3.617 -10e-4,3.704 -3.857,-0.595 v -3.109 z m -4.34,3.042 -2.892,-0.435 v -2.608 h 2.891 v 3.042 z"
         id="path234"
         inkscape:connector-curvature="0"
         style="fill:#ffffff;stroke-width:1.6251" />
    </g>
    <g
       id="manjaro"
       transform="matrix(1.4999844,0,0,1.4999844,108.60836,423.55344)">
      <g
         transform="matrix(0.61539738,0,0,0.61539433,35.006341,13.839977)"
         id="g162"
         style="stroke-width:1.5649">
        <path
           transform="matrix(0.26458,0,0,0.26458,1.323,2.91)"
           d="M 27,-5 C 41.36,-5 53,6.64 53,21 53,35.36 41.36,47 27,47 12.64,47 1,35.36 1,21 1,6.64 12.64,-5 27,-5 Z"
           id="path160"
           style="fill:#333333;fill-opacity:1;stroke-width:1.5649" />
      </g>
      <g
         id="g1374"
         style="fill:#ffffff"
         transform="matrix(0.29090906,0,0,0.29090906,30.830112,13.169309)">
        <rect
           style="fill:#ffffff;fill-opacity:1;fill-rule:evenodd;stroke:none;stroke-width:0.568425;stroke-linecap:round;stroke-linejoin:miter;stroke-miterlimit:4;stroke-dasharray:1.70527, 1.70527;stroke-dashoffset:0;stroke-opacity:1"
           id="rect4149-7"
           width="4.5476413"
           height="14.552139"
           x="34.994804"
           y="12.938837" />
        <rect
           style="fill:#ffffff;fill-opacity:1;fill-rule:evenodd;stroke:none;stroke-width:0.568425;stroke-linecap:round;stroke-linejoin:miter;stroke-miterlimit:4;stroke-dasharray:1.70527, 1.70527;stroke-dashoffset:0;stroke-opacity:1"
           id="rect4149-0-6"
           width="3.6380222"
           height="9.0950527"
           x="30.447279"
           y="18.395868" />
        <path
           inkscape:connector-curvature="0"
           id="path5961"
           d="M 24.990362,12.938891 H 34.0853 v 4.547472 h -4.547527 v 10.004559 l -4.547411,5.4e-5 z"
           style="fill:#ffffff;fill-opacity:1;fill-rule:evenodd;stroke:none;stroke-width:0.0682128px;stroke-linecap:butt;stroke-linejoin:miter;stroke-opacity:1"
           sodipodi:nodetypes="ccccccc" />
      </g>
    </g>
    <text
       xml:space="preserve"
       style="font-style:normal;font-weight:normal;font-size:8.20492px;line-height:1.25;font-family:sans-serif;fill:#ffffff;fill-opacity:1;stroke:none;stroke-width:0.205123"
       x="184.77617"
       y="386.39502"
       id="text3181"><tspan
         sodipodi:role="line"
         id="tspan3179"
         style="fill:#ffffff;stroke-width:0.205123"
         x="184.77617"
         y="386.39502">Arch linux</tspan></text>
    <text
       xml:space="preserve"
       style="font-style:normal;font-weight:normal;font-size:8.20492px;line-height:1.25;font-family:sans-serif;fill:#333333;fill-opacity:1;stroke:none;stroke-width:0.205123"
       x="184.96429"
       y="409.32568"
       id="text3897"><tspan
         sodipodi:role="line"
         id="tspan3895"
         style="fill:#333333;stroke-width:0.205123"
         x="184.96429"
         y="409.32568">Ubuntu 21.10</tspan></text>
    <text
       xml:space="preserve"
       style="font-style:normal;font-weight:normal;font-size:8.20492px;line-height:1.25;font-family:sans-serif;fill:#333333;fill-opacity:1;stroke:none;stroke-width:0.205123"
       x="184.99101"
       y="432.25632"
       id="text6397"><tspan
         sodipodi:role="line"
         id="tspan6395"
         style="fill:#333333;stroke-width:0.205123"
         x="184.99101"
         y="432.25632">Debian 11 </tspan></text>
    <text
       xml:space="preserve"
       style="font-style:normal;font-weight:normal;font-size:8.20492px;line-height:1.25;font-family:sans-serif;fill:#333333;fill-opacity:1;stroke:none;stroke-width:0.205123"
       x="184.99101"
       y="454.39175"
       id="text9029"><tspan
         sodipodi:role="line"
         id="tspan9027"
         style="fill:#333333;stroke-width:0.205123"
         x="184.99101"
         y="454.39175">Manjaro 20.02</tspan></text>
    <text
       xml:space="preserve"
       style="font-style:normal;font-weight:normal;font-size:8.20492px;line-height:1.25;font-family:sans-serif;fill:#333333;fill-opacity:1;stroke:none;stroke-width:0.205123"
       x="184.99101"
       y="478.11765"
       id="text10605"><tspan
         sodipodi:role="line"
         id="tspan10603"
         style="fill:#333333;stroke-width:0.205123"
         x="184.99101"
         y="478.11765">Windows 11</tspan></text>
  </g>
</svg>
