<svg width="1920" height="1080" version="1.1" viewBox="0 0 508 285.75" xmlns="http://www.w3.org/2000/svg">
 <defs>
  <clipPath id="clipPath840">
   <rect width="508" height="285.75" fill="#d9d9d9" stroke-linecap="round" stroke-linejoin="round" stroke-width=".25702" style="paint-order:stroke fill markers"/>
  </clipPath>
  <clipPath id="clipPath1101">
   <rect x="-8.1476e-14" y="-4.4141e-6" width="508" height="285.75" rx="13.426" ry="13.426" fill="#333333"/>
  </clipPath>
 </defs>
 <g transform="translate(0 -287.47)">
  <g id="wave-dark" transform="translate(0 287.47)" clip-path="url(#clipPath1101)" stroke-linecap="round">
   <rect width="508" height="285.75" fill="#383838" stroke-linejoin="round" stroke-width=".25702" style="paint-order:stroke fill markers"/>
   <g clip-path="url(#clipPath840)" stroke="#e0e0e0" stroke-width="1.0583">
    <path d="m532.52 261.52s-20.448-0.23405-30.711-2.2058c-24.472-4.7012-51.68-24.876-85.249-33.521-39.723-10.23-87.454 5.7354-116.95-0.72145-60.36-13.212-73.187-43.796-114.76-50.966-37.922-6.5411-74.878 10.457-115.82 1.7753-32.171-6.8218-72.331-42.981-72.331-42.981l-9.6915-263.96 541.38-4.6525z" fill="#474747" style="paint-order:stroke fill markers"/>
    <path d="m545.27 182.4s-29.204 9.7276-62.698 3.2186c-31.698-6.16-36.835-24.095-69.984-27.146-23.362-2.1505-56.218 15.325-84.235 11.298-20.958-3.0127-59.836-48.407-59.836-48.407l63.476-56.308 212.55 17.675z" fill="#262626" style="paint-order:stroke fill markers"/>
    <path d="m538.1 186.74s-40.995-30.948-91.798-34.942c-47.77-3.7557-76.702 26.423-129.78 18.301-57.74-8.8359-73.392-44.639-119.64-58.48-50.718-15.18-83.915 3.2312-131-24.741-41.216-24.487-76.23-74.85-76.23-74.85l-4.9455-175.02 551.7 15.608z" fill="#333333" style="paint-order:stroke fill markers"/>
    <path d="m543.3 153.56s-3.9467-0.9397-11.58-2.9571c-7.6332-2.0174-36.279-19.226-60.594-26.778-42.652-13.248-85.919-0.80563-126.45-8.6784-60.435-11.738-84.454-43.625-130-49.987-31.395-4.3845-66.568 7.7786-109.85-2.1451-77.013-23.03-127.49-89.603-127.49-89.603l7.3743-136.39 578.76 29.909z" fill="#404040" style="paint-order:stroke fill markers"/>
    <path d="m549.33 111.88s-32.254 0.0326-73.39-13.516c-40.51-13.343-65.505-29.642-97.792-39.995-51.284-16.445-93.642-0.59355-141.48-9.2493-74.961-13.564-100.84-74.329-146.66-101.8-54.993-32.964-102.43-24.775-102.43-24.775l-2.2821-71.214 575.79 13.853z" fill="#383838" style="paint-order:stroke fill markers"/>
    <path d="m558.15 66.601s-22.397-5.2033-32.249-9.3179c-9.8522-4.1146-32.68-14.871-54.483-21.887-30.63-9.8574-68.317-5.7996-103.27-11.527-45.175-7.4016-79.837-25.061-91.939-35.185-22.152-18.533-31.647-42.896-31.647-42.896l-10.083-48.643 340.06-1.6146z" fill="#525252" style="paint-order:stroke fill markers"/>
   </g>
  </g>
  <g id="info" transform="matrix(1.5238 0 0 1.5238 251.58 115.21)">
   <rect x="-61.912" y="285.62" width="127" height="11.112" fill="none" stroke-width=".40548"/>
   <g transform="matrix(.26458 0 0 .26458 50.006 289.06)">
    <path transform="translate(-189.38 32.5)" d="m191.38-30.5c-1.108 0-2 0.892-2 2v9c0 1.108 0.892 2 2 2h12c1.108 0 2-0.892 2-2v-9c0-1.108-0.892-2-2-2zm0 1h12c0.554 0 1 0.446 1 1v9c0 0.554-0.446 1-1 1h-12c-0.554 0-1-0.446-1-1v-9c0-0.554 0.446-1 1-1zm1.7188 1-0.71875 0.6875 2.625 2.8125-2.5938 2.8125 0.6875 0.6875 2.9688-3.1562 0.3125-0.34375-0.3125-0.34375zm3.2812 7v1h4v-1z" fill="#ffffff"/>
   </g>
   <g transform="matrix(.26458 0 0 .26458 4.0984 289.06)" enable-background="new">
    <path d="m7.5098-8.3933e-5c-0.52809-1.0422e-5 -1.0357 0.20965-1.4082 0.58398-0.37025 0.37201-0.57804 0.87775-0.57812 1.4023-0.00786 0.54777-0.44262 0.97755-0.99023 0.97852-0.16286-0.00203-0.32085-0.047715-0.46094-0.13086a0.50005 0.50005 0 0 0-0.00781-0.00391c-0.94825-0.54336-2.1712-0.2126-2.7168 0.73438l-0.51562 0.84766a0.50005 0.50005 0 0 0-0.005859 0.00977c-0.54496 0.94581-0.21898 2.168 0.72461 2.7168a0.50005 0.50005 0 0 0 0.00195 0.00195c0.30786 0.17772 0.49609 0.50395 0.49609 0.85938 0 0.35554-0.18818 0.68159-0.49609 0.85938-0.94343 0.54576-1.2713 1.7669-0.72656 2.7109a0.50005 0.50005 0 0 0 0 2e-3l0.48828 0.8418s0.00195 2e-3 0.00195 2e-3c0.25709 0.46235 0.68834 0.80462 1.1973 0.94922 0.50986 0.14497 1.0572 0.0795 1.5195-0.17969a0.50005 0.50005 0 0 0 0.00586-0.0039c0.22559-0.13165 0.49383-0.16716 0.74609-0.09961a0.50005 0.50005 0 0 0 0.00195 0c0.25231 0.0675 0.46602 0.23231 0.5957 0.45898a0.50005 0.50005 0 0 0 0.00391 0.0078c0.083519 0.14076 0.12916 0.29929 0.13086 0.46289 0.00256 1.0925 0.89902 1.9883 1.9922 1.9883h0.97852c1.0911 0 1.987-0.89332 1.9922-1.9844a0.50005 0.50005 0 0 0 0-0.0039c-0.0013-0.26322 0.10291-0.51496 0.28906-0.70117 0.18507-0.18507 0.43568-0.2872 0.69727-0.28711 0.16548 0.0054 0.32874 0.05101 0.47266 0.13281 0.9455 0.54308 2.1684 0.21626 2.7168-0.72656l0.50977-0.85156a0.50005 0.50005 0 0 0 0.0039-0.0059c0.26597-0.45645 0.3393-0.99921 0.20312-1.5098-0.13616-0.51046-0.46983-0.94747-0.92774-1.2109-0.22759-0.13092-0.39325-0.34587-0.46094-0.59961-0.06766-0.25363-0.03256-0.52315 0.09961-0.75a0.50005 0.50005 0 0 0 2e-3 -0.00391c0.08524-0.1488 0.20851-0.27212 0.35742-0.35742a0.50005 0.50005 0 0 0 0.0039-0.00195c0.89916-0.52597 1.2257-1.6612 0.77734-2.5859a0.50005 0.50005 0 0 0-0.05273-0.13086l-0.48633-0.84375c-0.54562-0.94691-1.7685-1.2777-2.7168-0.73438a0.50005 0.50005 0 0 0-0.0059 0.00391c-0.22567 0.13295-0.49439 0.17132-0.74805 0.10547-0.25358-0.06584-0.47094-0.23099-0.60352-0.45703a0.50005 0.50005 0 0 0 0-0.00195c-0.08345-0.14063-0.12913-0.29929-0.13086-0.46289v0.019531c0.01552-0.53821-0.1872-1.0612-0.5625-1.4473-0.37528-0.38603-0.89133-0.60374-1.4297-0.60352h-0.97852zm0 1h0.97852c0.26844-1.1316e-4 0.52569 0.10822 0.71289 0.30078 0.18718 0.19253 0.28703 0.45232 0.2793 0.7207a0.50005 0.50005 0 0 0 0 0.019531c0.00358 0.33821 0.097494 0.6697 0.26953 0.96094 0.26667 0.45468 0.70265 0.78549 1.2129 0.91797 0.50797 0.13186 1.049 0.057654 1.502-0.20703 0.48013-0.2751 1.0773-0.11421 1.3535 0.36523l0.46875 0.8125a0.50005 0.50005 0 0 0 0.01758 0.035156c0.27261 0.47764 0.11336 1.0719-0.36133 1.3496-0.30024 0.17284-0.54975 0.42233-0.72266 0.72266v0.00195c-0.26515 0.45616-0.33913 0.99992-0.20312 1.5098 0.13615 0.51038 0.4697 0.9455 0.92773 1.209 0.22756 0.13093 0.39328 0.3479 0.46094 0.60156 0.0673 0.25234 0.03091 0.51999-0.09961 0.74609-6.72e-4 0.0012 6.76e-4 0.0027 0 0.0039l-0.51172 0.85156a0.50005 0.50005 0 0 0-0.0039 0.0059c-0.27779 0.47762-0.87471 0.63719-1.3535 0.36133a0.50005 0.50005 0 0 0-2e-3 -2e-3c-0.2896-0.1656-0.61582-0.25672-0.94922-0.26562a0.50005 0.50005 0 0 0-0.0098 0c-0.52982-0.0026-1.0394 0.20741-1.4141 0.58203-0.37447 0.37457-0.58457 0.88233-0.58203 1.4121-0.00472 0.55042-0.44117 0.98438-0.99219 0.98438h-0.97852c-0.55436 0-0.99414-0.43796-0.99414-0.99219a0.50005 0.50005 0 0 0 0-0.0059c-0.00351-0.33749-0.096364-0.66827-0.26758-0.95898-0.26208-0.45657-0.69447-0.79164-1.2031-0.92774-0.50677-0.13569-1.0479-0.06304-1.502 0.19922-0.23061 0.12928-0.5016 0.16018-0.75586 0.08789-0.25426-0.07224-0.46952-0.24144-0.59766-0.47266a0.50005 0.50005 0 0 0-0.00391-0.0098l-0.49219-0.84766c-0.27481-0.47621-0.11658-1.0704 0.35938-1.3457 0.61589-0.35561 0.99609-1.0154 0.99609-1.7266 0-0.71066-0.38088-1.3689-0.99609-1.7246v-0.00195c-0.47648-0.27816-0.63497-0.87326-0.35938-1.3516l0.51562-0.84766a0.50005 0.50005 0 0 0 0.00586-0.00977c0.27621-0.47941 0.87345-0.64227 1.3535-0.36719 0.29021 0.17048 0.62038 0.26409 0.95703 0.26758a0.50005 0.50005 0 0 0 0.00586 0c1.0839 1.326e-4 1.9766-0.88107 1.9922-1.9648a0.50005 0.50005 0 0 0 0-0.00977c-0.00125-0.26248 0.10196-0.51319 0.28711-0.69922 0.18511-0.186 0.43681-0.29102 0.69922-0.29102zm0.49023 4c-1.6509 0-3 1.3491-3 3s1.3491 3 3 3 3-1.3491 3-3-1.3491-3-3-3zm0 1c1.1105 0 2 0.88951 2 2s-0.88951 2-2 2-2-0.88951-2-2 0.88951-2 2-2z" clip-rule="evenodd" color="#000000" color-rendering="auto" dominant-baseline="auto" fill="#ffffff" fill-rule="evenodd" image-rendering="auto" shape-rendering="auto" solid-color="#000000" stop-color="#000000" style="font-feature-settings:normal;font-variant-alternates:normal;font-variant-caps:normal;font-variant-east-asian:normal;font-variant-ligatures:normal;font-variant-numeric:normal;font-variant-position:normal;font-variation-settings:normal;inline-size:0;isolation:auto;mix-blend-mode:normal;shape-margin:0;shape-padding:0;text-decoration-color:#000000;text-decoration-line:none;text-decoration-style:solid;text-indent:0;text-orientation:mixed;text-transform:none;white-space:normal"/>
   </g>
   <g transform="matrix(.26458 0 0 .26458 -42.598 289.06)">
    <path class="ColorScheme-Text" transform="translate(161 37)" d="m-158-36c-1.108 0-2 0.892-2 2v10c0 1.108 0.892 2 2 2h10c1.108 0 2-0.892 2-2v-10c0-1.108-0.892-2-2-2zm0 3h10c0.554 0 1 0.446 1 1v8c0 0.554-0.446 1-1 1h-10c-0.554 0-1-0.446-1-1v-8c0-0.554 0.446-1 1-1zm3 2v6l4-3z" fill="#ffffff"/>
   </g>
   <path d="m-50.271 288c-0.43974 0-0.79375 0.354-0.79375 0.79375v4.7625c0 0.43975 0.354 0.79375 0.79375 0.79375h4.7625c0.43975 0 0.79375-0.354 0.79375-0.79375v-4.7625c0-0.43975-0.354-0.79375-0.79375-0.79375zm4.0943 1.5865c0.0023-1.1e-4 0.0044 0 0.0067 0 0.07329 0 0.13229 0.059 0.13229 0.13229v1.5885c0 0.055-0.0331 0.10193-0.08062 0.12196-2e-3 8.3e-4 -0.0042 1e-3 -0.0062 2e-3 -0.0041 1e-3 -0.0081 3e-3 -0.0124 4e-3 -0.0063 2e-3 -0.01295 3e-3 -0.01964 4e-3 -0.0045 4.5e-4 -0.0089 5.1e-4 -0.01343 5.1e-4h-3.3848l0.89659 0.89659c0.05182 0.0518 0.05182 0.13524 0 0.18707-0.05182 0.0518-0.13524 0.0518-0.18707 0l-1.1131-1.1136c-0.0015-1e-3 -0.0027-3e-3 -0.0041-4e-3 -0.0017-2e-3 -0.0035-3e-3 -0.0052-5e-3 -0.0015-2e-3 -0.0032-3e-3 -0.0046-5e-3v-5.2e-4c-0.0014-2e-3 -0.0028-3e-3 -0.0041-5e-3 -0.0014-2e-3 -0.0028-4e-3 -0.0041-6e-3 -9.69e-4 -1e-3 -0.0022-3e-3 -0.0031-4e-3 -2.73e-4 -4e-4 -7.67e-4 -6.3e-4 -1e-3 -1e-3v-5.2e-4c-0.0011-2e-3 -0.0021-3e-3 -0.0031-5e-3 -6.13e-4 -1e-3 -0.0015-2e-3 -0.0021-3e-3 -1.8e-4 -3.2e-4 -3.39e-4 -7.1e-4 -5.16e-4 -1e-3 -2.96e-4 -5.5e-4 -7.46e-4 -1e-3 -1e-3 -2e-3 -5.22e-4 -9.9e-4 -0.0011-2e-3 -0.0016-3e-3 -1.67e-4 -3.5e-4 -3.52e-4 -6.9e-4 -5.16e-4 -1e-3 -3.12e-4 -6.4e-4 -2.19e-4 -1e-3 -5.16e-4 -2e-3 -8.73e-4 -2e-3 -0.0018-4e-3 -0.0026-6e-3 -7.51e-4 -2e-3 -0.0019-4e-3 -0.0026-6e-3v-5.2e-4c-1.21e-4 -3.5e-4 -3.97e-4 -6.8e-4 -5.16e-4 -1e-3 -9.1e-4 -3e-3 -0.0013-5e-3 -0.0021-8e-3 -1.38e-4 -5.2e-4 -3.86e-4 -1e-3 -5.19e-4 -2e-3 -2.3e-4 -9.2e-4 -8.17e-4 -2e-3 -1e-3 -3e-3 -3.52e-4 -2e-3 -2.2e-4 -3e-3 -5.16e-4 -5e-3 -3.76e-4 -2e-3 -7.47e-4 -4e-3 -1e-3 -6e-3v-5.1e-4c-2.54e-4 -2e-3 -8.49e-4 -3e-3 -1e-3 -5e-3v-0.00104c-4.05e-4 -4e-3 -5.16e-4 -8e-3 -5.16e-4 -0.0124 0-2e-3 -9.8e-5 -4e-3 0-6e-3v-5.2e-4c9.2e-5 -2e-3 3.38e-4 -4e-3 5.16e-4 -6e-3v-0.00103c1.93e-4 -2e-3 7.64e-4 -4e-3 1e-3 -6e-3 3.78e-4 -3e-3 5e-4 -5e-3 1e-3 -8e-3 2.14e-4 -1e-3 2.75e-4 -2e-3 5.16e-4 -3e-3 2.43e-4 -1e-3 7.67e-4 -2e-3 1e-3 -3e-3 8.1e-4 -3e-3 0.0016-6e-3 0.0026-9e-3 1.22e-4 -3.6e-4 3.92e-4 -6.8e-4 5.16e-4 -1e-3v-5.1e-4c5.37e-4 -2e-3 0.0015-3e-3 0.0021-5e-3 1.35e-4 -3.5e-4 3.76e-4 -6.9e-4 5.16e-4 -1e-3v-5.1e-4c2.12e-4 -5.2e-4 2.99e-4 -1e-3 5.16e-4 -2e-3 6.09e-4 -1e-3 0.0014-3e-3 0.0021-4e-3 0.0012-2e-3 0.0023-5e-3 0.0036-7e-3 7.75e-4 -1e-3 0.0018-3e-3 0.0026-4e-3 0.0013-2e-3 0.0027-5e-3 0.0041-7e-3 9.68e-4 -1e-3 0.0021-3e-3 0.0031-4e-3v-5.2e-4c3.68e-4 -5e-4 6.56e-4 -1e-3 1e-3 -2e-3 8.83e-4 -1e-3 0.0022-2e-3 0.0031-3e-3v-0.00103c8.46e-4 -1e-3 0.0017-2e-3 0.0026-3e-3 4.07e-4 -4.7e-4 0.0011-5.7e-4 0.0016-1e-3v-5.2e-4c0.0015-2e-3 3e-3 -3e-3 0.0046-5e-3l1.1224-1.1229c0.05182-0.0518 0.13524-0.0518 0.18707 0 0.05182 0.0518 0.05182 0.13524 0 0.18707l-0.89659 0.8971h3.2525v-1.4531c0-0.071 0.05548-0.12876 0.12557-0.13229z" fill="#ffffff"/>
   <path d="m-4.2333 288c-0.43975 0-0.79375 0.354-0.79375 0.79375v4.7625c0 0.43975 0.354 0.79375 0.79375 0.79375h4.7625c0.43975 0 0.79375-0.354 0.79375-0.79375v-4.7625c0-0.43975-0.354-0.79375-0.79375-0.79375zm1.1906 1.3224 2.3812 1e-3c0.073289 0 0.13229 0.059 0.13229 0.1323s-0.059003 0.13229-0.13229 0.13229h-2.249v1.3229h1.9844c0.073289 0 0.13229 0.059 0.13229 0.1323s-0.059003 0.13229-0.13229 0.13229h-1.9844v1.5875h2.249c0.073289 0 0.13229 0.059 0.13229 0.13229 0 0.0733-0.059003 0.13229-0.13229 0.13229h-2.3812c-0.073289 0-0.13229-0.059-0.13229-0.13229v-1.8454c-1.137e-4 -3e-3 0-5e-3 0-7e-3 0-3e-3 -1.137e-4 -5e-3 0-7e-3v-1.5808c0-0.0733 0.059004-0.13229 0.13229-0.13229z" fill="#ffffff"/>
   <path transform="matrix(.26458 0 0 .26458 -61.912 285.62)" d="m392 9c-1.662 0-3 1.338-3 3v18c0 1.662 1.338 3 3 3h18c1.662 0 3-1.338 3-3v-18c0-1.662-1.338-3-3-3zm9 5a7 7 0 0 1 5.7422 3h-1.2734a6 6 0 0 0-4.4688-2 6 6 0 0 0-6 6 6 6 0 0 0 6 6 6 6 0 0 0 4.4688-2h1.2598a7 7 0 0 1-5.7285 3 7 7 0 0 1-7-7 7 7 0 0 1 7-7z" fill="#ffffff"/>
  </g>
  <rect id="viewbox" x="128.04" y="356.27" width="251.91" height="148.17" rx="7.4403" ry="7.4403" fill="#e0e0e0" stroke-width="1.2677"/>
  <rect x="156.1" y="374.87" width="195.79" height="16.933" rx="3.2992" ry="3.2992" fill="#333333"/>
  <g id="archlinux" transform="matrix(.88891 0 0 .88891 161.41 383.34)">
   <circle cx="8.4665" cy="2.8229e-7" r="7.1436" fill="#333333" stroke-width="1.625" style="paint-order:stroke markers fill"/>
   <path d="m8.466-4.6975c-0.377 0.924-0.604 1.529-1.024 2.425 0.257 0.273 0.573 0.59 1.086 0.95-0.551-0.227-0.928-0.455-1.209-0.692-0.537 1.121-1.378 2.717-3.086 5.785 1.342-0.774 2.383-1.252 3.352-1.434a2.457 2.457 0 0 1-0.063-0.575l1e-3 -0.043c0.022-0.86 0.469-1.521 0.999-1.476s0.941 0.779 0.92 1.638a2.427 2.427 0 0 1-0.054 0.462c0.959 0.188 1.988 0.664 3.312 1.428-0.261-0.48-0.494-0.913-0.717-1.326-0.35-0.272-0.716-0.625-1.461-1.008 0.512 0.133 0.88 0.287 1.165 0.459-2.262-4.212-2.445-4.772-3.221-6.593z" fill="#ffffff" fill-rule="evenodd" stroke-width="1.6875"/>
  </g>
  <g id="debian" transform="matrix(.88886 0 0 .88886 161.41 172.73)">
   <g transform="matrix(1.0385 0 0 1.0385 -.32619 -11.098)" stroke-width="1.5648">
    <circle cx="8.467" cy="288.53" r="6.879" fill="#333333" stroke-width="1.5648" style="paint-order:stroke markers fill"/>
   </g>
   <path d="m11.077 287.92c9e-3 0.229-0.066 0.34-0.134 0.536l-0.122 0.06c-0.1 0.195 0.01 0.124-0.062 0.278-0.156 0.14-0.474 0.434-0.575 0.461-0.074 0 0.05-0.087 0.066-0.12-0.208 0.143-0.167 0.215-0.487 0.302l-0.01-0.021c-0.787 0.37-1.881-0.364-1.867-1.366-8e-3 0.064-0.024 0.048-0.041 0.073-0.04-0.515 0.238-1.033 0.708-1.245 0.46-0.227 1-0.134 1.328 0.173-0.18-0.237-0.54-0.488-0.967-0.465-0.418 6e-3 -0.81 0.273-0.94 0.561-0.214 0.135-0.239 0.52-0.332 0.59-0.126 0.924 0.236 1.322 0.848 1.791 0.096 0.065 0.027 0.075 0.04 0.125a1.66 1.66 0 0 1-0.543-0.415c0.082 0.119 0.17 0.234 0.283 0.325-0.192-0.065-0.448-0.465-0.523-0.481 0.33 0.592 1.34 1.038 1.87 0.816-0.245 0.01-0.556 5e-3 -0.831-0.096-0.116-0.06-0.273-0.183-0.245-0.206 0.722 0.27 1.468 0.204 2.093-0.296 0.159-0.124 0.333-0.335 0.383-0.338-0.076 0.114 0.013 0.055-0.045 0.155 0.158-0.255-0.07-0.104 0.163-0.44l0.086 0.118c-0.032-0.213 0.263-0.47 0.233-0.805 0.068-0.103 0.076 0.11 4e-3 0.346 0.1-0.262 0.026-0.304 0.052-0.52 0.028 0.073 0.064 0.15 0.083 0.227-0.065-0.253 0.066-0.426 0.099-0.573-0.032-0.014-0.1 0.112-0.116-0.187 3e-3 -0.13 0.036-0.068 0.05-0.1-0.026-0.015-0.093-0.114-0.134-0.305 0.03-0.045 0.079 0.116 0.12 0.123-0.027-0.152-0.071-0.267-0.073-0.384-0.117-0.245-0.041 0.033-0.136-0.105-0.125-0.389 0.103-0.09 0.119-0.267 0.188 0.274 0.296 0.698 0.346 0.874a3.575 3.575 0 0 0-0.174-0.623c0.058 0.024-0.092-0.44 0.075-0.133-0.178-0.656-0.764-1.27-1.302-1.558 0.065 0.06 0.149 0.136 0.119 0.148-0.268-0.16-0.221-0.172-0.26-0.24-0.217-0.088-0.232 8e-3 -0.376 0-0.411-0.218-0.49-0.194-0.87-0.33l0.018 0.08c-0.272-0.091-0.317 0.034-0.612 0-0.018-0.014 0.095-0.05 0.187-0.064-0.263 0.035-0.251-0.052-0.509 9e-3 0.064-0.045 0.13-0.074 0.199-0.112-0.215 0.013-0.513 0.125-0.421 0.023-0.35 0.156-0.973 0.376-1.322 0.703l-0.011-0.073c-0.16 0.192-0.698 0.574-0.74 0.823l-0.044 0.01c-0.083 0.14-0.137 0.3-0.203 0.445-0.109 0.186-0.16 0.072-0.144 0.1-0.214 0.435-0.32 0.8-0.412 1.1 0.065 0.097 0 0.589 0.026 0.982-0.108 1.943 1.363 3.829 2.971 4.264 0.236 0.085 0.586 0.081 0.884 0.09-0.351-0.1-0.397-0.054-0.74-0.173-0.247-0.116-0.3-0.25-0.476-0.401l0.07 0.122c-0.344-0.121-0.2-0.15-0.48-0.238l0.074-0.097c-0.11-8e-3 -0.294-0.187-0.344-0.287l-0.122 5e-3c-0.146-0.18-0.224-0.31-0.219-0.41l-0.039 0.07c-0.044-0.077-0.538-0.678-0.282-0.538-0.048-0.043-0.11-0.07-0.18-0.195l0.053-0.06c-0.123-0.158-0.227-0.361-0.22-0.43 0.067 0.09 0.112 0.106 0.157 0.121-0.31-0.772-0.328-0.042-0.564-0.785l0.05-4e-3c-0.038-0.058-0.062-0.12-0.092-0.182l0.021-0.216c-0.224-0.259-0.062-1.101-0.03-1.563 0.022-0.188 0.187-0.388 0.312-0.702l-0.076-0.013c0.146-0.254 0.832-1.02 1.15-0.981 0.155-0.194-0.03 0-0.06-0.05 0.338-0.35 0.445-0.247 0.673-0.31 0.246-0.146-0.211 0.057-0.095-0.056 0.426-0.109 0.302-0.247 0.857-0.302 0.059 0.033-0.136 0.051-0.184 0.094 0.354-0.173 1.122-0.134 1.62 0.097 0.58 0.27 1.23 1.07 1.255 1.822l0.03 8e-3c-0.015 0.299 0.045 0.644-0.06 0.962l0.071-0.15" fill="#ffffff" stroke-width="1.6875"/>
  </g>
  <g id="ubuntu" transform="matrix(1.7143 0 0 1.7143 160.31 400.37)">
   <g transform="matrix(.53846 0 0 .53846 .42321 -1.1189)" stroke-width="1.5648">
    <path d="m8.467 1.588a6.879 6.879 0 1 1 0 13.757 6.879 6.879 0 0 1 0-13.757z" fill="#333333" stroke-width="1.5648"/>
   </g>
   <path d="m5.0272 1.2448a2.1951 2.1951 0 1 0 0 4.3902 2.1951 2.1951 0 0 0 0-4.3902zm0.78242 0.61183a0.29243 0.29243 0 0 1 0.21777 0.4371 0.29295 0.29295 0 1 1-0.21777-0.4371zm-0.78294 0.31006c0.11822 0 0.23229 0.016074 0.34066 0.046147a0.41117 0.41117 0 0 0 0.55117 0.3194c0.21673 0.2131 0.35777 0.50295 0.37851 0.82597l-0.41739 0.0057a0.85605 0.85605 0 0 0-1.2133-0.69997l-0.20377-0.36554a1.2688 1.2688 0 0 1 0.56465-0.1317zm-0.7062 0.21362 0.21466 0.35932a0.85501 0.85501 0 0 0 0 1.4005l-0.21466 0.3588a1.2745 1.2745 0 0 1-0.52576-0.7399 0.41013 0.41013 0 0 0 0-0.63828 1.2755 1.2755 0 0 1 0.52576-0.74042zm-0.78605 0.76635a0.29322 0.29322 0 1 1 0 0.58643 0.29296 0.29296 0 0 1 0-0.58591zm2.3452 0.36865 0.41739 0.00674a1.2693 1.2693 0 0 1-0.37851 0.82545 0.40962 0.40962 0 0 0-0.55117 0.31888 1.2724 1.2724 0 0 1-0.90479-0.085034l0.20377-0.36503a0.85553 0.85553 0 0 0 1.2133-0.70101zm-0.14259 0.92604a0.29359 0.29359 0 1 1 0.071553 0.5828 0.29359 0.29359 0 0 1-0.071553-0.5828z" fill="#ffffff" stroke-width=".87499"/>
  </g>
  <g id="windows" transform="matrix(.92308 0 0 .92308 161.12 475.05)">
   <g transform="matrix(1.04 0 0 1.04 -.339 -300.07)" stroke-width="1.5633" style="paint-order:markers stroke fill">
    <path d="m8.4665 281.92c3.6644 0 6.6145 2.9501 6.6145 6.6145s-2.9501 6.6145-6.6145 6.6145-6.6145-2.9501-6.6145-6.6145 2.9501-6.6145 6.6145-6.6145z" fill="#333333" stroke-width="1.5633"/>
   </g>
   <path d="m4.852-0.2645-3e-3 -2.58 2.894-0.431v3.011zm3.374-3.088 3.857-0.616v3.704h-3.857zm3.858 3.617-1e-3 3.704-3.857-0.595v-3.109zm-4.34 3.042-2.892-0.435v-2.608h2.891v3.042z" fill="#ffffff" stroke-width="1.6251"/>
  </g>
  <g id="manjaro" transform="matrix(1.5 0 0 1.5 108.61 423.55)">
   <g transform="matrix(.6154 0 0 .61539 35.006 13.84)" stroke-width="1.5649">
    <path transform="matrix(.26458 0 0 .26458 1.323 2.91)" d="m27-5c14.36 0 26 11.64 26 26s-11.64 26-26 26-26-11.64-26-26 11.64-26 26-26z" fill="#333333" stroke-width="1.5649"/>
   </g>
   <g transform="matrix(.29091 0 0 .29091 30.83 13.169)" fill="#ffffff" fill-rule="evenodd">
    <rect x="34.995" y="12.939" width="4.5476" height="14.552"/>
    <rect x="30.447" y="18.396" width="3.638" height="9.0951"/>
    <path d="m24.99 12.939h9.0949v4.5475h-4.5475v10.005l-4.5474 5.4e-5z"/>
   </g>
  </g>
  <text x="184.77617" y="386.39502" fill="#ffffff" font-family="sans-serif" font-size="8.2049px" stroke-width=".20512" style="line-height:1.25" xml:space="preserve"><tspan x="184.77617" y="386.39502" fill="#ffffff" stroke-width=".20512">Arch linux</tspan></text>
  <text x="184.96429" y="409.32568" fill="#333333" font-family="sans-serif" font-size="8.2049px" stroke-width=".20512" style="line-height:1.25" xml:space="preserve"><tspan x="184.96429" y="409.32568" fill="#333333" stroke-width=".20512">Ubuntu 21.10</tspan></text>
  <text x="184.99101" y="432.25632" fill="#333333" font-family="sans-serif" font-size="8.2049px" stroke-width=".20512" style="line-height:1.25" xml:space="preserve"><tspan x="184.99101" y="432.25632" fill="#333333" stroke-width=".20512">Debian 11 </tspan></text>
  <text x="184.99101" y="454.39175" fill="#333333" font-family="sans-serif" font-size="8.2049px" stroke-width=".20512" style="line-height:1.25" xml:space="preserve"><tspan x="184.99101" y="454.39175" fill="#333333" stroke-width=".20512">Manjaro 20.02</tspan></text>
  <text x="184.99101" y="478.11765" fill="#333333" font-family="sans-serif" font-size="8.2049px" stroke-width=".20512" style="line-height:1.25" xml:space="preserve"><tspan x="184.99101" y="478.11765" fill="#333333" stroke-width=".20512">Windows 11</tspan></text>
 </g>
</svg>
