<svg xmlns="http://www.w3.org/2000/svg" width="51" height="54"><path d="M71 552.362h34v36H71z" style="fill:none" transform="matrix(1.5 0 0 1.5 -106.5 -828.543)"/><path d="M88 583.362c6.627 0 12-5.372 12-12 0-6.627-5.373-12-12-12s-12 5.373-12 12c0 6.628 5.373 12 12 12" style="fill:#e0e0e0" transform="matrix(1.5 0 0 1.5 -106.5 -828.543)"/><path d="M88 583.362c6.627 0 12-5.372 12-12 0-6.627-5.373-12-12-12s-12 5.373-12 12c0 6.628 5.373 12 12 12" style="opacity:.3;fill:#000;fill-opacity:1;fill-rule:evenodd;stroke:none;stroke-width:1.71428" transform="matrix(1.5 0 0 1.5 -106.5 -828.543)"/><path d="m84.41 566.362-1.41 1.41 3.59 3.59-3.59 3.59 1.41 1.41 3.59-3.59 3.59 3.59 1.41-1.41-3.59-3.59 3.59-3.59-1.41-1.41-3.59 3.59z" style="opacity:1;fill:#2c2c2c;fill-opacity:1" transform="matrix(1.5 0 0 1.5 -106.5 -828.543)"/></svg>