/* XPM */
static char *bottom_left_active[] = {
/* columns rows colors chars-per-pixel */
"15 15 3 1 ",
"  c None",
". c #DFDFDF",
"X c gray88 s active_color_1",
/* pixels */
"XXX            ",
"XXX            ",
"XXX            ",
"XXX            ",
"XXX            ",
"XXX            ",
"XXX            ",
"XXX            ",
"XXX            ",
"XXX            ",
"XXX            ",
"XXX            ",
"XXXXXXXXXXXXXXX",
".XXXXXXXXXXXXXX",
" .XXXXXXXXXXXXX"
};
