/* XPM */
static char *button[] = {
/* columns rows colors chars-per-pixel */
"51 54 2 1 ",
"  c None",
". c #2C2C2C s active_color_2",
/* pixels */
"                                                   ",
"                                                   ",
"                                                   ",
"                                                   ",
"                                                   ",
"                                                   ",
"                                                   ",
"                     .........                     ",
"                     .........                     ",
"                  ...............                  ",
"               .....................               ",
"               .....................               ",
"            ...........................            ",
"           .............................           ",
"          ...............................          ",
"         .................................         ",
"         .................................         ",
"         .................................         ",
"        ...................................        ",
"        ...................................        ",
"        ...................................        ",
"      .......................................      ",
"      .......................................      ",
"      .......................................      ",
"     .........................................     ",
"     .........................................     ",
"     .........................................     ",
"     .........................................     ",
"     .........................................     ",
"     .........................................     ",
"     .........................................     ",
"     .........................................     ",
"     .........................................     ",
"      .......................................      ",
"      .......................................      ",
"      .......................................      ",
"        ...................................        ",
"        ...................................        ",
"        ...................................        ",
"         .................................         ",
"         .................................         ",
"         .................................         ",
"          ...............................          ",
"           .............................           ",
"            ...........................            ",
"               .....................               ",
"               .....................               ",
"                  ...............                  ",
"                     .........                     ",
"                     .........                     ",
"                                                   ",
"                                                   ",
"                                                   ",
"                                                   "
};
