/* XPM */
static char *top_right_active[] = {
/* columns rows colors chars-per-pixel */
"12 54 5 1 ",
"  c None",
". c #2C2C2C s active_color_2",
"X c gray64",
"o c #DFDFDF",
"O c gray88 s active_color_1",
/* pixels */
"OOOOo       ",
"OOOOOoo     ",
"OOOOOOOo    ",
"...OOOOOO   ",
"...XXXOOOo  ",
"......OOOOo ",
".......XOOo ",
".......XOOOo",
".......XOOOO",
".........OOO",
".........OOO",
".........OOO",
".........OOO",
".........OOO",
".........OOO",
".........OOO",
".........OOO",
".........OOO",
".........OOO",
".........OOO",
".........OOO",
".........OOO",
".........OOO",
".........OOO",
".........OOO",
".........OOO",
".........OOO",
".........OOO",
".........OOO",
".........OOO",
".........OOO",
".........OOO",
".........OOO",
".........OOO",
".........OOO",
".........OOO",
".........OOO",
".........OOO",
".........OOO",
".........OOO",
".........OOO",
".........OOO",
".........OOO",
".........OOO",
".........OOO",
".........OOO",
".........OOO",
".........OOO",
".........OOO",
".........OOO",
".........OOO",
".........OOO",
".........OOO",
".........OOO"
};
