<svg xmlns="http://www.w3.org/2000/svg" width="51" height="54"><path d="M255 587.362h34v36h-34z" style="fill:none" transform="matrix(1.5 0 0 1.5 -382.5 -881.042)"/><path d="M272 618.362c6.627 0 12-5.372 12-12 0-6.627-5.373-12-12-12s-12 5.373-12 12c0 6.628 5.373 12 12 12" style="opacity:.15;fill:#000;fill-opacity:1;fill-rule:evenodd;stroke:none;stroke-width:1.71429" transform="matrix(1.5 0 0 1.5 -382.5 -881.042)"/><path d="m266 608.362 1.41 1.41 4.59-4.59 4.59 4.59 1.41-1.41-6-6z" style="opacity:.65;fill:#000" transform="matrix(1.5 0 0 1.5 -382.5 -881.042)"/></svg>