<?xml version="1.0" encoding="UTF-8" standalone="no"?>
<svg
   width="200"
   height="150"
   version="1.1"
   viewBox="0 0 52.917 39.688"
   id="svg202"
   sodipodi:docname="thumbnail.svg"
   inkscape:version="1.3.2 (091e20ef0f, 2023-11-25)"
   xmlns:inkscape="http://www.inkscape.org/namespaces/inkscape"
   xmlns:sodipodi="http://sodipodi.sourceforge.net/DTD/sodipodi-0.dtd"
   xmlns="http://www.w3.org/2000/svg"
   xmlns:svg="http://www.w3.org/2000/svg">
  <defs
     id="defs206" />
  <sodipodi:namedview
     id="namedview204"
     pagecolor="#ffffff"
     bordercolor="#666666"
     borderopacity="1.0"
     inkscape:pageshadow="2"
     inkscape:pageopacity="0.0"
     inkscape:pagecheckerboard="0"
     showgrid="false"
     inkscape:zoom="1.1933333"
     inkscape:cx="647.76538"
     inkscape:cy="91.340785"
     inkscape:window-width="1920"
     inkscape:window-height="1016"
     inkscape:window-x="0"
     inkscape:window-y="28"
     inkscape:window-maximized="1"
     inkscape:current-layer="svg202"
     inkscape:showpageshadow="2"
     inkscape:deskcolor="#d1d1d1" />
  <g
     id="thumbnail-blue"
     transform="translate(133.36,-257.31)">
    <rect
       x="12.171"
       y="265.25"
       width="31.75"
       height="9.5249996"
       rx="0"
       ry="0"
       fill="#f2f2f2"
       stroke-width="0"
       id="rect2" />
    <rect
       x="13.758"
       y="267.10001"
       width="15.875"
       height="5.8207998"
       rx="1.5875"
       ry="1.5875"
       fill="#000000"
       opacity="0.08"
       id="rect4" />
    <path
       d="m 16.33,268.76 v 2.4562 h 0.90227 c 0.28159,0 0.49855,-0.0598 0.65112,-0.17932 0.15257,-0.11955 0.22893,-0.28912 0.22893,-0.50849 0,-0.16673 -0.04693,-0.30521 -0.14004,-0.416 -0.09199,-0.11185 -0.22145,-0.18553 -0.38861,-0.22066 0.13911,-0.0219 0.24446,-0.0776 0.31626,-0.16639 0.0718,-0.0889 0.108,-0.20837 0.108,-0.35864 0,-0.19415 -0.07009,-0.34376 -0.21032,-0.44907 -0.14023,-0.10529 -0.33978,-0.15761 -0.59893,-0.15761 z m 4.3837,0.0904 v 0.52297 h -0.22686 v 0.23513 h 0.22686 v 1.0004 c 0,0.23035 0.04556,0.38923 0.13643,0.47698 0.09087,0.0866 0.25559,0.13022 0.49454,0.13022 H 21.663 v -0.25321 h -0.31833 c -0.12902,0 -0.21472,-0.0213 -0.25735,-0.0641 -0.04151,-0.0428 -0.06201,-0.13963 -0.06201,-0.28991 v -1.0004 H 21.663 v -0.23513 h -0.63769 v -0.52297 z m 1.7033,0 v 0.52297 h -0.22738 v 0.23513 H 22.417 v 1.0004 c 0,0.23035 0.04504,0.38923 0.13591,0.47698 0.09087,0.0866 0.2561,0.13022 0.49506,0.13022 h 0.31781 v -0.25321 h -0.31781 c -0.12901,0 -0.21472,-0.0213 -0.25735,-0.0641 -0.04151,-0.0428 -0.06253,-0.13963 -0.06253,-0.28991 v -1.0004 h 0.63769 v -0.23513 h -0.63769 v -0.52297 z m -5.7469,0.18242 h 0.50333 c 0.16604,0 0.28923,0.0306 0.37,0.092 0.0819,0.0614 0.12299,0.15407 0.12299,0.27802 0,0.12504 -0.04109,0.21866 -0.12299,0.28008 -0.08077,0.0603 -0.20397,0.0904 -0.37,0.0904 H 16.6701 Z m 8.185,0.29611 c -0.27037,0 -0.48244,0.0857 -0.63614,0.25683 -0.15257,0.17111 -0.22893,0.40781 -0.22893,0.71055 0,0.30164 0.07635,0.53886 0.22893,0.71107 0.1537,0.17111 0.36577,0.25631 0.63614,0.25631 0.26925,0 0.48089,-0.0852 0.63459,-0.25631 0.1537,-0.17221 0.23048,-0.40943 0.23048,-0.71107 0,-0.30274 -0.07678,-0.53944 -0.23048,-0.71055 -0.1537,-0.17111 -0.36534,-0.25683 -0.63459,-0.25683 z m 2.1239,0 c -0.13126,0 -0.24733,0.0273 -0.3483,0.0822 -0.09984,0.0548 -0.18692,0.13778 -0.26096,0.24857 v -0.28629 h -0.31109 v 1.8428 h 0.31109 v -1.0413 c 0,-0.17988 0.04821,-0.32212 0.14469,-0.42633 0.09648,-0.1042 0.22817,-0.15606 0.39532,-0.15606 0.13911,0 0.2436,0.043 0.31316,0.12971 0.06955,0.0867 0.10439,0.2173 0.10439,0.3917 v 1.1023 h 0.30954 v -1.1121 c 0,-0.25447 -0.05533,-0.44721 -0.1664,-0.57774 -0.11106,-0.13162 -0.27492,-0.1974 -0.49144,-0.1974 z m -8.2775,0.0444 v 1.1157 c 0,0.25338 0.05576,0.44561 0.16795,0.57723 0.11219,0.13162 0.27647,0.1974 0.49299,0.1974 0.13126,0 0.24648,-0.0269 0.3452,-0.0806 0.09985,-0.0548 0.18735,-0.13824 0.26252,-0.25012 v 0.28319 h 0.30954 v -1.8428 h -0.30954 v 1.0449 c 0,0.17988 -0.04864,0.32161 -0.14624,0.42581 -0.09648,0.10421 -0.22868,0.15658 -0.39584,0.15658 -0.13911,0 -0.24309,-0.0436 -0.31264,-0.13022 -0.06956,-0.0878 -0.10439,-0.21886 -0.10439,-0.39326 v -1.1038 z m 6.1536,0.21239 c 0.16491,0 0.29574,0.0639 0.39222,0.19224 0.09648,0.12724 0.14469,0.30004 0.14469,0.51831 0,0.21938 -0.04821,0.39263 -0.14469,0.51987 -0.09648,0.12723 -0.22731,0.1912 -0.39222,0.1912 -0.16716,0 -0.29884,-0.063 -0.39532,-0.18914 -0.09536,-0.12723 -0.14314,-0.30146 -0.14314,-0.52193 0,-0.22047 0.04821,-0.39372 0.14469,-0.51986 0.09648,-0.12725 0.22774,-0.19069 0.39377,-0.19069 z m -8.185,0.45734 h 0.54519 c 0.18286,0 0.31815,0.0366 0.40566,0.11007 0.08863,0.0724 0.13281,0.18543 0.13281,0.33899 0,0.15247 -0.04418,0.26597 -0.13281,0.34055 -0.08751,0.0735 -0.2228,0.11007 -0.40566,0.11007 H 16.6701 Z"
       fill="#000000"
       opacity="0.65"
       id="path6" />
    <path
       d="m 33.602,267.37 c -1.4605,0 -2.6458,1.1853 -2.6458,2.6458 0,1.4605 1.1853,2.6458 2.6458,2.6458 1.4605,0 2.6458,-1.1853 2.6458,-2.6458 0,-1.4605 -1.1853,-2.6458 -2.6458,-2.6458 z m 1.479,1.2118 0.37312,0.37569 -2.3812,2.3812 -1.3229,-1.3229 0.37312,-0.37312 0.9498,0.94724 z"
       fill="#1a73e8"
       stroke-width="0.26458"
       id="path8" />
    <path
       d="m 39.952,267.37 c -1.4605,0 -2.6458,1.1853 -2.6458,2.6458 0,1.4605 1.1853,2.6458 2.6458,2.6458 1.4605,0 2.6458,-1.1853 2.6458,-2.6458 0,-1.4605 -1.1853,-2.6458 -2.6458,-2.6458 z m 0,1.8521 c 0.43815,0 0.79375,0.3556 0.79375,0.79375 0,0.43815 -0.3556,0.79375 -0.79375,0.79375 -0.43815,0 -0.79375,-0.3556 -0.79375,-0.79375 0,-0.43815 0.3556,-0.79375 0.79375,-0.79375 z"
       fill="#1a73e8"
       stroke-width="0.26458"
       id="path10" />
  </g>
  <g
     id="thumbnail-blue-Dark"
     transform="translate(133.36,-257.31)">
    <rect
       x="12.171"
       y="279.54001"
       width="31.75"
       height="9.5249996"
       rx="0"
       ry="0"
       fill="#2c2c2c"
       stroke-width="0"
       id="rect13" />
    <rect
       x="13.758"
       y="281.39001"
       width="15.875"
       height="5.8207998"
       rx="1.5875"
       ry="1.5875"
       fill="#ffffff"
       opacity="0.1"
       id="rect15" />
    <path
       d="m 16.33,283.05 v 2.4562 h 0.90227 c 0.28159,0 0.49855,-0.0598 0.65112,-0.17932 0.15257,-0.11955 0.22893,-0.28912 0.22893,-0.50849 0,-0.16673 -0.04693,-0.30521 -0.14004,-0.416 -0.09199,-0.11185 -0.22145,-0.18553 -0.38861,-0.22066 0.13911,-0.0219 0.24446,-0.0775 0.31626,-0.16639 0.0718,-0.0889 0.108,-0.20837 0.108,-0.35864 0,-0.19415 -0.07009,-0.34376 -0.21032,-0.44907 -0.14023,-0.10529 -0.33978,-0.15761 -0.59893,-0.15761 z m 4.3837,0.0904 v 0.52297 h -0.22686 v 0.23513 h 0.22686 v 1.0004 c 0,0.23035 0.04556,0.38923 0.13643,0.47698 0.09087,0.0866 0.25559,0.13022 0.49454,0.13022 H 21.663 v -0.25321 h -0.31833 c -0.12902,0 -0.21472,-0.0213 -0.25735,-0.0641 -0.04151,-0.0428 -0.06201,-0.13963 -0.06201,-0.28991 v -1.0004 H 21.663 v -0.23513 h -0.63769 v -0.52297 z m 1.7033,0 v 0.52297 h -0.22738 v 0.23513 H 22.417 v 1.0004 c 0,0.23035 0.04504,0.38923 0.13591,0.47698 0.09087,0.0866 0.2561,0.13022 0.49506,0.13022 h 0.31781 v -0.25321 h -0.31781 c -0.12901,0 -0.21472,-0.0213 -0.25735,-0.0641 -0.04151,-0.0428 -0.06253,-0.13963 -0.06253,-0.28991 v -1.0004 h 0.63769 v -0.23513 h -0.63769 v -0.52297 z m -5.7469,0.18242 h 0.50333 c 0.16604,0 0.28923,0.0306 0.37,0.092 0.0819,0.0614 0.12299,0.15407 0.12299,0.27802 0,0.12504 -0.04109,0.21866 -0.12299,0.28008 -0.08077,0.0603 -0.20397,0.0904 -0.37,0.0904 H 16.6701 Z m 8.185,0.29611 c -0.27037,0 -0.48244,0.0857 -0.63614,0.25683 -0.15257,0.17111 -0.22893,0.40781 -0.22893,0.71055 0,0.30164 0.07635,0.53886 0.22893,0.71107 0.1537,0.17111 0.36577,0.25631 0.63614,0.25631 0.26925,0 0.48089,-0.0852 0.63459,-0.25631 0.1537,-0.17221 0.23048,-0.40943 0.23048,-0.71107 0,-0.30274 -0.07678,-0.53944 -0.23048,-0.71055 -0.1537,-0.17111 -0.36534,-0.25683 -0.63459,-0.25683 z m 2.1239,0 c -0.13126,0 -0.24733,0.0273 -0.3483,0.0822 -0.09984,0.0548 -0.18692,0.13778 -0.26096,0.24857 v -0.28629 h -0.31109 v 1.8428 h 0.31109 v -1.0413 c 0,-0.17988 0.04821,-0.32212 0.14469,-0.42633 0.09648,-0.1042 0.22817,-0.15606 0.39532,-0.15606 0.13911,0 0.2436,0.043 0.31316,0.12971 0.06955,0.0867 0.10439,0.2173 0.10439,0.3917 v 1.1023 h 0.30954 v -1.1121 c 0,-0.25447 -0.05533,-0.44721 -0.1664,-0.57774 -0.11106,-0.13162 -0.27492,-0.1974 -0.49144,-0.1974 z m -8.2775,0.0444 v 1.1157 c 0,0.25338 0.05576,0.44561 0.16795,0.57723 0.11219,0.13162 0.27647,0.1974 0.49299,0.1974 0.13126,0 0.24648,-0.0269 0.3452,-0.0806 0.09985,-0.0548 0.18735,-0.13824 0.26252,-0.25012 v 0.28319 h 0.30954 v -1.8428 h -0.30954 v 1.0449 c 0,0.17988 -0.04864,0.32161 -0.14624,0.42581 -0.09648,0.10421 -0.22868,0.15658 -0.39584,0.15658 -0.13911,0 -0.24309,-0.0436 -0.31264,-0.13022 -0.06956,-0.0878 -0.10439,-0.21886 -0.10439,-0.39326 v -1.1038 z m 6.1536,0.21239 c 0.16491,0 0.29574,0.0639 0.39222,0.19224 0.09648,0.12724 0.14469,0.30004 0.14469,0.51831 0,0.21938 -0.04821,0.39263 -0.14469,0.51987 -0.09648,0.12723 -0.22731,0.1912 -0.39222,0.1912 -0.16716,0 -0.29884,-0.063 -0.39532,-0.18914 -0.09536,-0.12723 -0.14314,-0.30146 -0.14314,-0.52193 0,-0.22047 0.04821,-0.39372 0.14469,-0.51986 0.09648,-0.12725 0.22774,-0.19069 0.39377,-0.19069 z m -8.185,0.45734 h 0.54519 c 0.18286,0 0.31815,0.0366 0.40566,0.11007 0.08863,0.0724 0.13281,0.18543 0.13281,0.33899 0,0.15247 -0.04418,0.26597 -0.13281,0.34055 -0.08751,0.0735 -0.2228,0.11007 -0.40566,0.11007 H 16.6701 Z"
       fill="#ffffff"
       opacity="0.65"
       id="path17" />
    <path
       d="m 33.602,281.65 c -1.4605,0 -2.6458,1.1853 -2.6458,2.6458 0,1.4605 1.1853,2.6458 2.6458,2.6458 1.4605,0 2.6458,-1.1853 2.6458,-2.6458 0,-1.4605 -1.1853,-2.6458 -2.6458,-2.6458 z m 1.479,1.2118 0.37312,0.37569 -2.3812,2.3812 -1.3229,-1.3229 0.37312,-0.37312 0.9498,0.94724 z"
       fill="#1a73e8"
       stroke-width="0.26458"
       id="path19" />
    <path
       d="m 39.952,281.65 c -1.4605,0 -2.6458,1.1853 -2.6458,2.6458 0,1.4605 1.1853,2.6458 2.6458,2.6458 1.4605,0 2.6458,-1.1853 2.6458,-2.6458 0,-1.4605 -1.1853,-2.6458 -2.6458,-2.6458 z m 0,1.8521 c 0.43815,0 0.79375,0.3556 0.79375,0.79375 0,0.43815 -0.3556,0.79375 -0.79375,0.79375 -0.43815,0 -0.79375,-0.3556 -0.79375,-0.79375 0,-0.43815 0.3556,-0.79375 0.79375,-0.79375 z"
       fill="#1a73e8"
       stroke-width="0.26458"
       id="path21" />
  </g>
  <g
     id="thumbnail-green"
     transform="translate(47.36,-257.31)">
    <rect
       x="12.171"
       y="265.25"
       width="31.75"
       height="9.5249996"
       rx="0"
       ry="0"
       fill="#f2f2f2"
       stroke-width="0"
       id="rect24" />
    <rect
       x="13.758"
       y="267.10001"
       width="15.875"
       height="5.8207998"
       rx="1.5875"
       ry="1.5875"
       fill="#000000"
       opacity="0.08"
       id="rect26" />
    <path
       d="m 16.33,268.76 v 2.4562 h 0.90227 c 0.28159,0 0.49855,-0.0598 0.65112,-0.17932 0.15257,-0.11955 0.22893,-0.28912 0.22893,-0.50849 0,-0.16673 -0.04693,-0.30521 -0.14004,-0.416 -0.09199,-0.11185 -0.22145,-0.18553 -0.38861,-0.22066 0.13911,-0.0219 0.24446,-0.0776 0.31626,-0.16639 0.0718,-0.0889 0.108,-0.20837 0.108,-0.35864 0,-0.19415 -0.07009,-0.34376 -0.21032,-0.44907 -0.14023,-0.10529 -0.33978,-0.15761 -0.59893,-0.15761 z m 4.3837,0.0904 v 0.52297 h -0.22686 v 0.23513 h 0.22686 v 1.0004 c 0,0.23035 0.04556,0.38923 0.13643,0.47698 0.09087,0.0866 0.25559,0.13022 0.49454,0.13022 H 21.663 v -0.25321 h -0.31833 c -0.12902,0 -0.21472,-0.0213 -0.25735,-0.0641 -0.04151,-0.0428 -0.06201,-0.13963 -0.06201,-0.28991 v -1.0004 H 21.663 v -0.23513 h -0.63769 v -0.52297 z m 1.7033,0 v 0.52297 h -0.22738 v 0.23513 H 22.417 v 1.0004 c 0,0.23035 0.04504,0.38923 0.13591,0.47698 0.09087,0.0866 0.2561,0.13022 0.49506,0.13022 h 0.31781 v -0.25321 h -0.31781 c -0.12901,0 -0.21472,-0.0213 -0.25735,-0.0641 -0.04151,-0.0428 -0.06253,-0.13963 -0.06253,-0.28991 v -1.0004 h 0.63769 v -0.23513 h -0.63769 v -0.52297 z m -5.7469,0.18242 h 0.50333 c 0.16604,0 0.28923,0.0306 0.37,0.092 0.0819,0.0614 0.12299,0.15407 0.12299,0.27802 0,0.12504 -0.04109,0.21866 -0.12299,0.28008 -0.08077,0.0603 -0.20397,0.0904 -0.37,0.0904 H 16.6701 Z m 8.185,0.29611 c -0.27037,0 -0.48244,0.0857 -0.63614,0.25683 -0.15257,0.17111 -0.22893,0.40781 -0.22893,0.71055 0,0.30164 0.07635,0.53886 0.22893,0.71107 0.1537,0.17111 0.36577,0.25631 0.63614,0.25631 0.26925,0 0.48089,-0.0852 0.63459,-0.25631 0.1537,-0.17221 0.23048,-0.40943 0.23048,-0.71107 0,-0.30274 -0.07678,-0.53944 -0.23048,-0.71055 -0.1537,-0.17111 -0.36534,-0.25683 -0.63459,-0.25683 z m 2.1239,0 c -0.13126,0 -0.24733,0.0273 -0.3483,0.0822 -0.09984,0.0548 -0.18692,0.13778 -0.26096,0.24857 v -0.28629 h -0.31109 v 1.8428 h 0.31109 v -1.0413 c 0,-0.17988 0.04821,-0.32212 0.14469,-0.42633 0.09648,-0.1042 0.22817,-0.15606 0.39532,-0.15606 0.13911,0 0.2436,0.043 0.31316,0.12971 0.06955,0.0867 0.10439,0.2173 0.10439,0.3917 v 1.1023 h 0.30954 v -1.1121 c 0,-0.25447 -0.05533,-0.44721 -0.1664,-0.57774 -0.11106,-0.13162 -0.27492,-0.1974 -0.49144,-0.1974 z m -8.2775,0.0444 v 1.1157 c 0,0.25338 0.05576,0.44561 0.16795,0.57723 0.11219,0.13162 0.27647,0.1974 0.49299,0.1974 0.13126,0 0.24648,-0.0269 0.3452,-0.0806 0.09985,-0.0548 0.18735,-0.13824 0.26252,-0.25012 v 0.28319 h 0.30954 v -1.8428 h -0.30954 v 1.0449 c 0,0.17988 -0.04864,0.32161 -0.14624,0.42581 -0.09648,0.10421 -0.22868,0.15658 -0.39584,0.15658 -0.13911,0 -0.24309,-0.0436 -0.31264,-0.13022 -0.06956,-0.0878 -0.10439,-0.21886 -0.10439,-0.39326 v -1.1038 z m 6.1536,0.21239 c 0.16491,0 0.29574,0.0639 0.39222,0.19224 0.09648,0.12724 0.14469,0.30004 0.14469,0.51831 0,0.21938 -0.04821,0.39263 -0.14469,0.51987 -0.09648,0.12723 -0.22731,0.1912 -0.39222,0.1912 -0.16716,0 -0.29884,-0.063 -0.39532,-0.18914 -0.09536,-0.12723 -0.14314,-0.30146 -0.14314,-0.52193 0,-0.22047 0.04821,-0.39372 0.14469,-0.51986 0.09648,-0.12725 0.22774,-0.19069 0.39377,-0.19069 z m -8.185,0.45734 h 0.54519 c 0.18286,0 0.31815,0.0366 0.40566,0.11007 0.08863,0.0724 0.13281,0.18543 0.13281,0.33899 0,0.15247 -0.04418,0.26597 -0.13281,0.34055 -0.08751,0.0735 -0.2228,0.11007 -0.40566,0.11007 H 16.6701 Z"
       fill="#000000"
       opacity="0.65"
       id="path28" />
    <path
       d="m 33.602,267.37 c -1.4605,0 -2.6458,1.1853 -2.6458,2.6458 0,1.4605 1.1853,2.6458 2.6458,2.6458 1.4605,0 2.6458,-1.1853 2.6458,-2.6458 0,-1.4605 -1.1853,-2.6458 -2.6458,-2.6458 z m 1.479,1.2118 0.37312,0.37569 -2.3812,2.3812 -1.3229,-1.3229 0.37312,-0.37312 0.9498,0.94724 z"
       fill="#4caf50"
       stroke-width="0.26458"
       id="path30" />
    <path
       d="m 39.952,267.37 c -1.4605,0 -2.6458,1.1853 -2.6458,2.6458 0,1.4605 1.1853,2.6458 2.6458,2.6458 1.4605,0 2.6458,-1.1853 2.6458,-2.6458 0,-1.4605 -1.1853,-2.6458 -2.6458,-2.6458 z m 0,1.8521 c 0.43815,0 0.79375,0.3556 0.79375,0.79375 0,0.43815 -0.3556,0.79375 -0.79375,0.79375 -0.43815,0 -0.79375,-0.3556 -0.79375,-0.79375 0,-0.43815 0.3556,-0.79375 0.79375,-0.79375 z"
       fill="#4caf50"
       stroke-width="0.26458"
       id="path32" />
  </g>
  <g
     id="thumbnail-green-Dark"
     transform="translate(47.36,-257.31)">
    <rect
       x="12.171"
       y="279.54001"
       width="31.75"
       height="9.5249996"
       rx="0"
       ry="0"
       fill="#2c2c2c"
       stroke-width="0"
       id="rect35" />
    <rect
       x="13.758"
       y="281.39001"
       width="15.875"
       height="5.8207998"
       rx="1.5875"
       ry="1.5875"
       fill="#ffffff"
       opacity="0.1"
       id="rect37" />
    <path
       d="m 16.33,283.05 v 2.4562 h 0.90227 c 0.28159,0 0.49855,-0.0598 0.65112,-0.17932 0.15257,-0.11955 0.22893,-0.28912 0.22893,-0.50849 0,-0.16673 -0.04693,-0.30521 -0.14004,-0.416 -0.09199,-0.11185 -0.22145,-0.18553 -0.38861,-0.22066 0.13911,-0.0219 0.24446,-0.0775 0.31626,-0.16639 0.0718,-0.0889 0.108,-0.20837 0.108,-0.35864 0,-0.19415 -0.07009,-0.34376 -0.21032,-0.44907 -0.14023,-0.10529 -0.33978,-0.15761 -0.59893,-0.15761 z m 4.3837,0.0904 v 0.52297 h -0.22686 v 0.23513 h 0.22686 v 1.0004 c 0,0.23035 0.04556,0.38923 0.13643,0.47698 0.09087,0.0866 0.25559,0.13022 0.49454,0.13022 H 21.663 v -0.25321 h -0.31833 c -0.12902,0 -0.21472,-0.0213 -0.25735,-0.0641 -0.04151,-0.0428 -0.06201,-0.13963 -0.06201,-0.28991 v -1.0004 H 21.663 v -0.23513 h -0.63769 v -0.52297 z m 1.7033,0 v 0.52297 h -0.22738 v 0.23513 H 22.417 v 1.0004 c 0,0.23035 0.04504,0.38923 0.13591,0.47698 0.09087,0.0866 0.2561,0.13022 0.49506,0.13022 h 0.31781 v -0.25321 h -0.31781 c -0.12901,0 -0.21472,-0.0213 -0.25735,-0.0641 -0.04151,-0.0428 -0.06253,-0.13963 -0.06253,-0.28991 v -1.0004 h 0.63769 v -0.23513 h -0.63769 v -0.52297 z m -5.7469,0.18242 h 0.50333 c 0.16604,0 0.28923,0.0306 0.37,0.092 0.0819,0.0614 0.12299,0.15407 0.12299,0.27802 0,0.12504 -0.04109,0.21866 -0.12299,0.28008 -0.08077,0.0603 -0.20397,0.0904 -0.37,0.0904 H 16.6701 Z m 8.185,0.29611 c -0.27037,0 -0.48244,0.0857 -0.63614,0.25683 -0.15257,0.17111 -0.22893,0.40781 -0.22893,0.71055 0,0.30164 0.07635,0.53886 0.22893,0.71107 0.1537,0.17111 0.36577,0.25631 0.63614,0.25631 0.26925,0 0.48089,-0.0852 0.63459,-0.25631 0.1537,-0.17221 0.23048,-0.40943 0.23048,-0.71107 0,-0.30274 -0.07678,-0.53944 -0.23048,-0.71055 -0.1537,-0.17111 -0.36534,-0.25683 -0.63459,-0.25683 z m 2.1239,0 c -0.13126,0 -0.24733,0.0273 -0.3483,0.0822 -0.09984,0.0548 -0.18692,0.13778 -0.26096,0.24857 v -0.28629 h -0.31109 v 1.8428 h 0.31109 v -1.0413 c 0,-0.17988 0.04821,-0.32212 0.14469,-0.42633 0.09648,-0.1042 0.22817,-0.15606 0.39532,-0.15606 0.13911,0 0.2436,0.043 0.31316,0.12971 0.06955,0.0867 0.10439,0.2173 0.10439,0.3917 v 1.1023 h 0.30954 v -1.1121 c 0,-0.25447 -0.05533,-0.44721 -0.1664,-0.57774 -0.11106,-0.13162 -0.27492,-0.1974 -0.49144,-0.1974 z m -8.2775,0.0444 v 1.1157 c 0,0.25338 0.05576,0.44561 0.16795,0.57723 0.11219,0.13162 0.27647,0.1974 0.49299,0.1974 0.13126,0 0.24648,-0.0269 0.3452,-0.0806 0.09985,-0.0548 0.18735,-0.13824 0.26252,-0.25012 v 0.28319 h 0.30954 v -1.8428 h -0.30954 v 1.0449 c 0,0.17988 -0.04864,0.32161 -0.14624,0.42581 -0.09648,0.10421 -0.22868,0.15658 -0.39584,0.15658 -0.13911,0 -0.24309,-0.0436 -0.31264,-0.13022 -0.06956,-0.0878 -0.10439,-0.21886 -0.10439,-0.39326 v -1.1038 z m 6.1536,0.21239 c 0.16491,0 0.29574,0.0639 0.39222,0.19224 0.09648,0.12724 0.14469,0.30004 0.14469,0.51831 0,0.21938 -0.04821,0.39263 -0.14469,0.51987 -0.09648,0.12723 -0.22731,0.1912 -0.39222,0.1912 -0.16716,0 -0.29884,-0.063 -0.39532,-0.18914 -0.09536,-0.12723 -0.14314,-0.30146 -0.14314,-0.52193 0,-0.22047 0.04821,-0.39372 0.14469,-0.51986 0.09648,-0.12725 0.22774,-0.19069 0.39377,-0.19069 z m -8.185,0.45734 h 0.54519 c 0.18286,0 0.31815,0.0366 0.40566,0.11007 0.08863,0.0724 0.13281,0.18543 0.13281,0.33899 0,0.15247 -0.04418,0.26597 -0.13281,0.34055 -0.08751,0.0735 -0.2228,0.11007 -0.40566,0.11007 H 16.6701 Z"
       fill="#ffffff"
       opacity="0.65"
       id="path39" />
    <path
       d="m 33.602,281.65 c -1.4605,0 -2.6458,1.1853 -2.6458,2.6458 0,1.4605 1.1853,2.6458 2.6458,2.6458 1.4605,0 2.6458,-1.1853 2.6458,-2.6458 0,-1.4605 -1.1853,-2.6458 -2.6458,-2.6458 z m 1.479,1.2118 0.37312,0.37569 -2.3812,2.3812 -1.3229,-1.3229 0.37312,-0.37312 0.9498,0.94724 z"
       fill="#4caf50"
       stroke-width="0.26458"
       id="path41" />
    <path
       d="m 39.952,281.65 c -1.4605,0 -2.6458,1.1853 -2.6458,2.6458 0,1.4605 1.1853,2.6458 2.6458,2.6458 1.4605,0 2.6458,-1.1853 2.6458,-2.6458 0,-1.4605 -1.1853,-2.6458 -2.6458,-2.6458 z m 0,1.8521 c 0.43815,0 0.79375,0.3556 0.79375,0.79375 0,0.43815 -0.3556,0.79375 -0.79375,0.79375 -0.43815,0 -0.79375,-0.3556 -0.79375,-0.79375 0,-0.43815 0.3556,-0.79375 0.79375,-0.79375 z"
       fill="#4caf50"
       stroke-width="0.26458"
       id="path43" />
  </g>
  <g
     id="thumbnail-yellow"
     transform="translate(89.694,-257.31)">
    <rect
       x="12.171"
       y="265.25"
       width="31.75"
       height="9.5249996"
       rx="0"
       ry="0"
       fill="#f2f2f2"
       stroke-width="0"
       id="rect46" />
    <rect
       x="13.758"
       y="267.10001"
       width="15.875"
       height="5.8207998"
       rx="1.5875"
       ry="1.5875"
       fill="#000000"
       opacity="0.08"
       id="rect48" />
    <path
       d="m 16.33,268.76 v 2.4562 h 0.90227 c 0.28159,0 0.49855,-0.0598 0.65112,-0.17932 0.15257,-0.11955 0.22893,-0.28912 0.22893,-0.50849 0,-0.16673 -0.04693,-0.30521 -0.14004,-0.416 -0.09199,-0.11185 -0.22145,-0.18553 -0.38861,-0.22066 0.13911,-0.0219 0.24446,-0.0776 0.31626,-0.16639 0.0718,-0.0889 0.108,-0.20837 0.108,-0.35864 0,-0.19415 -0.07009,-0.34376 -0.21032,-0.44907 -0.14023,-0.10529 -0.33978,-0.15761 -0.59893,-0.15761 z m 4.3837,0.0904 v 0.52297 h -0.22686 v 0.23513 h 0.22686 v 1.0004 c 0,0.23035 0.04556,0.38923 0.13643,0.47698 0.09087,0.0866 0.25559,0.13022 0.49454,0.13022 H 21.663 v -0.25321 h -0.31833 c -0.12902,0 -0.21472,-0.0213 -0.25735,-0.0641 -0.04151,-0.0428 -0.06201,-0.13963 -0.06201,-0.28991 v -1.0004 H 21.663 v -0.23513 h -0.63769 v -0.52297 z m 1.7033,0 v 0.52297 h -0.22738 v 0.23513 H 22.417 v 1.0004 c 0,0.23035 0.04504,0.38923 0.13591,0.47698 0.09087,0.0866 0.2561,0.13022 0.49506,0.13022 h 0.31781 v -0.25321 h -0.31781 c -0.12901,0 -0.21472,-0.0213 -0.25735,-0.0641 -0.04151,-0.0428 -0.06253,-0.13963 -0.06253,-0.28991 v -1.0004 h 0.63769 v -0.23513 h -0.63769 v -0.52297 z m -5.7469,0.18242 h 0.50333 c 0.16604,0 0.28923,0.0306 0.37,0.092 0.0819,0.0614 0.12299,0.15407 0.12299,0.27802 0,0.12504 -0.04109,0.21866 -0.12299,0.28008 -0.08077,0.0603 -0.20397,0.0904 -0.37,0.0904 H 16.6701 Z m 8.185,0.29611 c -0.27037,0 -0.48244,0.0857 -0.63614,0.25683 -0.15257,0.17111 -0.22893,0.40781 -0.22893,0.71055 0,0.30164 0.07635,0.53886 0.22893,0.71107 0.1537,0.17111 0.36577,0.25631 0.63614,0.25631 0.26925,0 0.48089,-0.0852 0.63459,-0.25631 0.1537,-0.17221 0.23048,-0.40943 0.23048,-0.71107 0,-0.30274 -0.07678,-0.53944 -0.23048,-0.71055 -0.1537,-0.17111 -0.36534,-0.25683 -0.63459,-0.25683 z m 2.1239,0 c -0.13126,0 -0.24733,0.0273 -0.3483,0.0822 -0.09984,0.0548 -0.18692,0.13778 -0.26096,0.24857 v -0.28629 h -0.31109 v 1.8428 h 0.31109 v -1.0413 c 0,-0.17988 0.04821,-0.32212 0.14469,-0.42633 0.09648,-0.1042 0.22817,-0.15606 0.39532,-0.15606 0.13911,0 0.2436,0.043 0.31316,0.12971 0.06955,0.0867 0.10439,0.2173 0.10439,0.3917 v 1.1023 h 0.30954 v -1.1121 c 0,-0.25447 -0.05533,-0.44721 -0.1664,-0.57774 -0.11106,-0.13162 -0.27492,-0.1974 -0.49144,-0.1974 z m -8.2775,0.0444 v 1.1157 c 0,0.25338 0.05576,0.44561 0.16795,0.57723 0.11219,0.13162 0.27647,0.1974 0.49299,0.1974 0.13126,0 0.24648,-0.0269 0.3452,-0.0806 0.09985,-0.0548 0.18735,-0.13824 0.26252,-0.25012 v 0.28319 h 0.30954 v -1.8428 h -0.30954 v 1.0449 c 0,0.17988 -0.04864,0.32161 -0.14624,0.42581 -0.09648,0.10421 -0.22868,0.15658 -0.39584,0.15658 -0.13911,0 -0.24309,-0.0436 -0.31264,-0.13022 -0.06956,-0.0878 -0.10439,-0.21886 -0.10439,-0.39326 v -1.1038 z m 6.1536,0.21239 c 0.16491,0 0.29574,0.0639 0.39222,0.19224 0.09648,0.12724 0.14469,0.30004 0.14469,0.51831 0,0.21938 -0.04821,0.39263 -0.14469,0.51987 -0.09648,0.12723 -0.22731,0.1912 -0.39222,0.1912 -0.16716,0 -0.29884,-0.063 -0.39532,-0.18914 -0.09536,-0.12723 -0.14314,-0.30146 -0.14314,-0.52193 0,-0.22047 0.04821,-0.39372 0.14469,-0.51986 0.09648,-0.12725 0.22774,-0.19069 0.39377,-0.19069 z m -8.185,0.45734 h 0.54519 c 0.18286,0 0.31815,0.0366 0.40566,0.11007 0.08863,0.0724 0.13281,0.18543 0.13281,0.33899 0,0.15247 -0.04418,0.26597 -0.13281,0.34055 -0.08751,0.0735 -0.2228,0.11007 -0.40566,0.11007 H 16.6701 Z"
       fill="#000000"
       opacity="0.65"
       id="path50" />
    <path
       d="m 33.602,267.37 c -1.4605,0 -2.6458,1.1853 -2.6458,2.6458 0,1.4605 1.1853,2.6458 2.6458,2.6458 1.4605,0 2.6458,-1.1853 2.6458,-2.6458 0,-1.4605 -1.1853,-2.6458 -2.6458,-2.6458 z m 1.479,1.2118 0.37312,0.37569 -2.3812,2.3812 -1.3229,-1.3229 0.37312,-0.37312 0.9498,0.94724 z"
       fill="#fbc02d"
       stroke-width="0.26458"
       id="path52" />
    <path
       d="m 39.952,267.37 c -1.4605,0 -2.6458,1.1853 -2.6458,2.6458 0,1.4605 1.1853,2.6458 2.6458,2.6458 1.4605,0 2.6458,-1.1853 2.6458,-2.6458 0,-1.4605 -1.1853,-2.6458 -2.6458,-2.6458 z m 0,1.8521 c 0.43815,0 0.79375,0.3556 0.79375,0.79375 0,0.43815 -0.3556,0.79375 -0.79375,0.79375 -0.43815,0 -0.79375,-0.3556 -0.79375,-0.79375 0,-0.43815 0.3556,-0.79375 0.79375,-0.79375 z"
       fill="#fbc02d"
       stroke-width="0.26458"
       id="path54" />
  </g>
  <g
     id="thumbnail-yellow-Dark"
     transform="translate(89.694,-257.31)">
    <rect
       x="12.171"
       y="279.54001"
       width="31.75"
       height="9.5249996"
       rx="0"
       ry="0"
       fill="#2c2c2c"
       stroke-width="0"
       id="rect57" />
    <rect
       x="13.758"
       y="281.39001"
       width="15.875"
       height="5.8207998"
       rx="1.5875"
       ry="1.5875"
       fill="#ffffff"
       opacity="0.1"
       id="rect59" />
    <path
       d="m 16.33,283.05 v 2.4562 h 0.90227 c 0.28159,0 0.49855,-0.0598 0.65112,-0.17932 0.15257,-0.11955 0.22893,-0.28912 0.22893,-0.50849 0,-0.16673 -0.04693,-0.30521 -0.14004,-0.416 -0.09199,-0.11185 -0.22145,-0.18553 -0.38861,-0.22066 0.13911,-0.0219 0.24446,-0.0775 0.31626,-0.16639 0.0718,-0.0889 0.108,-0.20837 0.108,-0.35864 0,-0.19415 -0.07009,-0.34376 -0.21032,-0.44907 -0.14023,-0.10529 -0.33978,-0.15761 -0.59893,-0.15761 z m 4.3837,0.0904 v 0.52297 h -0.22686 v 0.23513 h 0.22686 v 1.0004 c 0,0.23035 0.04556,0.38923 0.13643,0.47698 0.09087,0.0866 0.25559,0.13022 0.49454,0.13022 H 21.663 v -0.25321 h -0.31833 c -0.12902,0 -0.21472,-0.0213 -0.25735,-0.0641 -0.04151,-0.0428 -0.06201,-0.13963 -0.06201,-0.28991 v -1.0004 H 21.663 v -0.23513 h -0.63769 v -0.52297 z m 1.7033,0 v 0.52297 h -0.22738 v 0.23513 H 22.417 v 1.0004 c 0,0.23035 0.04504,0.38923 0.13591,0.47698 0.09087,0.0866 0.2561,0.13022 0.49506,0.13022 h 0.31781 v -0.25321 h -0.31781 c -0.12901,0 -0.21472,-0.0213 -0.25735,-0.0641 -0.04151,-0.0428 -0.06253,-0.13963 -0.06253,-0.28991 v -1.0004 h 0.63769 v -0.23513 h -0.63769 v -0.52297 z m -5.7469,0.18242 h 0.50333 c 0.16604,0 0.28923,0.0306 0.37,0.092 0.0819,0.0614 0.12299,0.15407 0.12299,0.27802 0,0.12504 -0.04109,0.21866 -0.12299,0.28008 -0.08077,0.0603 -0.20397,0.0904 -0.37,0.0904 H 16.6701 Z m 8.185,0.29611 c -0.27037,0 -0.48244,0.0857 -0.63614,0.25683 -0.15257,0.17111 -0.22893,0.40781 -0.22893,0.71055 0,0.30164 0.07635,0.53886 0.22893,0.71107 0.1537,0.17111 0.36577,0.25631 0.63614,0.25631 0.26925,0 0.48089,-0.0852 0.63459,-0.25631 0.1537,-0.17221 0.23048,-0.40943 0.23048,-0.71107 0,-0.30274 -0.07678,-0.53944 -0.23048,-0.71055 -0.1537,-0.17111 -0.36534,-0.25683 -0.63459,-0.25683 z m 2.1239,0 c -0.13126,0 -0.24733,0.0273 -0.3483,0.0822 -0.09984,0.0548 -0.18692,0.13778 -0.26096,0.24857 v -0.28629 h -0.31109 v 1.8428 h 0.31109 v -1.0413 c 0,-0.17988 0.04821,-0.32212 0.14469,-0.42633 0.09648,-0.1042 0.22817,-0.15606 0.39532,-0.15606 0.13911,0 0.2436,0.043 0.31316,0.12971 0.06955,0.0867 0.10439,0.2173 0.10439,0.3917 v 1.1023 h 0.30954 v -1.1121 c 0,-0.25447 -0.05533,-0.44721 -0.1664,-0.57774 -0.11106,-0.13162 -0.27492,-0.1974 -0.49144,-0.1974 z m -8.2775,0.0444 v 1.1157 c 0,0.25338 0.05576,0.44561 0.16795,0.57723 0.11219,0.13162 0.27647,0.1974 0.49299,0.1974 0.13126,0 0.24648,-0.0269 0.3452,-0.0806 0.09985,-0.0548 0.18735,-0.13824 0.26252,-0.25012 v 0.28319 h 0.30954 v -1.8428 h -0.30954 v 1.0449 c 0,0.17988 -0.04864,0.32161 -0.14624,0.42581 -0.09648,0.10421 -0.22868,0.15658 -0.39584,0.15658 -0.13911,0 -0.24309,-0.0436 -0.31264,-0.13022 -0.06956,-0.0878 -0.10439,-0.21886 -0.10439,-0.39326 v -1.1038 z m 6.1536,0.21239 c 0.16491,0 0.29574,0.0639 0.39222,0.19224 0.09648,0.12724 0.14469,0.30004 0.14469,0.51831 0,0.21938 -0.04821,0.39263 -0.14469,0.51987 -0.09648,0.12723 -0.22731,0.1912 -0.39222,0.1912 -0.16716,0 -0.29884,-0.063 -0.39532,-0.18914 -0.09536,-0.12723 -0.14314,-0.30146 -0.14314,-0.52193 0,-0.22047 0.04821,-0.39372 0.14469,-0.51986 0.09648,-0.12725 0.22774,-0.19069 0.39377,-0.19069 z m -8.185,0.45734 h 0.54519 c 0.18286,0 0.31815,0.0366 0.40566,0.11007 0.08863,0.0724 0.13281,0.18543 0.13281,0.33899 0,0.15247 -0.04418,0.26597 -0.13281,0.34055 -0.08751,0.0735 -0.2228,0.11007 -0.40566,0.11007 H 16.6701 Z"
       fill="#ffffff"
       opacity="0.65"
       id="path61" />
    <path
       d="m 33.602,281.65 c -1.4605,0 -2.6458,1.1853 -2.6458,2.6458 0,1.4605 1.1853,2.6458 2.6458,2.6458 1.4605,0 2.6458,-1.1853 2.6458,-2.6458 0,-1.4605 -1.1853,-2.6458 -2.6458,-2.6458 z m 1.479,1.2118 0.37312,0.37569 -2.3812,2.3812 -1.3229,-1.3229 0.37312,-0.37312 0.9498,0.94724 z"
       fill="#fbc02d"
       stroke-width="0.26458"
       id="path63" />
    <path
       d="m 39.952,281.65 c -1.4605,0 -2.6458,1.1853 -2.6458,2.6458 0,1.4605 1.1853,2.6458 2.6458,2.6458 1.4605,0 2.6458,-1.1853 2.6458,-2.6458 0,-1.4605 -1.1853,-2.6458 -2.6458,-2.6458 z m 0,1.8521 c 0.43815,0 0.79375,0.3556 0.79375,0.79375 0,0.43815 -0.3556,0.79375 -0.79375,0.79375 -0.43815,0 -0.79375,-0.3556 -0.79375,-0.79375 0,-0.43815 0.3556,-0.79375 0.79375,-0.79375 z"
       fill="#fbc02d"
       stroke-width="0.26458"
       id="path65" />
  </g>
  <g
     id="thumbnail"
     transform="translate(-2.6471995,-257.31)"
     inkscape:export-filename="thumbnail.png"
     inkscape:export-xdpi="96"
     inkscape:export-ydpi="96">
    <rect
       x="12.171"
       y="265.25"
       width="31.75"
       height="9.5249996"
       rx="0"
       ry="0"
       fill="#f2f2f2"
       stroke-width="0"
       id="rect68" />
    <rect
       x="13.758"
       y="267.10001"
       width="15.875"
       height="5.8207998"
       rx="1.5875"
       ry="1.5875"
       fill="#000000"
       opacity="0.08"
       id="rect70" />
    <path
       d="m 16.33,268.76 v 2.4562 h 0.90227 c 0.28159,0 0.49855,-0.0598 0.65112,-0.17932 0.15257,-0.11955 0.22893,-0.28912 0.22893,-0.50849 0,-0.16673 -0.04693,-0.30521 -0.14004,-0.416 -0.09199,-0.11185 -0.22145,-0.18553 -0.38861,-0.22066 0.13911,-0.0219 0.24446,-0.0776 0.31626,-0.16639 0.0718,-0.0889 0.108,-0.20837 0.108,-0.35864 0,-0.19415 -0.07009,-0.34376 -0.21032,-0.44907 -0.14023,-0.10529 -0.33978,-0.15761 -0.59893,-0.15761 z m 4.3837,0.0904 v 0.52297 h -0.22686 v 0.23513 h 0.22686 v 1.0004 c 0,0.23035 0.04556,0.38923 0.13643,0.47698 0.09087,0.0866 0.25559,0.13022 0.49454,0.13022 H 21.663 v -0.25321 h -0.31833 c -0.12902,0 -0.21472,-0.0213 -0.25735,-0.0641 -0.04151,-0.0428 -0.06201,-0.13963 -0.06201,-0.28991 v -1.0004 H 21.663 v -0.23513 h -0.63769 v -0.52297 z m 1.7033,0 v 0.52297 h -0.22738 v 0.23513 H 22.417 v 1.0004 c 0,0.23035 0.04504,0.38923 0.13591,0.47698 0.09087,0.0866 0.2561,0.13022 0.49506,0.13022 h 0.31781 v -0.25321 h -0.31781 c -0.12901,0 -0.21472,-0.0213 -0.25735,-0.0641 -0.04151,-0.0428 -0.06253,-0.13963 -0.06253,-0.28991 v -1.0004 h 0.63769 v -0.23513 h -0.63769 v -0.52297 z m -5.7469,0.18242 h 0.50333 c 0.16604,0 0.28923,0.0306 0.37,0.092 0.0819,0.0614 0.12299,0.15407 0.12299,0.27802 0,0.12504 -0.04109,0.21866 -0.12299,0.28008 -0.08077,0.0603 -0.20397,0.0904 -0.37,0.0904 H 16.6701 Z m 8.185,0.29611 c -0.27037,0 -0.48244,0.0857 -0.63614,0.25683 -0.15257,0.17111 -0.22893,0.40781 -0.22893,0.71055 0,0.30164 0.07635,0.53886 0.22893,0.71107 0.1537,0.17111 0.36577,0.25631 0.63614,0.25631 0.26925,0 0.48089,-0.0852 0.63459,-0.25631 0.1537,-0.17221 0.23048,-0.40943 0.23048,-0.71107 0,-0.30274 -0.07678,-0.53944 -0.23048,-0.71055 -0.1537,-0.17111 -0.36534,-0.25683 -0.63459,-0.25683 z m 2.1239,0 c -0.13126,0 -0.24733,0.0273 -0.3483,0.0822 -0.09984,0.0548 -0.18692,0.13778 -0.26096,0.24857 v -0.28629 h -0.31109 v 1.8428 h 0.31109 v -1.0413 c 0,-0.17988 0.04821,-0.32212 0.14469,-0.42633 0.09648,-0.1042 0.22817,-0.15606 0.39532,-0.15606 0.13911,0 0.2436,0.043 0.31316,0.12971 0.06955,0.0867 0.10439,0.2173 0.10439,0.3917 v 1.1023 h 0.30954 v -1.1121 c 0,-0.25447 -0.05533,-0.44721 -0.1664,-0.57774 -0.11106,-0.13162 -0.27492,-0.1974 -0.49144,-0.1974 z m -8.2775,0.0444 v 1.1157 c 0,0.25338 0.05576,0.44561 0.16795,0.57723 0.11219,0.13162 0.27647,0.1974 0.49299,0.1974 0.13126,0 0.24648,-0.0269 0.3452,-0.0806 0.09985,-0.0548 0.18735,-0.13824 0.26252,-0.25012 v 0.28319 h 0.30954 v -1.8428 h -0.30954 v 1.0449 c 0,0.17988 -0.04864,0.32161 -0.14624,0.42581 -0.09648,0.10421 -0.22868,0.15658 -0.39584,0.15658 -0.13911,0 -0.24309,-0.0436 -0.31264,-0.13022 -0.06956,-0.0878 -0.10439,-0.21886 -0.10439,-0.39326 v -1.1038 z m 6.1536,0.21239 c 0.16491,0 0.29574,0.0639 0.39222,0.19224 0.09648,0.12724 0.14469,0.30004 0.14469,0.51831 0,0.21938 -0.04821,0.39263 -0.14469,0.51987 -0.09648,0.12723 -0.22731,0.1912 -0.39222,0.1912 -0.16716,0 -0.29884,-0.063 -0.39532,-0.18914 -0.09536,-0.12723 -0.14314,-0.30146 -0.14314,-0.52193 0,-0.22047 0.04821,-0.39372 0.14469,-0.51986 0.09648,-0.12725 0.22774,-0.19069 0.39377,-0.19069 z m -8.185,0.45734 h 0.54519 c 0.18286,0 0.31815,0.0366 0.40566,0.11007 0.08863,0.0724 0.13281,0.18543 0.13281,0.33899 0,0.15247 -0.04418,0.26597 -0.13281,0.34055 -0.08751,0.0735 -0.2228,0.11007 -0.40566,0.11007 H 16.6701 Z"
       fill="#000000"
       opacity="0.65"
       id="path72" />
    <path
       d="m 33.602,267.37 c -1.4605,0 -2.6458,1.1853 -2.6458,2.6458 0,1.4605 1.1853,2.6458 2.6458,2.6458 1.4605,0 2.6458,-1.1853 2.6458,-2.6458 0,-1.4605 -1.1853,-2.6458 -2.6458,-2.6458 z m 1.479,1.2118 0.37312,0.37569 -2.3812,2.3812 -1.3229,-1.3229 0.37312,-0.37312 0.9498,0.94724 z"
       fill="#616161"
       stroke-width="0.26458"
       id="path74" />
    <path
       d="m 39.952,267.37 c -1.4605,0 -2.6458,1.1853 -2.6458,2.6458 0,1.4605 1.1853,2.6458 2.6458,2.6458 1.4605,0 2.6458,-1.1853 2.6458,-2.6458 0,-1.4605 -1.1853,-2.6458 -2.6458,-2.6458 z m 0,1.8521 c 0.43815,0 0.79375,0.3556 0.79375,0.79375 0,0.43815 -0.3556,0.79375 -0.79375,0.79375 -0.43815,0 -0.79375,-0.3556 -0.79375,-0.79375 0,-0.43815 0.3556,-0.79375 0.79375,-0.79375 z"
       fill="#616161"
       stroke-width="0.26458"
       id="path76" />
  </g>
  <g
     id="thumbnail-Dark"
     transform="translate(-2.6471995,-257.31)"
     inkscape:export-filename="thumbnail-Dark.png"
     inkscape:export-xdpi="96"
     inkscape:export-ydpi="96">
    <rect
       x="12.171"
       y="279.54001"
       width="31.75"
       height="9.5249996"
       rx="0"
       ry="0"
       fill="#2c2c2c"
       stroke-width="0"
       id="rect79" />
    <rect
       x="13.758"
       y="281.39001"
       width="15.875"
       height="5.8207998"
       rx="1.5875"
       ry="1.5875"
       fill="#ffffff"
       opacity="0.1"
       id="rect81" />
    <path
       d="m 16.33,283.05 v 2.4562 h 0.90227 c 0.28159,0 0.49855,-0.0598 0.65112,-0.17932 0.15257,-0.11955 0.22893,-0.28912 0.22893,-0.50849 0,-0.16673 -0.04693,-0.30521 -0.14004,-0.416 -0.09199,-0.11185 -0.22145,-0.18553 -0.38861,-0.22066 0.13911,-0.0219 0.24446,-0.0775 0.31626,-0.16639 0.0718,-0.0889 0.108,-0.20837 0.108,-0.35864 0,-0.19415 -0.07009,-0.34376 -0.21032,-0.44907 -0.14023,-0.10529 -0.33978,-0.15761 -0.59893,-0.15761 z m 4.3837,0.0904 v 0.52297 h -0.22686 v 0.23513 h 0.22686 v 1.0004 c 0,0.23035 0.04556,0.38923 0.13643,0.47698 0.09087,0.0866 0.25559,0.13022 0.49454,0.13022 H 21.663 v -0.25321 h -0.31833 c -0.12902,0 -0.21472,-0.0213 -0.25735,-0.0641 -0.04151,-0.0428 -0.06201,-0.13963 -0.06201,-0.28991 v -1.0004 H 21.663 v -0.23513 h -0.63769 v -0.52297 z m 1.7033,0 v 0.52297 h -0.22738 v 0.23513 H 22.417 v 1.0004 c 0,0.23035 0.04504,0.38923 0.13591,0.47698 0.09087,0.0866 0.2561,0.13022 0.49506,0.13022 h 0.31781 v -0.25321 h -0.31781 c -0.12901,0 -0.21472,-0.0213 -0.25735,-0.0641 -0.04151,-0.0428 -0.06253,-0.13963 -0.06253,-0.28991 v -1.0004 h 0.63769 v -0.23513 h -0.63769 v -0.52297 z m -5.7469,0.18242 h 0.50333 c 0.16604,0 0.28923,0.0306 0.37,0.092 0.0819,0.0614 0.12299,0.15407 0.12299,0.27802 0,0.12504 -0.04109,0.21866 -0.12299,0.28008 -0.08077,0.0603 -0.20397,0.0904 -0.37,0.0904 H 16.6701 Z m 8.185,0.29611 c -0.27037,0 -0.48244,0.0857 -0.63614,0.25683 -0.15257,0.17111 -0.22893,0.40781 -0.22893,0.71055 0,0.30164 0.07635,0.53886 0.22893,0.71107 0.1537,0.17111 0.36577,0.25631 0.63614,0.25631 0.26925,0 0.48089,-0.0852 0.63459,-0.25631 0.1537,-0.17221 0.23048,-0.40943 0.23048,-0.71107 0,-0.30274 -0.07678,-0.53944 -0.23048,-0.71055 -0.1537,-0.17111 -0.36534,-0.25683 -0.63459,-0.25683 z m 2.1239,0 c -0.13126,0 -0.24733,0.0273 -0.3483,0.0822 -0.09984,0.0548 -0.18692,0.13778 -0.26096,0.24857 v -0.28629 h -0.31109 v 1.8428 h 0.31109 v -1.0413 c 0,-0.17988 0.04821,-0.32212 0.14469,-0.42633 0.09648,-0.1042 0.22817,-0.15606 0.39532,-0.15606 0.13911,0 0.2436,0.043 0.31316,0.12971 0.06955,0.0867 0.10439,0.2173 0.10439,0.3917 v 1.1023 h 0.30954 v -1.1121 c 0,-0.25447 -0.05533,-0.44721 -0.1664,-0.57774 -0.11106,-0.13162 -0.27492,-0.1974 -0.49144,-0.1974 z m -8.2775,0.0444 v 1.1157 c 0,0.25338 0.05576,0.44561 0.16795,0.57723 0.11219,0.13162 0.27647,0.1974 0.49299,0.1974 0.13126,0 0.24648,-0.0269 0.3452,-0.0806 0.09985,-0.0548 0.18735,-0.13824 0.26252,-0.25012 v 0.28319 h 0.30954 v -1.8428 h -0.30954 v 1.0449 c 0,0.17988 -0.04864,0.32161 -0.14624,0.42581 -0.09648,0.10421 -0.22868,0.15658 -0.39584,0.15658 -0.13911,0 -0.24309,-0.0436 -0.31264,-0.13022 -0.06956,-0.0878 -0.10439,-0.21886 -0.10439,-0.39326 v -1.1038 z m 6.1536,0.21239 c 0.16491,0 0.29574,0.0639 0.39222,0.19224 0.09648,0.12724 0.14469,0.30004 0.14469,0.51831 0,0.21938 -0.04821,0.39263 -0.14469,0.51987 -0.09648,0.12723 -0.22731,0.1912 -0.39222,0.1912 -0.16716,0 -0.29884,-0.063 -0.39532,-0.18914 -0.09536,-0.12723 -0.14314,-0.30146 -0.14314,-0.52193 0,-0.22047 0.04821,-0.39372 0.14469,-0.51986 0.09648,-0.12725 0.22774,-0.19069 0.39377,-0.19069 z m -8.185,0.45734 h 0.54519 c 0.18286,0 0.31815,0.0366 0.40566,0.11007 0.08863,0.0724 0.13281,0.18543 0.13281,0.33899 0,0.15247 -0.04418,0.26597 -0.13281,0.34055 -0.08751,0.0735 -0.2228,0.11007 -0.40566,0.11007 H 16.6701 Z"
       fill="#ffffff"
       opacity="0.65"
       id="path83" />
    <path
       d="m 33.602,281.65 c -1.4605,0 -2.6458,1.1853 -2.6458,2.6458 0,1.4605 1.1853,2.6458 2.6458,2.6458 1.4605,0 2.6458,-1.1853 2.6458,-2.6458 0,-1.4605 -1.1853,-2.6458 -2.6458,-2.6458 z m 1.479,1.2118 0.37312,0.37569 -2.3812,2.3812 -1.3229,-1.3229 0.37312,-0.37312 0.9498,0.94724 z"
       fill="#6b6b6b"
       stroke-width="0.26458"
       id="path85"
       style="fill:#e6e6e6" />
    <path
       d="m 39.952,281.65 c -1.4605,0 -2.6458,1.1853 -2.6458,2.6458 0,1.4605 1.1853,2.6458 2.6458,2.6458 1.4605,0 2.6458,-1.1853 2.6458,-2.6458 0,-1.4605 -1.1853,-2.6458 -2.6458,-2.6458 z m 0,1.8521 c 0.43815,0 0.79375,0.3556 0.79375,0.79375 0,0.43815 -0.3556,0.79375 -0.79375,0.79375 -0.43815,0 -0.79375,-0.3556 -0.79375,-0.79375 0,-0.43815 0.3556,-0.79375 0.79375,-0.79375 z"
       fill="#6b6b6b"
       stroke-width="0.26458"
       id="path87"
       style="fill:#e6e6e6" />
  </g>
  <g
     id="thumbnail-purple"
     transform="translate(177.01,-257.31)">
    <rect
       x="12.171"
       y="265.25"
       width="31.75"
       height="9.5249996"
       rx="0"
       ry="0"
       fill="#f2f2f2"
       stroke-width="0"
       id="rect90" />
    <rect
       x="13.758"
       y="267.10001"
       width="15.875"
       height="5.8207998"
       rx="1.5875"
       ry="1.5875"
       fill="#000000"
       opacity="0.08"
       id="rect92" />
    <path
       d="m 16.33,268.76 v 2.4562 h 0.90227 c 0.28159,0 0.49855,-0.0598 0.65112,-0.17932 0.15257,-0.11955 0.22893,-0.28912 0.22893,-0.50849 0,-0.16673 -0.04693,-0.30521 -0.14004,-0.416 -0.09199,-0.11185 -0.22145,-0.18553 -0.38861,-0.22066 0.13911,-0.0219 0.24446,-0.0776 0.31626,-0.16639 0.0718,-0.0889 0.108,-0.20837 0.108,-0.35864 0,-0.19415 -0.07009,-0.34376 -0.21032,-0.44907 -0.14023,-0.10529 -0.33978,-0.15761 -0.59893,-0.15761 z m 4.3837,0.0904 v 0.52297 h -0.22686 v 0.23513 h 0.22686 v 1.0004 c 0,0.23035 0.04556,0.38923 0.13643,0.47698 0.09087,0.0866 0.25559,0.13022 0.49454,0.13022 H 21.663 v -0.25321 h -0.31833 c -0.12902,0 -0.21472,-0.0213 -0.25735,-0.0641 -0.04151,-0.0428 -0.06201,-0.13963 -0.06201,-0.28991 v -1.0004 H 21.663 v -0.23513 h -0.63769 v -0.52297 z m 1.7033,0 v 0.52297 h -0.22738 v 0.23513 H 22.417 v 1.0004 c 0,0.23035 0.04504,0.38923 0.13591,0.47698 0.09087,0.0866 0.2561,0.13022 0.49506,0.13022 h 0.31781 v -0.25321 h -0.31781 c -0.12901,0 -0.21472,-0.0213 -0.25735,-0.0641 -0.04151,-0.0428 -0.06253,-0.13963 -0.06253,-0.28991 v -1.0004 h 0.63769 v -0.23513 h -0.63769 v -0.52297 z m -5.7469,0.18242 h 0.50333 c 0.16604,0 0.28923,0.0306 0.37,0.092 0.0819,0.0614 0.12299,0.15407 0.12299,0.27802 0,0.12504 -0.04109,0.21866 -0.12299,0.28008 -0.08077,0.0603 -0.20397,0.0904 -0.37,0.0904 H 16.6701 Z m 8.185,0.29611 c -0.27037,0 -0.48244,0.0857 -0.63614,0.25683 -0.15257,0.17111 -0.22893,0.40781 -0.22893,0.71055 0,0.30164 0.07635,0.53886 0.22893,0.71107 0.1537,0.17111 0.36577,0.25631 0.63614,0.25631 0.26925,0 0.48089,-0.0852 0.63459,-0.25631 0.1537,-0.17221 0.23048,-0.40943 0.23048,-0.71107 0,-0.30274 -0.07678,-0.53944 -0.23048,-0.71055 -0.1537,-0.17111 -0.36534,-0.25683 -0.63459,-0.25683 z m 2.1239,0 c -0.13126,0 -0.24733,0.0273 -0.3483,0.0822 -0.09984,0.0548 -0.18692,0.13778 -0.26096,0.24857 v -0.28629 h -0.31109 v 1.8428 h 0.31109 v -1.0413 c 0,-0.17988 0.04821,-0.32212 0.14469,-0.42633 0.09648,-0.1042 0.22817,-0.15606 0.39532,-0.15606 0.13911,0 0.2436,0.043 0.31316,0.12971 0.06955,0.0867 0.10439,0.2173 0.10439,0.3917 v 1.1023 h 0.30954 v -1.1121 c 0,-0.25447 -0.05533,-0.44721 -0.1664,-0.57774 -0.11106,-0.13162 -0.27492,-0.1974 -0.49144,-0.1974 z m -8.2775,0.0444 v 1.1157 c 0,0.25338 0.05576,0.44561 0.16795,0.57723 0.11219,0.13162 0.27647,0.1974 0.49299,0.1974 0.13126,0 0.24648,-0.0269 0.3452,-0.0806 0.09985,-0.0548 0.18735,-0.13824 0.26252,-0.25012 v 0.28319 h 0.30954 v -1.8428 h -0.30954 v 1.0449 c 0,0.17988 -0.04864,0.32161 -0.14624,0.42581 -0.09648,0.10421 -0.22868,0.15658 -0.39584,0.15658 -0.13911,0 -0.24309,-0.0436 -0.31264,-0.13022 -0.06956,-0.0878 -0.10439,-0.21886 -0.10439,-0.39326 v -1.1038 z m 6.1536,0.21239 c 0.16491,0 0.29574,0.0639 0.39222,0.19224 0.09648,0.12724 0.14469,0.30004 0.14469,0.51831 0,0.21938 -0.04821,0.39263 -0.14469,0.51987 -0.09648,0.12723 -0.22731,0.1912 -0.39222,0.1912 -0.16716,0 -0.29884,-0.063 -0.39532,-0.18914 -0.09536,-0.12723 -0.14314,-0.30146 -0.14314,-0.52193 0,-0.22047 0.04821,-0.39372 0.14469,-0.51986 0.09648,-0.12725 0.22774,-0.19069 0.39377,-0.19069 z m -8.185,0.45734 h 0.54519 c 0.18286,0 0.31815,0.0366 0.40566,0.11007 0.08863,0.0724 0.13281,0.18543 0.13281,0.33899 0,0.15247 -0.04418,0.26597 -0.13281,0.34055 -0.08751,0.0735 -0.2228,0.11007 -0.40566,0.11007 H 16.6701 Z"
       fill="#000000"
       opacity="0.65"
       id="path94" />
    <path
       d="m 33.602,267.37 c -1.4605,0 -2.6458,1.1853 -2.6458,2.6458 0,1.4605 1.1853,2.6458 2.6458,2.6458 1.4605,0 2.6458,-1.1853 2.6458,-2.6458 0,-1.4605 -1.1853,-2.6458 -2.6458,-2.6458 z m 1.479,1.2118 0.37312,0.37569 -2.3812,2.3812 -1.3229,-1.3229 0.37312,-0.37312 0.9498,0.94724 z"
       fill="#ab47bc"
       stroke-width="0.26458"
       id="path96" />
    <path
       d="m 39.952,267.37 c -1.4605,0 -2.6458,1.1853 -2.6458,2.6458 0,1.4605 1.1853,2.6458 2.6458,2.6458 1.4605,0 2.6458,-1.1853 2.6458,-2.6458 0,-1.4605 -1.1853,-2.6458 -2.6458,-2.6458 z m 0,1.8521 c 0.43815,0 0.79375,0.3556 0.79375,0.79375 0,0.43815 -0.3556,0.79375 -0.79375,0.79375 -0.43815,0 -0.79375,-0.3556 -0.79375,-0.79375 0,-0.43815 0.3556,-0.79375 0.79375,-0.79375 z"
       fill="#ab47bc"
       stroke-width="0.26458"
       id="path98" />
  </g>
  <g
     id="thumbnail-purple-Dark"
     transform="translate(177.01,-257.31)">
    <rect
       x="12.171"
       y="279.54001"
       width="31.75"
       height="9.5249996"
       rx="0"
       ry="0"
       fill="#2c2c2c"
       stroke-width="0"
       id="rect101" />
    <rect
       x="13.758"
       y="281.39001"
       width="15.875"
       height="5.8207998"
       rx="1.5875"
       ry="1.5875"
       fill="#ffffff"
       opacity="0.1"
       id="rect103" />
    <path
       d="m 16.33,283.05 v 2.4562 h 0.90227 c 0.28159,0 0.49855,-0.0598 0.65112,-0.17932 0.15257,-0.11955 0.22893,-0.28912 0.22893,-0.50849 0,-0.16673 -0.04693,-0.30521 -0.14004,-0.416 -0.09199,-0.11185 -0.22145,-0.18553 -0.38861,-0.22066 0.13911,-0.0219 0.24446,-0.0775 0.31626,-0.16639 0.0718,-0.0889 0.108,-0.20837 0.108,-0.35864 0,-0.19415 -0.07009,-0.34376 -0.21032,-0.44907 -0.14023,-0.10529 -0.33978,-0.15761 -0.59893,-0.15761 z m 4.3837,0.0904 v 0.52297 h -0.22686 v 0.23513 h 0.22686 v 1.0004 c 0,0.23035 0.04556,0.38923 0.13643,0.47698 0.09087,0.0866 0.25559,0.13022 0.49454,0.13022 H 21.663 v -0.25321 h -0.31833 c -0.12902,0 -0.21472,-0.0213 -0.25735,-0.0641 -0.04151,-0.0428 -0.06201,-0.13963 -0.06201,-0.28991 v -1.0004 H 21.663 v -0.23513 h -0.63769 v -0.52297 z m 1.7033,0 v 0.52297 h -0.22738 v 0.23513 H 22.417 v 1.0004 c 0,0.23035 0.04504,0.38923 0.13591,0.47698 0.09087,0.0866 0.2561,0.13022 0.49506,0.13022 h 0.31781 v -0.25321 h -0.31781 c -0.12901,0 -0.21472,-0.0213 -0.25735,-0.0641 -0.04151,-0.0428 -0.06253,-0.13963 -0.06253,-0.28991 v -1.0004 h 0.63769 v -0.23513 h -0.63769 v -0.52297 z m -5.7469,0.18242 h 0.50333 c 0.16604,0 0.28923,0.0306 0.37,0.092 0.0819,0.0614 0.12299,0.15407 0.12299,0.27802 0,0.12504 -0.04109,0.21866 -0.12299,0.28008 -0.08077,0.0603 -0.20397,0.0904 -0.37,0.0904 H 16.6701 Z m 8.185,0.29611 c -0.27037,0 -0.48244,0.0857 -0.63614,0.25683 -0.15257,0.17111 -0.22893,0.40781 -0.22893,0.71055 0,0.30164 0.07635,0.53886 0.22893,0.71107 0.1537,0.17111 0.36577,0.25631 0.63614,0.25631 0.26925,0 0.48089,-0.0852 0.63459,-0.25631 0.1537,-0.17221 0.23048,-0.40943 0.23048,-0.71107 0,-0.30274 -0.07678,-0.53944 -0.23048,-0.71055 -0.1537,-0.17111 -0.36534,-0.25683 -0.63459,-0.25683 z m 2.1239,0 c -0.13126,0 -0.24733,0.0273 -0.3483,0.0822 -0.09984,0.0548 -0.18692,0.13778 -0.26096,0.24857 v -0.28629 h -0.31109 v 1.8428 h 0.31109 v -1.0413 c 0,-0.17988 0.04821,-0.32212 0.14469,-0.42633 0.09648,-0.1042 0.22817,-0.15606 0.39532,-0.15606 0.13911,0 0.2436,0.043 0.31316,0.12971 0.06955,0.0867 0.10439,0.2173 0.10439,0.3917 v 1.1023 h 0.30954 v -1.1121 c 0,-0.25447 -0.05533,-0.44721 -0.1664,-0.57774 -0.11106,-0.13162 -0.27492,-0.1974 -0.49144,-0.1974 z m -8.2775,0.0444 v 1.1157 c 0,0.25338 0.05576,0.44561 0.16795,0.57723 0.11219,0.13162 0.27647,0.1974 0.49299,0.1974 0.13126,0 0.24648,-0.0269 0.3452,-0.0806 0.09985,-0.0548 0.18735,-0.13824 0.26252,-0.25012 v 0.28319 h 0.30954 v -1.8428 h -0.30954 v 1.0449 c 0,0.17988 -0.04864,0.32161 -0.14624,0.42581 -0.09648,0.10421 -0.22868,0.15658 -0.39584,0.15658 -0.13911,0 -0.24309,-0.0436 -0.31264,-0.13022 -0.06956,-0.0878 -0.10439,-0.21886 -0.10439,-0.39326 v -1.1038 z m 6.1536,0.21239 c 0.16491,0 0.29574,0.0639 0.39222,0.19224 0.09648,0.12724 0.14469,0.30004 0.14469,0.51831 0,0.21938 -0.04821,0.39263 -0.14469,0.51987 -0.09648,0.12723 -0.22731,0.1912 -0.39222,0.1912 -0.16716,0 -0.29884,-0.063 -0.39532,-0.18914 -0.09536,-0.12723 -0.14314,-0.30146 -0.14314,-0.52193 0,-0.22047 0.04821,-0.39372 0.14469,-0.51986 0.09648,-0.12725 0.22774,-0.19069 0.39377,-0.19069 z m -8.185,0.45734 h 0.54519 c 0.18286,0 0.31815,0.0366 0.40566,0.11007 0.08863,0.0724 0.13281,0.18543 0.13281,0.33899 0,0.15247 -0.04418,0.26597 -0.13281,0.34055 -0.08751,0.0735 -0.2228,0.11007 -0.40566,0.11007 H 16.6701 Z"
       fill="#ffffff"
       opacity="0.65"
       id="path105" />
    <path
       d="m 33.602,281.65 c -1.4605,0 -2.6458,1.1853 -2.6458,2.6458 0,1.4605 1.1853,2.6458 2.6458,2.6458 1.4605,0 2.6458,-1.1853 2.6458,-2.6458 0,-1.4605 -1.1853,-2.6458 -2.6458,-2.6458 z m 1.479,1.2118 0.37312,0.37569 -2.3812,2.3812 -1.3229,-1.3229 0.37312,-0.37312 0.9498,0.94724 z"
       fill="#ab47bc"
       stroke-width="0.26458"
       id="path107" />
    <path
       d="m 39.952,281.65 c -1.4605,0 -2.6458,1.1853 -2.6458,2.6458 0,1.4605 1.1853,2.6458 2.6458,2.6458 1.4605,0 2.6458,-1.1853 2.6458,-2.6458 0,-1.4605 -1.1853,-2.6458 -2.6458,-2.6458 z m 0,1.8521 c 0.43815,0 0.79375,0.3556 0.79375,0.79375 0,0.43815 -0.3556,0.79375 -0.79375,0.79375 -0.43815,0 -0.79375,-0.3556 -0.79375,-0.79375 0,-0.43815 0.3556,-0.79375 0.79375,-0.79375 z"
       fill="#ab47bc"
       stroke-width="0.26458"
       id="path109" />
  </g>
  <g
     id="thumbnail-pink"
     transform="translate(220.66,-257.31)">
    <rect
       x="12.171"
       y="265.25"
       width="31.75"
       height="9.5249996"
       rx="0"
       ry="0"
       fill="#f2f2f2"
       stroke-width="0"
       id="rect112" />
    <rect
       x="13.758"
       y="267.10001"
       width="15.875"
       height="5.8207998"
       rx="1.5875"
       ry="1.5875"
       fill="#000000"
       opacity="0.08"
       id="rect114" />
    <path
       d="m 16.33,268.76 v 2.4562 h 0.90227 c 0.28159,0 0.49855,-0.0598 0.65112,-0.17932 0.15257,-0.11955 0.22893,-0.28912 0.22893,-0.50849 0,-0.16673 -0.04693,-0.30521 -0.14004,-0.416 -0.09199,-0.11185 -0.22145,-0.18553 -0.38861,-0.22066 0.13911,-0.0219 0.24446,-0.0776 0.31626,-0.16639 0.0718,-0.0889 0.108,-0.20837 0.108,-0.35864 0,-0.19415 -0.07009,-0.34376 -0.21032,-0.44907 -0.14023,-0.10529 -0.33978,-0.15761 -0.59893,-0.15761 z m 4.3837,0.0904 v 0.52297 h -0.22686 v 0.23513 h 0.22686 v 1.0004 c 0,0.23035 0.04556,0.38923 0.13643,0.47698 0.09087,0.0866 0.25559,0.13022 0.49454,0.13022 H 21.663 v -0.25321 h -0.31833 c -0.12902,0 -0.21472,-0.0213 -0.25735,-0.0641 -0.04151,-0.0428 -0.06201,-0.13963 -0.06201,-0.28991 v -1.0004 H 21.663 v -0.23513 h -0.63769 v -0.52297 z m 1.7033,0 v 0.52297 h -0.22738 v 0.23513 H 22.417 v 1.0004 c 0,0.23035 0.04504,0.38923 0.13591,0.47698 0.09087,0.0866 0.2561,0.13022 0.49506,0.13022 h 0.31781 v -0.25321 h -0.31781 c -0.12901,0 -0.21472,-0.0213 -0.25735,-0.0641 -0.04151,-0.0428 -0.06253,-0.13963 -0.06253,-0.28991 v -1.0004 h 0.63769 v -0.23513 h -0.63769 v -0.52297 z m -5.7469,0.18242 h 0.50333 c 0.16604,0 0.28923,0.0306 0.37,0.092 0.0819,0.0614 0.12299,0.15407 0.12299,0.27802 0,0.12504 -0.04109,0.21866 -0.12299,0.28008 -0.08077,0.0603 -0.20397,0.0904 -0.37,0.0904 H 16.6701 Z m 8.185,0.29611 c -0.27037,0 -0.48244,0.0857 -0.63614,0.25683 -0.15257,0.17111 -0.22893,0.40781 -0.22893,0.71055 0,0.30164 0.07635,0.53886 0.22893,0.71107 0.1537,0.17111 0.36577,0.25631 0.63614,0.25631 0.26925,0 0.48089,-0.0852 0.63459,-0.25631 0.1537,-0.17221 0.23048,-0.40943 0.23048,-0.71107 0,-0.30274 -0.07678,-0.53944 -0.23048,-0.71055 -0.1537,-0.17111 -0.36534,-0.25683 -0.63459,-0.25683 z m 2.1239,0 c -0.13126,0 -0.24733,0.0273 -0.3483,0.0822 -0.09984,0.0548 -0.18692,0.13778 -0.26096,0.24857 v -0.28629 h -0.31109 v 1.8428 h 0.31109 v -1.0413 c 0,-0.17988 0.04821,-0.32212 0.14469,-0.42633 0.09648,-0.1042 0.22817,-0.15606 0.39532,-0.15606 0.13911,0 0.2436,0.043 0.31316,0.12971 0.06955,0.0867 0.10439,0.2173 0.10439,0.3917 v 1.1023 h 0.30954 v -1.1121 c 0,-0.25447 -0.05533,-0.44721 -0.1664,-0.57774 -0.11106,-0.13162 -0.27492,-0.1974 -0.49144,-0.1974 z m -8.2775,0.0444 v 1.1157 c 0,0.25338 0.05576,0.44561 0.16795,0.57723 0.11219,0.13162 0.27647,0.1974 0.49299,0.1974 0.13126,0 0.24648,-0.0269 0.3452,-0.0806 0.09985,-0.0548 0.18735,-0.13824 0.26252,-0.25012 v 0.28319 h 0.30954 v -1.8428 h -0.30954 v 1.0449 c 0,0.17988 -0.04864,0.32161 -0.14624,0.42581 -0.09648,0.10421 -0.22868,0.15658 -0.39584,0.15658 -0.13911,0 -0.24309,-0.0436 -0.31264,-0.13022 -0.06956,-0.0878 -0.10439,-0.21886 -0.10439,-0.39326 v -1.1038 z m 6.1536,0.21239 c 0.16491,0 0.29574,0.0639 0.39222,0.19224 0.09648,0.12724 0.14469,0.30004 0.14469,0.51831 0,0.21938 -0.04821,0.39263 -0.14469,0.51987 -0.09648,0.12723 -0.22731,0.1912 -0.39222,0.1912 -0.16716,0 -0.29884,-0.063 -0.39532,-0.18914 -0.09536,-0.12723 -0.14314,-0.30146 -0.14314,-0.52193 0,-0.22047 0.04821,-0.39372 0.14469,-0.51986 0.09648,-0.12725 0.22774,-0.19069 0.39377,-0.19069 z m -8.185,0.45734 h 0.54519 c 0.18286,0 0.31815,0.0366 0.40566,0.11007 0.08863,0.0724 0.13281,0.18543 0.13281,0.33899 0,0.15247 -0.04418,0.26597 -0.13281,0.34055 -0.08751,0.0735 -0.2228,0.11007 -0.40566,0.11007 H 16.6701 Z"
       fill="#000000"
       opacity="0.65"
       id="path116" />
    <path
       d="m 33.602,267.37 c -1.4605,0 -2.6458,1.1853 -2.6458,2.6458 0,1.4605 1.1853,2.6458 2.6458,2.6458 1.4605,0 2.6458,-1.1853 2.6458,-2.6458 0,-1.4605 -1.1853,-2.6458 -2.6458,-2.6458 z m 1.479,1.2118 0.37312,0.37569 -2.3812,2.3812 -1.3229,-1.3229 0.37312,-0.37312 0.9498,0.94724 z"
       fill="#ec407a"
       stroke-width="0.26458"
       id="path118" />
    <path
       d="m 39.952,267.37 c -1.4605,0 -2.6458,1.1853 -2.6458,2.6458 0,1.4605 1.1853,2.6458 2.6458,2.6458 1.4605,0 2.6458,-1.1853 2.6458,-2.6458 0,-1.4605 -1.1853,-2.6458 -2.6458,-2.6458 z m 0,1.8521 c 0.43815,0 0.79375,0.3556 0.79375,0.79375 0,0.43815 -0.3556,0.79375 -0.79375,0.79375 -0.43815,0 -0.79375,-0.3556 -0.79375,-0.79375 0,-0.43815 0.3556,-0.79375 0.79375,-0.79375 z"
       fill="#ec407a"
       stroke-width="0.26458"
       id="path120" />
  </g>
  <g
     id="thumbnail-pink-Dark"
     transform="translate(220.66,-257.31)">
    <rect
       x="12.171"
       y="279.54001"
       width="31.75"
       height="9.5249996"
       rx="0"
       ry="0"
       fill="#2c2c2c"
       stroke-width="0"
       id="rect123" />
    <rect
       x="13.758"
       y="281.39001"
       width="15.875"
       height="5.8207998"
       rx="1.5875"
       ry="1.5875"
       fill="#ffffff"
       opacity="0.1"
       id="rect125" />
    <path
       d="m 16.33,283.05 v 2.4562 h 0.90227 c 0.28159,0 0.49855,-0.0598 0.65112,-0.17932 0.15257,-0.11955 0.22893,-0.28912 0.22893,-0.50849 0,-0.16673 -0.04693,-0.30521 -0.14004,-0.416 -0.09199,-0.11185 -0.22145,-0.18553 -0.38861,-0.22066 0.13911,-0.0219 0.24446,-0.0775 0.31626,-0.16639 0.0718,-0.0889 0.108,-0.20837 0.108,-0.35864 0,-0.19415 -0.07009,-0.34376 -0.21032,-0.44907 -0.14023,-0.10529 -0.33978,-0.15761 -0.59893,-0.15761 z m 4.3837,0.0904 v 0.52297 h -0.22686 v 0.23513 h 0.22686 v 1.0004 c 0,0.23035 0.04556,0.38923 0.13643,0.47698 0.09087,0.0866 0.25559,0.13022 0.49454,0.13022 H 21.663 v -0.25321 h -0.31833 c -0.12902,0 -0.21472,-0.0213 -0.25735,-0.0641 -0.04151,-0.0428 -0.06201,-0.13963 -0.06201,-0.28991 v -1.0004 H 21.663 v -0.23513 h -0.63769 v -0.52297 z m 1.7033,0 v 0.52297 h -0.22738 v 0.23513 H 22.417 v 1.0004 c 0,0.23035 0.04504,0.38923 0.13591,0.47698 0.09087,0.0866 0.2561,0.13022 0.49506,0.13022 h 0.31781 v -0.25321 h -0.31781 c -0.12901,0 -0.21472,-0.0213 -0.25735,-0.0641 -0.04151,-0.0428 -0.06253,-0.13963 -0.06253,-0.28991 v -1.0004 h 0.63769 v -0.23513 h -0.63769 v -0.52297 z m -5.7469,0.18242 h 0.50333 c 0.16604,0 0.28923,0.0306 0.37,0.092 0.0819,0.0614 0.12299,0.15407 0.12299,0.27802 0,0.12504 -0.04109,0.21866 -0.12299,0.28008 -0.08077,0.0603 -0.20397,0.0904 -0.37,0.0904 H 16.6701 Z m 8.185,0.29611 c -0.27037,0 -0.48244,0.0857 -0.63614,0.25683 -0.15257,0.17111 -0.22893,0.40781 -0.22893,0.71055 0,0.30164 0.07635,0.53886 0.22893,0.71107 0.1537,0.17111 0.36577,0.25631 0.63614,0.25631 0.26925,0 0.48089,-0.0852 0.63459,-0.25631 0.1537,-0.17221 0.23048,-0.40943 0.23048,-0.71107 0,-0.30274 -0.07678,-0.53944 -0.23048,-0.71055 -0.1537,-0.17111 -0.36534,-0.25683 -0.63459,-0.25683 z m 2.1239,0 c -0.13126,0 -0.24733,0.0273 -0.3483,0.0822 -0.09984,0.0548 -0.18692,0.13778 -0.26096,0.24857 v -0.28629 h -0.31109 v 1.8428 h 0.31109 v -1.0413 c 0,-0.17988 0.04821,-0.32212 0.14469,-0.42633 0.09648,-0.1042 0.22817,-0.15606 0.39532,-0.15606 0.13911,0 0.2436,0.043 0.31316,0.12971 0.06955,0.0867 0.10439,0.2173 0.10439,0.3917 v 1.1023 h 0.30954 v -1.1121 c 0,-0.25447 -0.05533,-0.44721 -0.1664,-0.57774 -0.11106,-0.13162 -0.27492,-0.1974 -0.49144,-0.1974 z m -8.2775,0.0444 v 1.1157 c 0,0.25338 0.05576,0.44561 0.16795,0.57723 0.11219,0.13162 0.27647,0.1974 0.49299,0.1974 0.13126,0 0.24648,-0.0269 0.3452,-0.0806 0.09985,-0.0548 0.18735,-0.13824 0.26252,-0.25012 v 0.28319 h 0.30954 v -1.8428 h -0.30954 v 1.0449 c 0,0.17988 -0.04864,0.32161 -0.14624,0.42581 -0.09648,0.10421 -0.22868,0.15658 -0.39584,0.15658 -0.13911,0 -0.24309,-0.0436 -0.31264,-0.13022 -0.06956,-0.0878 -0.10439,-0.21886 -0.10439,-0.39326 v -1.1038 z m 6.1536,0.21239 c 0.16491,0 0.29574,0.0639 0.39222,0.19224 0.09648,0.12724 0.14469,0.30004 0.14469,0.51831 0,0.21938 -0.04821,0.39263 -0.14469,0.51987 -0.09648,0.12723 -0.22731,0.1912 -0.39222,0.1912 -0.16716,0 -0.29884,-0.063 -0.39532,-0.18914 -0.09536,-0.12723 -0.14314,-0.30146 -0.14314,-0.52193 0,-0.22047 0.04821,-0.39372 0.14469,-0.51986 0.09648,-0.12725 0.22774,-0.19069 0.39377,-0.19069 z m -8.185,0.45734 h 0.54519 c 0.18286,0 0.31815,0.0366 0.40566,0.11007 0.08863,0.0724 0.13281,0.18543 0.13281,0.33899 0,0.15247 -0.04418,0.26597 -0.13281,0.34055 -0.08751,0.0735 -0.2228,0.11007 -0.40566,0.11007 H 16.6701 Z"
       fill="#ffffff"
       opacity="0.65"
       id="path127" />
    <path
       d="m 33.602,281.65 c -1.4605,0 -2.6458,1.1853 -2.6458,2.6458 0,1.4605 1.1853,2.6458 2.6458,2.6458 1.4605,0 2.6458,-1.1853 2.6458,-2.6458 0,-1.4605 -1.1853,-2.6458 -2.6458,-2.6458 z m 1.479,1.2118 0.37312,0.37569 -2.3812,2.3812 -1.3229,-1.3229 0.37312,-0.37312 0.9498,0.94724 z"
       fill="#ec407a"
       stroke-width="0.26458"
       id="path129" />
    <path
       d="m 39.952,281.65 c -1.4605,0 -2.6458,1.1853 -2.6458,2.6458 0,1.4605 1.1853,2.6458 2.6458,2.6458 1.4605,0 2.6458,-1.1853 2.6458,-2.6458 0,-1.4605 -1.1853,-2.6458 -2.6458,-2.6458 z m 0,1.8521 c 0.43815,0 0.79375,0.3556 0.79375,0.79375 0,0.43815 -0.3556,0.79375 -0.79375,0.79375 -0.43815,0 -0.79375,-0.3556 -0.79375,-0.79375 0,-0.43815 0.3556,-0.79375 0.79375,-0.79375 z"
       fill="#ec407a"
       stroke-width="0.26458"
       id="path131" />
  </g>
  <g
     id="thumbnail-red"
     transform="translate(261.67,-257.31)">
    <rect
       x="12.171"
       y="265.25"
       width="31.75"
       height="9.5249996"
       rx="0"
       ry="0"
       fill="#f2f2f2"
       stroke-width="0"
       id="rect134" />
    <rect
       x="13.758"
       y="267.10001"
       width="15.875"
       height="5.8207998"
       rx="1.5875"
       ry="1.5875"
       fill="#000000"
       opacity="0.08"
       id="rect136" />
    <path
       d="m 16.33,268.76 v 2.4562 h 0.90227 c 0.28159,0 0.49855,-0.0598 0.65112,-0.17932 0.15257,-0.11955 0.22893,-0.28912 0.22893,-0.50849 0,-0.16673 -0.04693,-0.30521 -0.14004,-0.416 -0.09199,-0.11185 -0.22145,-0.18553 -0.38861,-0.22066 0.13911,-0.0219 0.24446,-0.0776 0.31626,-0.16639 0.0718,-0.0889 0.108,-0.20837 0.108,-0.35864 0,-0.19415 -0.07009,-0.34376 -0.21032,-0.44907 -0.14023,-0.10529 -0.33978,-0.15761 -0.59893,-0.15761 z m 4.3837,0.0904 v 0.52297 h -0.22686 v 0.23513 h 0.22686 v 1.0004 c 0,0.23035 0.04556,0.38923 0.13643,0.47698 0.09087,0.0866 0.25559,0.13022 0.49454,0.13022 H 21.663 v -0.25321 h -0.31833 c -0.12902,0 -0.21472,-0.0213 -0.25735,-0.0641 -0.04151,-0.0428 -0.06201,-0.13963 -0.06201,-0.28991 v -1.0004 H 21.663 v -0.23513 h -0.63769 v -0.52297 z m 1.7033,0 v 0.52297 h -0.22738 v 0.23513 H 22.417 v 1.0004 c 0,0.23035 0.04504,0.38923 0.13591,0.47698 0.09087,0.0866 0.2561,0.13022 0.49506,0.13022 h 0.31781 v -0.25321 h -0.31781 c -0.12901,0 -0.21472,-0.0213 -0.25735,-0.0641 -0.04151,-0.0428 -0.06253,-0.13963 -0.06253,-0.28991 v -1.0004 h 0.63769 v -0.23513 h -0.63769 v -0.52297 z m -5.7469,0.18242 h 0.50333 c 0.16604,0 0.28923,0.0306 0.37,0.092 0.0819,0.0614 0.12299,0.15407 0.12299,0.27802 0,0.12504 -0.04109,0.21866 -0.12299,0.28008 -0.08077,0.0603 -0.20397,0.0904 -0.37,0.0904 H 16.6701 Z m 8.185,0.29611 c -0.27037,0 -0.48244,0.0857 -0.63614,0.25683 -0.15257,0.17111 -0.22893,0.40781 -0.22893,0.71055 0,0.30164 0.07635,0.53886 0.22893,0.71107 0.1537,0.17111 0.36577,0.25631 0.63614,0.25631 0.26925,0 0.48089,-0.0852 0.63459,-0.25631 0.1537,-0.17221 0.23048,-0.40943 0.23048,-0.71107 0,-0.30274 -0.07678,-0.53944 -0.23048,-0.71055 -0.1537,-0.17111 -0.36534,-0.25683 -0.63459,-0.25683 z m 2.1239,0 c -0.13126,0 -0.24733,0.0273 -0.3483,0.0822 -0.09984,0.0548 -0.18692,0.13778 -0.26096,0.24857 v -0.28629 h -0.31109 v 1.8428 h 0.31109 v -1.0413 c 0,-0.17988 0.04821,-0.32212 0.14469,-0.42633 0.09648,-0.1042 0.22817,-0.15606 0.39532,-0.15606 0.13911,0 0.2436,0.043 0.31316,0.12971 0.06955,0.0867 0.10439,0.2173 0.10439,0.3917 v 1.1023 h 0.30954 v -1.1121 c 0,-0.25447 -0.05533,-0.44721 -0.1664,-0.57774 -0.11106,-0.13162 -0.27492,-0.1974 -0.49144,-0.1974 z m -8.2775,0.0444 v 1.1157 c 0,0.25338 0.05576,0.44561 0.16795,0.57723 0.11219,0.13162 0.27647,0.1974 0.49299,0.1974 0.13126,0 0.24648,-0.0269 0.3452,-0.0806 0.09985,-0.0548 0.18735,-0.13824 0.26252,-0.25012 v 0.28319 h 0.30954 v -1.8428 h -0.30954 v 1.0449 c 0,0.17988 -0.04864,0.32161 -0.14624,0.42581 -0.09648,0.10421 -0.22868,0.15658 -0.39584,0.15658 -0.13911,0 -0.24309,-0.0436 -0.31264,-0.13022 -0.06956,-0.0878 -0.10439,-0.21886 -0.10439,-0.39326 v -1.1038 z m 6.1536,0.21239 c 0.16491,0 0.29574,0.0639 0.39222,0.19224 0.09648,0.12724 0.14469,0.30004 0.14469,0.51831 0,0.21938 -0.04821,0.39263 -0.14469,0.51987 -0.09648,0.12723 -0.22731,0.1912 -0.39222,0.1912 -0.16716,0 -0.29884,-0.063 -0.39532,-0.18914 -0.09536,-0.12723 -0.14314,-0.30146 -0.14314,-0.52193 0,-0.22047 0.04821,-0.39372 0.14469,-0.51986 0.09648,-0.12725 0.22774,-0.19069 0.39377,-0.19069 z m -8.185,0.45734 h 0.54519 c 0.18286,0 0.31815,0.0366 0.40566,0.11007 0.08863,0.0724 0.13281,0.18543 0.13281,0.33899 0,0.15247 -0.04418,0.26597 -0.13281,0.34055 -0.08751,0.0735 -0.2228,0.11007 -0.40566,0.11007 H 16.6701 Z"
       fill="#000000"
       opacity="0.65"
       id="path138" />
    <path
       d="m 33.602,267.37 c -1.4605,0 -2.6458,1.1853 -2.6458,2.6458 0,1.4605 1.1853,2.6458 2.6458,2.6458 1.4605,0 2.6458,-1.1853 2.6458,-2.6458 0,-1.4605 -1.1853,-2.6458 -2.6458,-2.6458 z m 1.479,1.2118 0.37312,0.37569 -2.3812,2.3812 -1.3229,-1.3229 0.37312,-0.37312 0.9498,0.94724 z"
       fill="#e53935"
       stroke-width="0.26458"
       id="path140" />
    <path
       d="m 39.952,267.37 c -1.4605,0 -2.6458,1.1853 -2.6458,2.6458 0,1.4605 1.1853,2.6458 2.6458,2.6458 1.4605,0 2.6458,-1.1853 2.6458,-2.6458 0,-1.4605 -1.1853,-2.6458 -2.6458,-2.6458 z m 0,1.8521 c 0.43815,0 0.79375,0.3556 0.79375,0.79375 0,0.43815 -0.3556,0.79375 -0.79375,0.79375 -0.43815,0 -0.79375,-0.3556 -0.79375,-0.79375 0,-0.43815 0.3556,-0.79375 0.79375,-0.79375 z"
       fill="#e53935"
       stroke-width="0.26458"
       id="path142" />
  </g>
  <g
     id="thumbnail-red-Dark"
     transform="translate(261.67,-257.31)">
    <rect
       x="12.171"
       y="279.54001"
       width="31.75"
       height="9.5249996"
       rx="0"
       ry="0"
       fill="#2c2c2c"
       stroke-width="0"
       id="rect145" />
    <rect
       x="13.758"
       y="281.39001"
       width="15.875"
       height="5.8207998"
       rx="1.5875"
       ry="1.5875"
       fill="#ffffff"
       opacity="0.1"
       id="rect147" />
    <path
       d="m 16.33,283.05 v 2.4562 h 0.90227 c 0.28159,0 0.49855,-0.0598 0.65112,-0.17932 0.15257,-0.11955 0.22893,-0.28912 0.22893,-0.50849 0,-0.16673 -0.04693,-0.30521 -0.14004,-0.416 -0.09199,-0.11185 -0.22145,-0.18553 -0.38861,-0.22066 0.13911,-0.0219 0.24446,-0.0775 0.31626,-0.16639 0.0718,-0.0889 0.108,-0.20837 0.108,-0.35864 0,-0.19415 -0.07009,-0.34376 -0.21032,-0.44907 -0.14023,-0.10529 -0.33978,-0.15761 -0.59893,-0.15761 z m 4.3837,0.0904 v 0.52297 h -0.22686 v 0.23513 h 0.22686 v 1.0004 c 0,0.23035 0.04556,0.38923 0.13643,0.47698 0.09087,0.0866 0.25559,0.13022 0.49454,0.13022 H 21.663 v -0.25321 h -0.31833 c -0.12902,0 -0.21472,-0.0213 -0.25735,-0.0641 -0.04151,-0.0428 -0.06201,-0.13963 -0.06201,-0.28991 v -1.0004 H 21.663 v -0.23513 h -0.63769 v -0.52297 z m 1.7033,0 v 0.52297 h -0.22738 v 0.23513 H 22.417 v 1.0004 c 0,0.23035 0.04504,0.38923 0.13591,0.47698 0.09087,0.0866 0.2561,0.13022 0.49506,0.13022 h 0.31781 v -0.25321 h -0.31781 c -0.12901,0 -0.21472,-0.0213 -0.25735,-0.0641 -0.04151,-0.0428 -0.06253,-0.13963 -0.06253,-0.28991 v -1.0004 h 0.63769 v -0.23513 h -0.63769 v -0.52297 z m -5.7469,0.18242 h 0.50333 c 0.16604,0 0.28923,0.0306 0.37,0.092 0.0819,0.0614 0.12299,0.15407 0.12299,0.27802 0,0.12504 -0.04109,0.21866 -0.12299,0.28008 -0.08077,0.0603 -0.20397,0.0904 -0.37,0.0904 H 16.6701 Z m 8.185,0.29611 c -0.27037,0 -0.48244,0.0857 -0.63614,0.25683 -0.15257,0.17111 -0.22893,0.40781 -0.22893,0.71055 0,0.30164 0.07635,0.53886 0.22893,0.71107 0.1537,0.17111 0.36577,0.25631 0.63614,0.25631 0.26925,0 0.48089,-0.0852 0.63459,-0.25631 0.1537,-0.17221 0.23048,-0.40943 0.23048,-0.71107 0,-0.30274 -0.07678,-0.53944 -0.23048,-0.71055 -0.1537,-0.17111 -0.36534,-0.25683 -0.63459,-0.25683 z m 2.1239,0 c -0.13126,0 -0.24733,0.0273 -0.3483,0.0822 -0.09984,0.0548 -0.18692,0.13778 -0.26096,0.24857 v -0.28629 h -0.31109 v 1.8428 h 0.31109 v -1.0413 c 0,-0.17988 0.04821,-0.32212 0.14469,-0.42633 0.09648,-0.1042 0.22817,-0.15606 0.39532,-0.15606 0.13911,0 0.2436,0.043 0.31316,0.12971 0.06955,0.0867 0.10439,0.2173 0.10439,0.3917 v 1.1023 h 0.30954 v -1.1121 c 0,-0.25447 -0.05533,-0.44721 -0.1664,-0.57774 -0.11106,-0.13162 -0.27492,-0.1974 -0.49144,-0.1974 z m -8.2775,0.0444 v 1.1157 c 0,0.25338 0.05576,0.44561 0.16795,0.57723 0.11219,0.13162 0.27647,0.1974 0.49299,0.1974 0.13126,0 0.24648,-0.0269 0.3452,-0.0806 0.09985,-0.0548 0.18735,-0.13824 0.26252,-0.25012 v 0.28319 h 0.30954 v -1.8428 h -0.30954 v 1.0449 c 0,0.17988 -0.04864,0.32161 -0.14624,0.42581 -0.09648,0.10421 -0.22868,0.15658 -0.39584,0.15658 -0.13911,0 -0.24309,-0.0436 -0.31264,-0.13022 -0.06956,-0.0878 -0.10439,-0.21886 -0.10439,-0.39326 v -1.1038 z m 6.1536,0.21239 c 0.16491,0 0.29574,0.0639 0.39222,0.19224 0.09648,0.12724 0.14469,0.30004 0.14469,0.51831 0,0.21938 -0.04821,0.39263 -0.14469,0.51987 -0.09648,0.12723 -0.22731,0.1912 -0.39222,0.1912 -0.16716,0 -0.29884,-0.063 -0.39532,-0.18914 -0.09536,-0.12723 -0.14314,-0.30146 -0.14314,-0.52193 0,-0.22047 0.04821,-0.39372 0.14469,-0.51986 0.09648,-0.12725 0.22774,-0.19069 0.39377,-0.19069 z m -8.185,0.45734 h 0.54519 c 0.18286,0 0.31815,0.0366 0.40566,0.11007 0.08863,0.0724 0.13281,0.18543 0.13281,0.33899 0,0.15247 -0.04418,0.26597 -0.13281,0.34055 -0.08751,0.0735 -0.2228,0.11007 -0.40566,0.11007 H 16.6701 Z"
       fill="#ffffff"
       opacity="0.65"
       id="path149" />
    <path
       d="m 33.602,281.65 c -1.4605,0 -2.6458,1.1853 -2.6458,2.6458 0,1.4605 1.1853,2.6458 2.6458,2.6458 1.4605,0 2.6458,-1.1853 2.6458,-2.6458 0,-1.4605 -1.1853,-2.6458 -2.6458,-2.6458 z m 1.479,1.2118 0.37312,0.37569 -2.3812,2.3812 -1.3229,-1.3229 0.37312,-0.37312 0.9498,0.94724 z"
       fill="#e53935"
       stroke-width="0.26458"
       id="path151" />
    <path
       d="m 39.952,281.65 c -1.4605,0 -2.6458,1.1853 -2.6458,2.6458 0,1.4605 1.1853,2.6458 2.6458,2.6458 1.4605,0 2.6458,-1.1853 2.6458,-2.6458 0,-1.4605 -1.1853,-2.6458 -2.6458,-2.6458 z m 0,1.8521 c 0.43815,0 0.79375,0.3556 0.79375,0.79375 0,0.43815 -0.3556,0.79375 -0.79375,0.79375 -0.43815,0 -0.79375,-0.3556 -0.79375,-0.79375 0,-0.43815 0.3556,-0.79375 0.79375,-0.79375 z"
       fill="#e53935"
       stroke-width="0.26458"
       id="path153" />
  </g>
  <g
     id="thumbnail-orange"
     transform="translate(305.33,-257.31)">
    <rect
       x="12.171"
       y="265.25"
       width="31.75"
       height="9.5249996"
       rx="0"
       ry="0"
       fill="#f2f2f2"
       stroke-width="0"
       id="rect156" />
    <rect
       x="13.758"
       y="267.10001"
       width="15.875"
       height="5.8207998"
       rx="1.5875"
       ry="1.5875"
       fill="#000000"
       opacity="0.08"
       id="rect158" />
    <path
       d="m 16.33,268.76 v 2.4562 h 0.90227 c 0.28159,0 0.49855,-0.0598 0.65112,-0.17932 0.15257,-0.11955 0.22893,-0.28912 0.22893,-0.50849 0,-0.16673 -0.04693,-0.30521 -0.14004,-0.416 -0.09199,-0.11185 -0.22145,-0.18553 -0.38861,-0.22066 0.13911,-0.0219 0.24446,-0.0776 0.31626,-0.16639 0.0718,-0.0889 0.108,-0.20837 0.108,-0.35864 0,-0.19415 -0.07009,-0.34376 -0.21032,-0.44907 -0.14023,-0.10529 -0.33978,-0.15761 -0.59893,-0.15761 z m 4.3837,0.0904 v 0.52297 h -0.22686 v 0.23513 h 0.22686 v 1.0004 c 0,0.23035 0.04556,0.38923 0.13643,0.47698 0.09087,0.0866 0.25559,0.13022 0.49454,0.13022 H 21.663 v -0.25321 h -0.31833 c -0.12902,0 -0.21472,-0.0213 -0.25735,-0.0641 -0.04151,-0.0428 -0.06201,-0.13963 -0.06201,-0.28991 v -1.0004 H 21.663 v -0.23513 h -0.63769 v -0.52297 z m 1.7033,0 v 0.52297 h -0.22738 v 0.23513 H 22.417 v 1.0004 c 0,0.23035 0.04504,0.38923 0.13591,0.47698 0.09087,0.0866 0.2561,0.13022 0.49506,0.13022 h 0.31781 v -0.25321 h -0.31781 c -0.12901,0 -0.21472,-0.0213 -0.25735,-0.0641 -0.04151,-0.0428 -0.06253,-0.13963 -0.06253,-0.28991 v -1.0004 h 0.63769 v -0.23513 h -0.63769 v -0.52297 z m -5.7469,0.18242 h 0.50333 c 0.16604,0 0.28923,0.0306 0.37,0.092 0.0819,0.0614 0.12299,0.15407 0.12299,0.27802 0,0.12504 -0.04109,0.21866 -0.12299,0.28008 -0.08077,0.0603 -0.20397,0.0904 -0.37,0.0904 H 16.6701 Z m 8.185,0.29611 c -0.27037,0 -0.48244,0.0857 -0.63614,0.25683 -0.15257,0.17111 -0.22893,0.40781 -0.22893,0.71055 0,0.30164 0.07635,0.53886 0.22893,0.71107 0.1537,0.17111 0.36577,0.25631 0.63614,0.25631 0.26925,0 0.48089,-0.0852 0.63459,-0.25631 0.1537,-0.17221 0.23048,-0.40943 0.23048,-0.71107 0,-0.30274 -0.07678,-0.53944 -0.23048,-0.71055 -0.1537,-0.17111 -0.36534,-0.25683 -0.63459,-0.25683 z m 2.1239,0 c -0.13126,0 -0.24733,0.0273 -0.3483,0.0822 -0.09984,0.0548 -0.18692,0.13778 -0.26096,0.24857 v -0.28629 h -0.31109 v 1.8428 h 0.31109 v -1.0413 c 0,-0.17988 0.04821,-0.32212 0.14469,-0.42633 0.09648,-0.1042 0.22817,-0.15606 0.39532,-0.15606 0.13911,0 0.2436,0.043 0.31316,0.12971 0.06955,0.0867 0.10439,0.2173 0.10439,0.3917 v 1.1023 h 0.30954 v -1.1121 c 0,-0.25447 -0.05533,-0.44721 -0.1664,-0.57774 -0.11106,-0.13162 -0.27492,-0.1974 -0.49144,-0.1974 z m -8.2775,0.0444 v 1.1157 c 0,0.25338 0.05576,0.44561 0.16795,0.57723 0.11219,0.13162 0.27647,0.1974 0.49299,0.1974 0.13126,0 0.24648,-0.0269 0.3452,-0.0806 0.09985,-0.0548 0.18735,-0.13824 0.26252,-0.25012 v 0.28319 h 0.30954 v -1.8428 h -0.30954 v 1.0449 c 0,0.17988 -0.04864,0.32161 -0.14624,0.42581 -0.09648,0.10421 -0.22868,0.15658 -0.39584,0.15658 -0.13911,0 -0.24309,-0.0436 -0.31264,-0.13022 -0.06956,-0.0878 -0.10439,-0.21886 -0.10439,-0.39326 v -1.1038 z m 6.1536,0.21239 c 0.16491,0 0.29574,0.0639 0.39222,0.19224 0.09648,0.12724 0.14469,0.30004 0.14469,0.51831 0,0.21938 -0.04821,0.39263 -0.14469,0.51987 -0.09648,0.12723 -0.22731,0.1912 -0.39222,0.1912 -0.16716,0 -0.29884,-0.063 -0.39532,-0.18914 -0.09536,-0.12723 -0.14314,-0.30146 -0.14314,-0.52193 0,-0.22047 0.04821,-0.39372 0.14469,-0.51986 0.09648,-0.12725 0.22774,-0.19069 0.39377,-0.19069 z m -8.185,0.45734 h 0.54519 c 0.18286,0 0.31815,0.0366 0.40566,0.11007 0.08863,0.0724 0.13281,0.18543 0.13281,0.33899 0,0.15247 -0.04418,0.26597 -0.13281,0.34055 -0.08751,0.0735 -0.2228,0.11007 -0.40566,0.11007 H 16.6701 Z"
       fill="#000000"
       opacity="0.65"
       id="path160" />
    <path
       d="m 33.602,267.37 c -1.4605,0 -2.6458,1.1853 -2.6458,2.6458 0,1.4605 1.1853,2.6458 2.6458,2.6458 1.4605,0 2.6458,-1.1853 2.6458,-2.6458 0,-1.4605 -1.1853,-2.6458 -2.6458,-2.6458 z m 1.479,1.2118 0.37312,0.37569 -2.3812,2.3812 -1.3229,-1.3229 0.37312,-0.37312 0.9498,0.94724 z"
       fill="#f57c00"
       stroke-width="0.26458"
       id="path162" />
    <path
       d="m 39.952,267.37 c -1.4605,0 -2.6458,1.1853 -2.6458,2.6458 0,1.4605 1.1853,2.6458 2.6458,2.6458 1.4605,0 2.6458,-1.1853 2.6458,-2.6458 0,-1.4605 -1.1853,-2.6458 -2.6458,-2.6458 z m 0,1.8521 c 0.43815,0 0.79375,0.3556 0.79375,0.79375 0,0.43815 -0.3556,0.79375 -0.79375,0.79375 -0.43815,0 -0.79375,-0.3556 -0.79375,-0.79375 0,-0.43815 0.3556,-0.79375 0.79375,-0.79375 z"
       fill="#f57c00"
       stroke-width="0.26458"
       id="path164" />
  </g>
  <g
     id="thumbnail-orange-Dark"
     transform="translate(305.33,-257.31)">
    <rect
       x="12.171"
       y="279.54001"
       width="31.75"
       height="9.5249996"
       rx="0"
       ry="0"
       fill="#2c2c2c"
       stroke-width="0"
       id="rect167" />
    <rect
       x="13.758"
       y="281.39001"
       width="15.875"
       height="5.8207998"
       rx="1.5875"
       ry="1.5875"
       fill="#ffffff"
       opacity="0.1"
       id="rect169" />
    <path
       d="m 16.33,283.05 v 2.4562 h 0.90227 c 0.28159,0 0.49855,-0.0598 0.65112,-0.17932 0.15257,-0.11955 0.22893,-0.28912 0.22893,-0.50849 0,-0.16673 -0.04693,-0.30521 -0.14004,-0.416 -0.09199,-0.11185 -0.22145,-0.18553 -0.38861,-0.22066 0.13911,-0.0219 0.24446,-0.0775 0.31626,-0.16639 0.0718,-0.0889 0.108,-0.20837 0.108,-0.35864 0,-0.19415 -0.07009,-0.34376 -0.21032,-0.44907 -0.14023,-0.10529 -0.33978,-0.15761 -0.59893,-0.15761 z m 4.3837,0.0904 v 0.52297 h -0.22686 v 0.23513 h 0.22686 v 1.0004 c 0,0.23035 0.04556,0.38923 0.13643,0.47698 0.09087,0.0866 0.25559,0.13022 0.49454,0.13022 H 21.663 v -0.25321 h -0.31833 c -0.12902,0 -0.21472,-0.0213 -0.25735,-0.0641 -0.04151,-0.0428 -0.06201,-0.13963 -0.06201,-0.28991 v -1.0004 H 21.663 v -0.23513 h -0.63769 v -0.52297 z m 1.7033,0 v 0.52297 h -0.22738 v 0.23513 H 22.417 v 1.0004 c 0,0.23035 0.04504,0.38923 0.13591,0.47698 0.09087,0.0866 0.2561,0.13022 0.49506,0.13022 h 0.31781 v -0.25321 h -0.31781 c -0.12901,0 -0.21472,-0.0213 -0.25735,-0.0641 -0.04151,-0.0428 -0.06253,-0.13963 -0.06253,-0.28991 v -1.0004 h 0.63769 v -0.23513 h -0.63769 v -0.52297 z m -5.7469,0.18242 h 0.50333 c 0.16604,0 0.28923,0.0306 0.37,0.092 0.0819,0.0614 0.12299,0.15407 0.12299,0.27802 0,0.12504 -0.04109,0.21866 -0.12299,0.28008 -0.08077,0.0603 -0.20397,0.0904 -0.37,0.0904 H 16.6701 Z m 8.185,0.29611 c -0.27037,0 -0.48244,0.0857 -0.63614,0.25683 -0.15257,0.17111 -0.22893,0.40781 -0.22893,0.71055 0,0.30164 0.07635,0.53886 0.22893,0.71107 0.1537,0.17111 0.36577,0.25631 0.63614,0.25631 0.26925,0 0.48089,-0.0852 0.63459,-0.25631 0.1537,-0.17221 0.23048,-0.40943 0.23048,-0.71107 0,-0.30274 -0.07678,-0.53944 -0.23048,-0.71055 -0.1537,-0.17111 -0.36534,-0.25683 -0.63459,-0.25683 z m 2.1239,0 c -0.13126,0 -0.24733,0.0273 -0.3483,0.0822 -0.09984,0.0548 -0.18692,0.13778 -0.26096,0.24857 v -0.28629 h -0.31109 v 1.8428 h 0.31109 v -1.0413 c 0,-0.17988 0.04821,-0.32212 0.14469,-0.42633 0.09648,-0.1042 0.22817,-0.15606 0.39532,-0.15606 0.13911,0 0.2436,0.043 0.31316,0.12971 0.06955,0.0867 0.10439,0.2173 0.10439,0.3917 v 1.1023 h 0.30954 v -1.1121 c 0,-0.25447 -0.05533,-0.44721 -0.1664,-0.57774 -0.11106,-0.13162 -0.27492,-0.1974 -0.49144,-0.1974 z m -8.2775,0.0444 v 1.1157 c 0,0.25338 0.05576,0.44561 0.16795,0.57723 0.11219,0.13162 0.27647,0.1974 0.49299,0.1974 0.13126,0 0.24648,-0.0269 0.3452,-0.0806 0.09985,-0.0548 0.18735,-0.13824 0.26252,-0.25012 v 0.28319 h 0.30954 v -1.8428 h -0.30954 v 1.0449 c 0,0.17988 -0.04864,0.32161 -0.14624,0.42581 -0.09648,0.10421 -0.22868,0.15658 -0.39584,0.15658 -0.13911,0 -0.24309,-0.0436 -0.31264,-0.13022 -0.06956,-0.0878 -0.10439,-0.21886 -0.10439,-0.39326 v -1.1038 z m 6.1536,0.21239 c 0.16491,0 0.29574,0.0639 0.39222,0.19224 0.09648,0.12724 0.14469,0.30004 0.14469,0.51831 0,0.21938 -0.04821,0.39263 -0.14469,0.51987 -0.09648,0.12723 -0.22731,0.1912 -0.39222,0.1912 -0.16716,0 -0.29884,-0.063 -0.39532,-0.18914 -0.09536,-0.12723 -0.14314,-0.30146 -0.14314,-0.52193 0,-0.22047 0.04821,-0.39372 0.14469,-0.51986 0.09648,-0.12725 0.22774,-0.19069 0.39377,-0.19069 z m -8.185,0.45734 h 0.54519 c 0.18286,0 0.31815,0.0366 0.40566,0.11007 0.08863,0.0724 0.13281,0.18543 0.13281,0.33899 0,0.15247 -0.04418,0.26597 -0.13281,0.34055 -0.08751,0.0735 -0.2228,0.11007 -0.40566,0.11007 H 16.6701 Z"
       fill="#ffffff"
       opacity="0.65"
       id="path171" />
    <path
       d="m 33.602,281.65 c -1.4605,0 -2.6458,1.1853 -2.6458,2.6458 0,1.4605 1.1853,2.6458 2.6458,2.6458 1.4605,0 2.6458,-1.1853 2.6458,-2.6458 0,-1.4605 -1.1853,-2.6458 -2.6458,-2.6458 z m 1.479,1.2118 0.37312,0.37569 -2.3812,2.3812 -1.3229,-1.3229 0.37312,-0.37312 0.9498,0.94724 z"
       fill="#f57c00"
       stroke-width="0.26458"
       id="path173" />
    <path
       d="m 39.952,281.65 c -1.4605,0 -2.6458,1.1853 -2.6458,2.6458 0,1.4605 1.1853,2.6458 2.6458,2.6458 1.4605,0 2.6458,-1.1853 2.6458,-2.6458 0,-1.4605 -1.1853,-2.6458 -2.6458,-2.6458 z m 0,1.8521 c 0.43815,0 0.79375,0.3556 0.79375,0.79375 0,0.43815 -0.3556,0.79375 -0.79375,0.79375 -0.43815,0 -0.79375,-0.3556 -0.79375,-0.79375 0,-0.43815 0.3556,-0.79375 0.79375,-0.79375 z"
       fill="#f57c00"
       stroke-width="0.26458"
       id="path175" />
  </g>
  <g
     id="thumbnail-teal"
     transform="translate(352.85,-257.31)">
    <rect
       x="12.171"
       y="265.25"
       width="31.75"
       height="9.5249996"
       rx="0"
       ry="0"
       fill="#f2f2f2"
       stroke-width="0"
       id="rect178" />
    <rect
       x="13.758"
       y="267.10001"
       width="15.875"
       height="5.8207998"
       rx="1.5875"
       ry="1.5875"
       fill="#000000"
       opacity="0.08"
       id="rect180" />
    <path
       d="m 16.33,268.76 v 2.4562 h 0.90227 c 0.28159,0 0.49855,-0.0598 0.65112,-0.17932 0.15257,-0.11955 0.22893,-0.28912 0.22893,-0.50849 0,-0.16673 -0.04693,-0.30521 -0.14004,-0.416 -0.09199,-0.11185 -0.22145,-0.18553 -0.38861,-0.22066 0.13911,-0.0219 0.24446,-0.0776 0.31626,-0.16639 0.0718,-0.0889 0.108,-0.20837 0.108,-0.35864 0,-0.19415 -0.07009,-0.34376 -0.21032,-0.44907 -0.14023,-0.10529 -0.33978,-0.15761 -0.59893,-0.15761 z m 4.3837,0.0904 v 0.52297 h -0.22686 v 0.23513 h 0.22686 v 1.0004 c 0,0.23035 0.04556,0.38923 0.13643,0.47698 0.09087,0.0866 0.25559,0.13022 0.49454,0.13022 H 21.663 v -0.25321 h -0.31833 c -0.12902,0 -0.21472,-0.0213 -0.25735,-0.0641 -0.04151,-0.0428 -0.06201,-0.13963 -0.06201,-0.28991 v -1.0004 H 21.663 v -0.23513 h -0.63769 v -0.52297 z m 1.7033,0 v 0.52297 h -0.22738 v 0.23513 H 22.417 v 1.0004 c 0,0.23035 0.04504,0.38923 0.13591,0.47698 0.09087,0.0866 0.2561,0.13022 0.49506,0.13022 h 0.31781 v -0.25321 h -0.31781 c -0.12901,0 -0.21472,-0.0213 -0.25735,-0.0641 -0.04151,-0.0428 -0.06253,-0.13963 -0.06253,-0.28991 v -1.0004 h 0.63769 v -0.23513 h -0.63769 v -0.52297 z m -5.7469,0.18242 h 0.50333 c 0.16604,0 0.28923,0.0306 0.37,0.092 0.0819,0.0614 0.12299,0.15407 0.12299,0.27802 0,0.12504 -0.04109,0.21866 -0.12299,0.28008 -0.08077,0.0603 -0.20397,0.0904 -0.37,0.0904 H 16.6701 Z m 8.185,0.29611 c -0.27037,0 -0.48244,0.0857 -0.63614,0.25683 -0.15257,0.17111 -0.22893,0.40781 -0.22893,0.71055 0,0.30164 0.07635,0.53886 0.22893,0.71107 0.1537,0.17111 0.36577,0.25631 0.63614,0.25631 0.26925,0 0.48089,-0.0852 0.63459,-0.25631 0.1537,-0.17221 0.23048,-0.40943 0.23048,-0.71107 0,-0.30274 -0.07678,-0.53944 -0.23048,-0.71055 -0.1537,-0.17111 -0.36534,-0.25683 -0.63459,-0.25683 z m 2.1239,0 c -0.13126,0 -0.24733,0.0273 -0.3483,0.0822 -0.09984,0.0548 -0.18692,0.13778 -0.26096,0.24857 v -0.28629 h -0.31109 v 1.8428 h 0.31109 v -1.0413 c 0,-0.17988 0.04821,-0.32212 0.14469,-0.42633 0.09648,-0.1042 0.22817,-0.15606 0.39532,-0.15606 0.13911,0 0.2436,0.043 0.31316,0.12971 0.06955,0.0867 0.10439,0.2173 0.10439,0.3917 v 1.1023 h 0.30954 v -1.1121 c 0,-0.25447 -0.05533,-0.44721 -0.1664,-0.57774 -0.11106,-0.13162 -0.27492,-0.1974 -0.49144,-0.1974 z m -8.2775,0.0444 v 1.1157 c 0,0.25338 0.05576,0.44561 0.16795,0.57723 0.11219,0.13162 0.27647,0.1974 0.49299,0.1974 0.13126,0 0.24648,-0.0269 0.3452,-0.0806 0.09985,-0.0548 0.18735,-0.13824 0.26252,-0.25012 v 0.28319 h 0.30954 v -1.8428 h -0.30954 v 1.0449 c 0,0.17988 -0.04864,0.32161 -0.14624,0.42581 -0.09648,0.10421 -0.22868,0.15658 -0.39584,0.15658 -0.13911,0 -0.24309,-0.0436 -0.31264,-0.13022 -0.06956,-0.0878 -0.10439,-0.21886 -0.10439,-0.39326 v -1.1038 z m 6.1536,0.21239 c 0.16491,0 0.29574,0.0639 0.39222,0.19224 0.09648,0.12724 0.14469,0.30004 0.14469,0.51831 0,0.21938 -0.04821,0.39263 -0.14469,0.51987 -0.09648,0.12723 -0.22731,0.1912 -0.39222,0.1912 -0.16716,0 -0.29884,-0.063 -0.39532,-0.18914 -0.09536,-0.12723 -0.14314,-0.30146 -0.14314,-0.52193 0,-0.22047 0.04821,-0.39372 0.14469,-0.51986 0.09648,-0.12725 0.22774,-0.19069 0.39377,-0.19069 z m -8.185,0.45734 h 0.54519 c 0.18286,0 0.31815,0.0366 0.40566,0.11007 0.08863,0.0724 0.13281,0.18543 0.13281,0.33899 0,0.15247 -0.04418,0.26597 -0.13281,0.34055 -0.08751,0.0735 -0.2228,0.11007 -0.40566,0.11007 H 16.6701 Z"
       fill="#000000"
       opacity="0.65"
       id="path182" />
    <path
       d="m 33.602,267.37 c -1.4605,0 -2.6458,1.1853 -2.6458,2.6458 0,1.4605 1.1853,2.6458 2.6458,2.6458 1.4605,0 2.6458,-1.1853 2.6458,-2.6458 0,-1.4605 -1.1853,-2.6458 -2.6458,-2.6458 z m 1.479,1.2118 0.37312,0.37569 -2.3812,2.3812 -1.3229,-1.3229 0.37312,-0.37312 0.9498,0.94724 z"
       fill="#009688"
       stroke-width="0.26458"
       id="path184" />
    <path
       d="m 39.952,267.37 c -1.4605,0 -2.6458,1.1853 -2.6458,2.6458 0,1.4605 1.1853,2.6458 2.6458,2.6458 1.4605,0 2.6458,-1.1853 2.6458,-2.6458 0,-1.4605 -1.1853,-2.6458 -2.6458,-2.6458 z m 0,1.8521 c 0.43815,0 0.79375,0.3556 0.79375,0.79375 0,0.43815 -0.3556,0.79375 -0.79375,0.79375 -0.43815,0 -0.79375,-0.3556 -0.79375,-0.79375 0,-0.43815 0.3556,-0.79375 0.79375,-0.79375 z"
       fill="#009688"
       stroke-width="0.26458"
       id="path186" />
  </g>
  <g
     id="thumbnail-teal-Dark"
     transform="translate(352.85,-257.31)">
    <rect
       x="12.171"
       y="279.54001"
       width="31.75"
       height="9.5249996"
       rx="0"
       ry="0"
       fill="#2c2c2c"
       stroke-width="0"
       id="rect189" />
    <rect
       x="13.758"
       y="281.39001"
       width="15.875"
       height="5.8207998"
       rx="1.5875"
       ry="1.5875"
       fill="#ffffff"
       opacity="0.1"
       id="rect191" />
    <path
       d="m 16.33,283.05 v 2.4562 h 0.90227 c 0.28159,0 0.49855,-0.0598 0.65112,-0.17932 0.15257,-0.11955 0.22893,-0.28912 0.22893,-0.50849 0,-0.16673 -0.04693,-0.30521 -0.14004,-0.416 -0.09199,-0.11185 -0.22145,-0.18553 -0.38861,-0.22066 0.13911,-0.0219 0.24446,-0.0775 0.31626,-0.16639 0.0718,-0.0889 0.108,-0.20837 0.108,-0.35864 0,-0.19415 -0.07009,-0.34376 -0.21032,-0.44907 -0.14023,-0.10529 -0.33978,-0.15761 -0.59893,-0.15761 z m 4.3837,0.0904 v 0.52297 h -0.22686 v 0.23513 h 0.22686 v 1.0004 c 0,0.23035 0.04556,0.38923 0.13643,0.47698 0.09087,0.0866 0.25559,0.13022 0.49454,0.13022 H 21.663 v -0.25321 h -0.31833 c -0.12902,0 -0.21472,-0.0213 -0.25735,-0.0641 -0.04151,-0.0428 -0.06201,-0.13963 -0.06201,-0.28991 v -1.0004 H 21.663 v -0.23513 h -0.63769 v -0.52297 z m 1.7033,0 v 0.52297 h -0.22738 v 0.23513 H 22.417 v 1.0004 c 0,0.23035 0.04504,0.38923 0.13591,0.47698 0.09087,0.0866 0.2561,0.13022 0.49506,0.13022 h 0.31781 v -0.25321 h -0.31781 c -0.12901,0 -0.21472,-0.0213 -0.25735,-0.0641 -0.04151,-0.0428 -0.06253,-0.13963 -0.06253,-0.28991 v -1.0004 h 0.63769 v -0.23513 h -0.63769 v -0.52297 z m -5.7469,0.18242 h 0.50333 c 0.16604,0 0.28923,0.0306 0.37,0.092 0.0819,0.0614 0.12299,0.15407 0.12299,0.27802 0,0.12504 -0.04109,0.21866 -0.12299,0.28008 -0.08077,0.0603 -0.20397,0.0904 -0.37,0.0904 H 16.6701 Z m 8.185,0.29611 c -0.27037,0 -0.48244,0.0857 -0.63614,0.25683 -0.15257,0.17111 -0.22893,0.40781 -0.22893,0.71055 0,0.30164 0.07635,0.53886 0.22893,0.71107 0.1537,0.17111 0.36577,0.25631 0.63614,0.25631 0.26925,0 0.48089,-0.0852 0.63459,-0.25631 0.1537,-0.17221 0.23048,-0.40943 0.23048,-0.71107 0,-0.30274 -0.07678,-0.53944 -0.23048,-0.71055 -0.1537,-0.17111 -0.36534,-0.25683 -0.63459,-0.25683 z m 2.1239,0 c -0.13126,0 -0.24733,0.0273 -0.3483,0.0822 -0.09984,0.0548 -0.18692,0.13778 -0.26096,0.24857 v -0.28629 h -0.31109 v 1.8428 h 0.31109 v -1.0413 c 0,-0.17988 0.04821,-0.32212 0.14469,-0.42633 0.09648,-0.1042 0.22817,-0.15606 0.39532,-0.15606 0.13911,0 0.2436,0.043 0.31316,0.12971 0.06955,0.0867 0.10439,0.2173 0.10439,0.3917 v 1.1023 h 0.30954 v -1.1121 c 0,-0.25447 -0.05533,-0.44721 -0.1664,-0.57774 -0.11106,-0.13162 -0.27492,-0.1974 -0.49144,-0.1974 z m -8.2775,0.0444 v 1.1157 c 0,0.25338 0.05576,0.44561 0.16795,0.57723 0.11219,0.13162 0.27647,0.1974 0.49299,0.1974 0.13126,0 0.24648,-0.0269 0.3452,-0.0806 0.09985,-0.0548 0.18735,-0.13824 0.26252,-0.25012 v 0.28319 h 0.30954 v -1.8428 h -0.30954 v 1.0449 c 0,0.17988 -0.04864,0.32161 -0.14624,0.42581 -0.09648,0.10421 -0.22868,0.15658 -0.39584,0.15658 -0.13911,0 -0.24309,-0.0436 -0.31264,-0.13022 -0.06956,-0.0878 -0.10439,-0.21886 -0.10439,-0.39326 v -1.1038 z m 6.1536,0.21239 c 0.16491,0 0.29574,0.0639 0.39222,0.19224 0.09648,0.12724 0.14469,0.30004 0.14469,0.51831 0,0.21938 -0.04821,0.39263 -0.14469,0.51987 -0.09648,0.12723 -0.22731,0.1912 -0.39222,0.1912 -0.16716,0 -0.29884,-0.063 -0.39532,-0.18914 -0.09536,-0.12723 -0.14314,-0.30146 -0.14314,-0.52193 0,-0.22047 0.04821,-0.39372 0.14469,-0.51986 0.09648,-0.12725 0.22774,-0.19069 0.39377,-0.19069 z m -8.185,0.45734 h 0.54519 c 0.18286,0 0.31815,0.0366 0.40566,0.11007 0.08863,0.0724 0.13281,0.18543 0.13281,0.33899 0,0.15247 -0.04418,0.26597 -0.13281,0.34055 -0.08751,0.0735 -0.2228,0.11007 -0.40566,0.11007 H 16.6701 Z"
       fill="#ffffff"
       opacity="0.65"
       id="path193" />
    <path
       d="m 33.602,281.65 c -1.4605,0 -2.6458,1.1853 -2.6458,2.6458 0,1.4605 1.1853,2.6458 2.6458,2.6458 1.4605,0 2.6458,-1.1853 2.6458,-2.6458 0,-1.4605 -1.1853,-2.6458 -2.6458,-2.6458 z m 1.479,1.2118 0.37312,0.37569 -2.3812,2.3812 -1.3229,-1.3229 0.37312,-0.37312 0.9498,0.94724 z"
       fill="#4db6ac"
       stroke-width="0.26458"
       id="path195" />
    <path
       d="m 39.952,281.65 c -1.4605,0 -2.6458,1.1853 -2.6458,2.6458 0,1.4605 1.1853,2.6458 2.6458,2.6458 1.4605,0 2.6458,-1.1853 2.6458,-2.6458 0,-1.4605 -1.1853,-2.6458 -2.6458,-2.6458 z m 0,1.8521 c 0.43815,0 0.79375,0.3556 0.79375,0.79375 0,0.43815 -0.3556,0.79375 -0.79375,0.79375 -0.43815,0 -0.79375,-0.3556 -0.79375,-0.79375 0,-0.43815 0.3556,-0.79375 0.79375,-0.79375 z"
       fill="#4db6ac"
       stroke-width="0.26458"
       id="path197" />
  </g>
</svg>
