<svg xmlns="http://www.w3.org/2000/svg" width="68" height="72"><path d="M255 656.772h34v36h-34z" style="fill:none" transform="matrix(2 0 0 2 -510 -1313.543)"/><path d="M272 687.772c6.627 0 12-5.372 12-12 0-6.627-5.373-12-12-12s-12 5.373-12 12c0 6.628 5.373 12 12 12" style="opacity:.15;fill:#fff;fill-opacity:1;fill-rule:evenodd;stroke:none;stroke-width:1.71429" transform="matrix(2 0 0 2 -510 -1313.543)"/><path d="M272 669.772a6 6 0 0 0-6 6 6 6 0 0 0 6 6 6 6 0 0 0 6-6 6 6 0 0 0-6-6m0 2a4 4 0 0 1 4 4 4 4 0 0 1-4 4 4 4 0 0 1-4-4 4 4 0 0 1 4-4" style="opacity:.75;fill:#fff" transform="matrix(2 0 0 2 -510 -1313.543)"/></svg>