/* XPM */
static char *button[] = {
/* columns rows colors chars-per-pixel */
"68 72 2 1 ",
"  c None",
". c #2C2C2C s active_color_2",
/* pixels */
"                                                                    ",
"                                                                    ",
"                                                                    ",
"                                                                    ",
"                                                                    ",
"                                                                    ",
"                                                                    ",
"                                                                    ",
"                                                                    ",
"                                                                    ",
"                            ............                            ",
"                            ............                            ",
"                        ....................                        ",
"                        ....................                        ",
"                    ............................                    ",
"                    ............................                    ",
"                ....................................                ",
"                ....................................                ",
"              ........................................              ",
"              ........................................              ",
"            ............................................            ",
"            ............................................            ",
"            ............................................            ",
"            ............................................            ",
"          ................................................          ",
"          ................................................          ",
"          ................................................          ",
"          ................................................          ",
"        ....................................................        ",
"        ....................................................        ",
"        ....................................................        ",
"        ....................................................        ",
"      ........................................................      ",
"      ........................................................      ",
"      ........................................................      ",
"      ........................................................      ",
"      ........................................................      ",
"      ........................................................      ",
"      ........................................................      ",
"      ........................................................      ",
"      ........................................................      ",
"      ........................................................      ",
"      ........................................................      ",
"      ........................................................      ",
"        ....................................................        ",
"        ....................................................        ",
"        ....................................................        ",
"        ....................................................        ",
"          ................................................          ",
"          ................................................          ",
"          ................................................          ",
"          ................................................          ",
"            ............................................            ",
"            ............................................            ",
"            ............................................            ",
"            ............................................            ",
"              ........................................              ",
"              ........................................              ",
"                ....................................                ",
"                ....................................                ",
"                    ............................                    ",
"                    ............................                    ",
"                        ....................                        ",
"                        ....................                        ",
"                            ............                            ",
"                            ............                            ",
"                                                                    ",
"                                                                    ",
"                                                                    ",
"                                                                    ",
"                                                                    ",
"                                                                    "
};
