/* XPM */
static char *top_right_active[] = {
/* columns rows colors chars-per-pixel */
"16 72 3 1 ",
"  c None",
". c #2C2C2C s active_color_2",
"X c gray88 s active_color_1",
/* pixels */
"XXXXXX          ",
"XXXXXX          ",
"XXXXXXXXXX      ",
"XXXXXXXXXX      ",
"....XXXXXXXX    ",
"....XXXXXXXX    ",
"........XXXXXX  ",
"........XXXXXX  ",
"..........XXXX  ",
"..........XXXX  ",
"..........XXXXXX",
"..........XXXXXX",
"............XXXX",
"............XXXX",
"............XXXX",
"............XXXX",
"............XXXX",
"............XXXX",
"............XXXX",
"............XXXX",
"............XXXX",
"............XXXX",
"............XXXX",
"............XXXX",
"............XXXX",
"............XXXX",
"............XXXX",
"............XXXX",
"............XXXX",
"............XXXX",
"............XXXX",
"............XXXX",
"............XXXX",
"............XXXX",
"............XXXX",
"............XXXX",
"............XXXX",
"............XXXX",
"............XXXX",
"............XXXX",
"............XXXX",
"............XXXX",
"............XXXX",
"............XXXX",
"............XXXX",
"............XXXX",
"............XXXX",
"............XXXX",
"............XXXX",
"............XXXX",
"............XXXX",
"............XXXX",
"............XXXX",
"............XXXX",
"............XXXX",
"............XXXX",
"............XXXX",
"............XXXX",
"............XXXX",
"............XXXX",
"............XXXX",
"............XXXX",
"............XXXX",
"............XXXX",
"............XXXX",
"............XXXX",
"............XXXX",
"............XXXX",
"............XXXX",
"............XXXX",
"............XXXX",
"............XXXX"
};
