<?xml version="1.0" encoding="UTF-8" standalone="no"?>
<svg
   width="1920"
   height="4880"
   version="1.1"
   viewBox="0 0 1920 4880"
   id="svg131"
   sodipodi:docname="background.svg"
   inkscape:version="1.2.2 (b0a8486541, 2022-12-01)"
   xmlns:inkscape="http://www.inkscape.org/namespaces/inkscape"
   xmlns:sodipodi="http://sodipodi.sourceforge.net/DTD/sodipodi-0.dtd"
   xmlns="http://www.w3.org/2000/svg"
   xmlns:svg="http://www.w3.org/2000/svg">
  <sodipodi:namedview
     id="namedview133"
     pagecolor="#ffffff"
     bordercolor="#666666"
     borderopacity="1.0"
     inkscape:showpageshadow="2"
     inkscape:pageopacity="0.0"
     inkscape:pagecheckerboard="0"
     inkscape:deskcolor="#d1d1d1"
     showgrid="false"
     inkscape:zoom="0.19344262"
     inkscape:cx="1636.1441"
     inkscape:cy="3939.1525"
     inkscape:window-width="1920"
     inkscape:window-height="1012"
     inkscape:window-x="0"
     inkscape:window-y="32"
     inkscape:window-maximized="1"
     inkscape:current-layer="svg131" />
  <defs
     id="defs5">
    <clipPath
       id="clipPath840">
      <rect
         width="508"
         height="285.75"
         fill="#d9d9d9"
         stroke-linecap="round"
         stroke-linejoin="round"
         stroke-width=".25702"
         style="paint-order:stroke fill markers"
         id="rect2" />
    </clipPath>
  </defs>
  <rect
     x="-200"
     y="1164.1"
     width="2320"
     height="1280"
     rx=".99553"
     ry=".97458"
     fill="#333333"
     stop-color="#000000"
     stroke-linecap="round"
     stroke-linejoin="round"
     stroke-width="3.94"
     style="paint-order:normal"
     id="rect7" />
  <rect
     x="-200"
     y="-115.95"
     width="2320"
     height="1280"
     rx=".99553"
     ry=".97458"
     fill="#e6e6e6"
     stop-color="#000000"
     stroke-linecap="round"
     stroke-linejoin="round"
     stroke-width="3.94"
     style="paint-order:normal"
     id="rect9" />
  <g
     id="background-Light">
    <rect
       x="-1.04e-5"
       width="1920"
       height="1080"
       fill="none"
       stroke-width="3.7795"
       id="rect11" />
    <g
       transform="matrix(3.7795 0 0 3.7795 -1.04e-5 0)"
       clip-path="url(#clipPath840)"
       stroke-linecap="round"
       id="g37">
      <path
         d="m-7.6006 15.795 4.2995 117.1s40.16 36.159 72.331 42.981c40.942 8.6817 77.898-8.3162 115.82-1.7751 41.573 7.17 54.4 37.754 114.76 50.966 29.496 6.4568 77.227-9.5086 116.95 0.7214 33.569 8.645 60.777 28.82 85.249 33.521 10.263 1.9718 30.711 2.2061 30.711 2.2061l-0.78962-75.919c-11.676 2.0924-29.667 3.8049-49.158 0.0171-31.698-6.16-36.835-24.095-69.984-27.146-6.9288-0.63781-14.697 0.45586-22.922 2.1978-21.844 6.7156-43.805 13.928-73.144 9.4382-57.74-8.8359-73.392-44.639-119.64-58.48-50.718-15.18-83.915 3.231-131-24.741-34.742-20.641-64.81-59.338-73.482-71.088z"
         color="#000000"
         fill="#ffffff"
         opacity=".5"
         stroke-width="1.0583"
         style="-inkscape-stroke:none"
         id="path13" />
      <path
         id="path15"
         style="-inkscape-stroke:none;fill:#333333"
         d="M 528.91008 -136.25004 L -13.539838 -131.58776 L -3.8209805 133.1422 L -3.6530309 133.29258 C -3.6530309 133.29258 6.4085896 142.35176 20.496576 152.26365 C 34.584561 162.17524 52.692863 172.95727 68.920846 176.39827 C 110.06281 185.12246 147.04665 168.1216 184.76062 174.62679 C 205.43159 178.19189 218.94261 187.56819 234.90159 197.76818 C 250.86057 207.96817 269.24163 218.96588 299.4976 225.58788 C 314.39259 228.84857 333.72588 226.44752 354.30086 224.54297 C 374.87584 222.63842 396.68184 221.21904 416.42982 226.30463 C 449.87278 234.91722 477.03505 255.09203 501.71102 259.83203 C 512.09401 261.82693 532.51557 262.04845 532.51557 262.04845 L 533.05662 262.05465 L 533.05094 261.51359 L 528.91008 -136.25004 z M 527.86104 -135.18136 L 531.19884 185.68253 C 531.3676 185.65291 531.56387 185.62601 531.73008 185.59623 L 532.5197 261.51514 C 532.5197 261.51514 512.07168 261.28086 501.80869 259.30906 C 477.33672 254.60807 450.12901 234.43337 416.56004 225.78838 C 376.83708 215.55839 329.10571 231.52377 299.60974 225.06697 C 239.2498 211.85499 226.42297 181.27071 184.85002 174.10072 C 146.92805 167.55963 109.97184 184.55751 69.029884 175.87582 C 36.858917 169.05383 -3.3011118 132.89518 -3.3011118 132.89518 L -7.6006223 15.795017 L -7.5995888 15.7945 C -7.4576574 15.986808 -7.1999676 16.318663 -7.0466469 16.52521 L -12.446873 -130.53665 L 527.86104 -135.18136 z " />
      <path
         d="m537.57 82.146 0.5178 102.16c4.5377-1.0423 7.1825-1.9131 7.1825-1.9131l-0.72708-99.669zm-100.01 69.333c-17.537 0.0785-32.685 4.5124-47.888 9.1865 8.2248-1.7418 15.993-2.8356 22.921-2.1978 33.149 3.051 38.286 20.986 69.984 27.146 21.706 4.2182 41.555 1.6199 52.876-0.73329-9.5278-6.5866-45.634-29.656-89.146-33.077-2.9856-0.23473-5.8978-0.33676-8.7468-0.32401z"
         color="#000000"
         fill="#ffffff"
         stroke-width="1.0583"
         style="-inkscape-stroke:none"
         id="path17" />
      <path
         id="path19"
         style="-inkscape-stroke:none;fill:#333333"
         d="M 537.57008 81.615252 L 537.57266 82.145973 L 544.54335 82.723719 L 545.27044 182.39278 C 545.27044 182.39278 542.62622 183.26328 538.08995 184.30534 L 538.09253 184.85156 C 542.73752 183.78946 545.43994 182.89663 545.43994 182.89663 L 545.80529 182.77571 L 545.80116 182.39123 L 545.07045 82.241058 L 537.57008 81.615252 z M 408.61008 158.28452 C 402.77706 158.2631 396.44289 159.23799 389.81109 160.63736 C 387.48742 161.34608 385.16676 162.05055 382.83421 162.76128 C 393.6252 160.18348 403.80318 158.19016 412.54217 158.99456 C 429.02515 160.51155 438.47601 165.70038 447.855 171.32878 C 457.23329 176.95677 466.53583 183.03567 482.47381 186.13367 C 504.59779 190.43306 524.78981 187.68176 536.0668 185.29133 C 535.92175 185.19009 535.67917 185.03103 535.45133 184.88102 C 524.13008 187.23412 504.28217 189.8318 482.57717 185.6138 C 450.8792 179.4538 445.74178 161.51845 412.59281 158.46745 C 411.29382 158.34786 409.96563 158.28949 408.61008 158.28452 z " />
      <path
         d="m-15.294-162.99 551.77 28.514-0.0656-12.906zm4.2354 149.88 0.71003 25.136s35.014 50.363 76.23 74.85c47.085 27.972 80.282 9.5611 131 24.741 46.248 13.841 61.9 49.644 119.64 58.48 53.078 8.122 82.01-22.056 129.78-18.301 50.803 3.994 91.798 34.942 91.798 34.942l-0.17518-34.545c-1.777-0.4526-3.4679-0.87916-6.2048-1.6025-7.6332-2.0174-36.279-19.226-60.594-26.778-42.652-13.248-85.919-0.80527-126.45-8.678-60.435-11.738-84.454-43.625-130-49.987-31.395-4.3845-66.568 7.7786-109.85-2.1451-55.32-16.542-96.821-55.448-115.88-76.113z"
         color="#000000"
         fill="#ffffff"
         opacity=".35"
         stroke-width="1.0583"
         style="-inkscape-stroke:none"
         id="path21" />
      <path
         id="path23"
         style="-inkscape-stroke:none;fill:#333333"
         d="M -15.837906 -163.53023 L -10.873315 12.210196 L -10.783397 12.340939 C -10.783397 12.340939 24.234505 62.760134 65.611463 87.343109 C 89.24444 101.3831 109.44779 103.79308 130.00077 104.58508 C 150.55375 105.37708 171.45854 104.57148 196.73051 112.13558 C 219.75049 119.02487 235.15983 131.38143 252.08981 143.18042 C 269.0198 154.97841 287.47242 166.19866 316.44139 170.63166 C 343.09137 174.70965 363.70667 169.16584 383.55665 163.10234 C 403.40763 157.03885 422.49376 150.46645 446.25974 152.33445 C 496.87169 156.31344 537.7804 187.17237 537.7804 187.17237 L 538.6341 187.81678 L 538.62842 186.74655 L 536.9329 -147.88352 L -15.837906 -163.53023 z M -15.293749 -162.99021 L 536.41045 -147.38174 L 536.47608 -134.47598 L 535.94432 -134.50337 L 537.39489 152.05643 C 537.54587 152.09484 537.77253 152.15426 537.92406 152.19285 L 538.09925 186.73777 C 538.09925 186.73777 497.10455 155.78997 446.3016 151.79598 C 398.53164 148.04098 369.59944 178.21879 316.52149 170.0968 C 258.78155 161.26081 243.12936 125.45824 196.88141 111.61726 C 146.16346 96.437372 112.96617 114.84792 65.881216 86.875951 C 24.665258 62.388975 -10.348795 12.026227 -10.348795 12.026227 L -11.058834 -13.10989 L -11.0547 -13.110406 C -10.885809 -12.927283 -10.68347 -12.718103 -10.51106 -12.532143 L -14.748042 -162.44192 L 7.4905562 -161.81301 L -15.293749 -162.99021 z " />
      <path
         d="m-15.294-162.99-7.3742 136.39s50.481 66.573 127.49 89.603c43.282 9.9237 78.455-2.2394 109.85 2.1451 45.546 6.362 69.565 38.249 130 49.987 40.531 7.8728 83.798-4.57 126.45 8.678 24.315 7.552 52.961 24.761 60.594 26.778 7.6333 2.0174 11.58 2.9569 11.58 2.9569l2.9388-41.765c-8.6568-0.32821-36.287-2.2185-70.299-13.421-40.51-13.343-65.505-29.642-97.792-39.995-51.284-16.445-93.642-0.59382-141.48-9.2496-74.961-13.564-100.84-74.329-146.66-101.8-54.993-32.964-102.43-24.775-102.43-24.775l-2.282-71.214 517.48 12.45zm576.3 29.782-5.1811 108.72 7.6414-108.59z"
         color="#000000"
         fill="#ffffff"
         opacity=".75"
         stroke-width="1.0583"
         style="-inkscape-stroke:none"
         id="path25" />
      <path
         id="path27"
         style="-inkscape-stroke:none;fill:#333333"
         d="M -15.792947 -163.54005 L -23.207019 -26.419769 L -23.089712 -26.265772 C -23.089712 -26.265772 27.453423 40.431224 104.67035 63.523201 L 104.68792 63.529402 L 104.70342 63.533019 C 148.13738 73.491709 183.39149 61.326963 214.60346 65.685359 C 237.26943 68.851355 254.58718 78.371651 273.84317 88.607641 C 293.09915 98.84363 314.28124 109.78421 344.57321 115.6682 C 385.27617 123.57429 428.50236 111.14432 470.96332 124.3344 C 483.06831 128.0941 496.29244 134.2733 507.44043 139.7682 C 513.01402 142.5155 518.06728 145.08997 522.21328 147.10837 C 526.35927 149.12677 529.56977 150.58698 531.57867 151.11798 C 539.21626 153.13647 543.17236 154.07906 543.17236 154.07906 L 543.77801 154.22324 L 543.82297 153.60053 L 564.02964 -133.56957 L -15.792947 -163.54005 z M -15.293749 -162.99021 L 502.77143 -136.22162 L 483.21538 -136.69188 L 560.9807 -132.67349 L 561.00603 -133.20783 L 563.46636 -133.07812 L 555.82491 -24.48809 L 556.92408 -47.549899 L 545.71331 111.75627 C 545.86003 111.76229 546.09749 111.77794 546.23473 111.78314 L 543.29587 153.54782 C 543.29587 153.54782 539.3489 152.60827 531.71561 150.59087 C 524.08262 148.57387 495.43694 131.36498 471.12197 123.81298 C 428.47001 110.565 385.20288 123.00769 344.67192 115.1349 C 284.23698 103.39691 260.21762 71.509913 214.67167 65.14792 C 183.2767 60.763424 148.10372 72.926505 104.82176 63.002815 C 27.812836 39.972838 -22.66803 -26.600121 -22.66803 -26.600121 L -15.293749 -162.99021 z " />
      <path
         d="m-14.704-148.66 2.282 71.214s47.437-8.1893 102.43 24.775c45.82 27.471 71.699 88.236 146.66 101.8 47.838 8.6557 90.196-7.1954 141.48 9.2496 32.287 10.353 57.282 26.652 97.792 39.995 41.136 13.549 73.39 13.516 73.39 13.516l2.2345-46.893c-7.3929-1.8585-19.188-5.0047-25.663-7.7091-9.8522-4.1146-32.68-14.871-54.483-21.887-30.63-9.8574-68.317-5.7996-103.27-11.527-45.175-7.4016-79.837-25.061-91.939-35.185-22.152-18.533-31.647-42.896-31.647-42.896l-10.083-48.643 325.16-1.5441 1.4495-30.412z"
         color="#000000"
         fill="#ffffff"
         opacity=".55"
         stroke-width="1.0583"
         style="-inkscape-stroke:none"
         id="path29" />
      <path
         id="path31"
         style="-inkscape-stroke:none;fill:#333333"
         d="M -15.249824 -149.21007 L -12.931602 -76.828946 L -12.332151 -76.932299 C -12.332151 -76.932299 34.89187 -85.098617 89.737815 -52.22355 C 112.53779 -38.553563 130.44922 -16.52948 152.04919 3.8215 C 173.64917 24.17248 198.96996 42.837266 236.57592 49.64126 C 284.57887 58.326851 326.87894 42.484955 377.98589 58.873838 C 410.19486 69.201828 435.20499 85.505085 475.77495 98.868071 C 516.98891 112.44206 549.33017 112.41101 549.33017 112.41101 L 549.83402 112.41101 L 549.85934 111.90716 L 561.6401 -135.33278 L -15.249824 -149.21007 z M -14.704117 -148.66023 L 561.08923 -134.80671 L 559.63969 -104.39439 L 559.10639 -104.39181 L 551.04119 64.861113 C 551.20059 64.901353 551.40908 64.957392 551.56467 64.996507 L 549.33017 111.88959 C 549.33017 111.88959 517.07576 111.92251 475.9398 98.373524 C 435.42984 85.030537 410.43512 68.731764 378.14815 58.378774 C 326.86421 41.933791 284.50585 57.784834 236.6679 49.129142 C 161.70698 35.565156 135.82804 -25.200098 90.008085 -52.671071 C 35.01514 -85.635338 -12.422069 -77.445967 -12.422069 -77.445967 L -14.704117 -148.66023 z " />
      <path
         d="m558.15 66.601s-22.397-5.2033-32.249-9.3179c-9.8522-4.1146-32.68-14.871-54.483-21.887-30.63-9.8574-68.317-5.7996-103.27-11.527-45.175-7.4016-79.837-25.061-91.939-35.185-22.152-18.533-31.647-42.896-31.647-42.896l-10.083-48.643 340.06-1.6146z"
         color="#000000"
         fill="#ffffff"
         stroke-width="1.0583"
         style="-inkscape-stroke:none"
         id="path33" />
      <path
         id="path35"
         style="-inkscape-stroke:none;fill:#333333"
         d="M 575.12 -105.00004 L 233.82981 -103.37894 L 244.05304 -54.06066 L 244.06854 -54.017769 C 244.06854 -54.017769 253.59924 -29.539956 275.86941 -10.908974 C 288.1204 -0.65998465 322.79744 16.974978 368.06239 24.391971 C 403.11436 30.135665 440.78674 26.094089 471.25271 35.899879 C 493.00769 42.900572 515.80772 53.644126 525.69371 57.773122 C 535.6625 61.936518 558.02582 67.116806 558.02582 67.116806 L 558.61546 67.25375 L 558.67178 66.652232 L 575.12 -105.00004 z M 574.53915 -104.46932 L 558.14985 66.601072 C 558.14985 66.601072 535.75293 61.397822 525.90094 57.283226 C 516.04875 53.16863 493.22105 42.412023 471.41808 35.39603 C 440.78811 25.53864 403.10114 29.596396 368.14817 23.869001 C 322.97322 16.467409 288.31092 -1.191681 276.20893 -11.315671 C 254.05695 -29.848652 244.56205 -54.212073 244.56205 -54.212073 L 234.47887 -102.85494 L 574.53915 -104.46932 z " />
    </g>
  </g>
  <g
     id="background-Dark">
    <rect
       x="-1.04e-5"
       y="1240"
       width="1920"
       height="1080"
       fill="none"
       stroke-width="3.7795"
       id="rect40" />
    <g
       transform="matrix(3.7795 0 0 3.7795 -1.04e-5 1240)"
       clip-path="url(#clipPath840)"
       stroke-linecap="round"
       id="g66">
      <path
         d="m-7.6006 15.795 4.2995 117.1s40.16 36.159 72.331 42.981c40.942 8.6817 77.898-8.3162 115.82-1.7751 41.573 7.17 54.4 37.754 114.76 50.966 29.496 6.4568 77.227-9.5086 116.95 0.7214 33.569 8.645 60.777 28.82 85.249 33.521 10.263 1.9718 30.711 2.2061 30.711 2.2061l-0.78962-75.919c-11.676 2.0924-29.667 3.8049-49.158 0.0171-31.698-6.16-36.835-24.095-69.984-27.146-6.9288-0.63781-14.697 0.45586-22.922 2.1978-21.844 6.7156-43.805 13.928-73.144 9.4382-57.74-8.8359-73.392-44.639-119.64-58.48-50.718-15.18-83.915 3.231-131-24.741-34.742-20.641-64.81-59.338-73.482-71.088z"
         color="#000000"
         fill="#ffffff"
         opacity=".1"
         stroke-width="1.0583"
         style="-inkscape-stroke:none"
         id="path42" />
      <path
         id="path44"
         style="-inkscape-stroke:none;fill:#e0e0e0;fill-opacity:1"
         d="M 528.91008 -136.25004 L -13.539838 -131.58776 L -3.8209805 133.1422 L -3.6530309 133.29258 C -3.6530309 133.29258 6.4085896 142.35176 20.496576 152.26365 C 34.584561 162.17524 52.692863 172.95727 68.920846 176.39827 C 110.06281 185.12246 147.04665 168.1216 184.76062 174.62679 C 205.43159 178.19189 218.94261 187.56819 234.90159 197.76818 C 250.86057 207.96817 269.24163 218.96588 299.4976 225.58788 C 314.39259 228.84857 333.72588 226.44752 354.30086 224.54297 C 374.87584 222.63842 396.68184 221.21904 416.42982 226.30463 C 449.87278 234.91722 477.03505 255.09203 501.71102 259.83203 C 512.09401 261.82693 532.51557 262.04845 532.51557 262.04845 L 533.05662 262.05465 L 533.05094 261.51359 L 528.91008 -136.25004 z M 527.86104 -135.18136 L 531.19884 185.68253 C 531.3676 185.65291 531.56387 185.62601 531.73008 185.59623 L 532.5197 261.51514 C 532.5197 261.51514 512.07168 261.28086 501.80869 259.30906 C 477.33672 254.60807 450.12901 234.43337 416.56004 225.78838 C 376.83708 215.55839 329.10571 231.52377 299.60974 225.06697 C 239.2498 211.85499 226.42297 181.27071 184.85002 174.10072 C 146.92805 167.55963 109.97184 184.55751 69.029884 175.87582 C 36.858917 169.05383 -3.3011118 132.89518 -3.3011118 132.89518 L -7.6006223 15.795017 L -7.5995888 15.7945 C -7.4576574 15.986808 -7.1999676 16.318663 -7.0466469 16.52521 L -12.446873 -130.53665 L 527.86104 -135.18136 z " />
      <path
         d="m537.57 82.146 0.5178 102.16c4.5377-1.0423 7.1825-1.9131 7.1825-1.9131l-0.72708-99.669zm-100.01 69.333c-17.537 0.0785-32.685 4.5124-47.888 9.1865 8.2248-1.7418 15.993-2.8356 22.921-2.1978 33.149 3.051 38.286 20.986 69.984 27.146 21.706 4.2182 41.555 1.6199 52.876-0.73329-9.5278-6.5866-45.634-29.656-89.146-33.077-2.9856-0.23473-5.8978-0.33676-8.7468-0.32401z"
         color="#000000"
         fill="#000000"
         opacity=".1"
         stroke-width="1.0583"
         style="-inkscape-stroke:none"
         id="path46" />
      <path
         id="path48"
         style="-inkscape-stroke:none;fill:#e0e0e0;fill-opacity:1"
         d="M 537.57008 81.615252 L 537.57266 82.145973 L 544.54335 82.723719 L 545.27044 182.39278 C 545.27044 182.39278 542.62622 183.26328 538.08995 184.30534 L 538.09253 184.85156 C 542.73752 183.78946 545.43994 182.89663 545.43994 182.89663 L 545.80529 182.77571 L 545.80116 182.39123 L 545.07045 82.241058 L 537.57008 81.615252 z M 408.61008 158.28452 C 402.77706 158.2631 396.44289 159.23799 389.81109 160.63736 C 387.48742 161.34608 385.16676 162.05055 382.83421 162.76128 C 393.6252 160.18348 403.80318 158.19016 412.54217 158.99456 C 429.02515 160.51155 438.47601 165.70038 447.855 171.32878 C 457.23329 176.95677 466.53583 183.03567 482.47381 186.13367 C 504.59779 190.43306 524.78981 187.68176 536.0668 185.29133 C 535.92175 185.19009 535.67917 185.03103 535.45133 184.88102 C 524.13008 187.23412 504.28217 189.8318 482.57717 185.6138 C 450.8792 179.4538 445.74178 161.51845 412.59281 158.46745 C 411.29382 158.34786 409.96563 158.28949 408.61008 158.28452 z " />
      <path
         d="m-15.294-162.99 551.77 28.514-0.0656-12.906zm4.2354 149.88 0.71003 25.136s35.014 50.363 76.23 74.85c47.085 27.972 80.282 9.5611 131 24.741 46.248 13.841 61.9 49.644 119.64 58.48 53.078 8.122 82.01-22.056 129.78-18.301 50.803 3.994 91.798 34.942 91.798 34.942l-0.17518-34.545c-1.777-0.4526-3.4679-0.87916-6.2048-1.6025-7.6332-2.0174-36.279-19.226-60.594-26.778-42.652-13.248-85.919-0.80527-126.45-8.678-60.435-11.738-84.454-43.625-130-49.987-31.395-4.3845-66.568 7.7786-109.85-2.1451-55.32-16.542-96.821-55.448-115.88-76.113z"
         color="#000000"
         fill="#ffffff"
         opacity=".01"
         stroke-width="1.0583"
         style="-inkscape-stroke:none"
         id="path50" />
      <path
         id="path52"
         style="-inkscape-stroke:none;fill:#e0e0e0;fill-opacity:1"
         d="M -15.837906 -163.53023 L -10.873315 12.210196 L -10.783397 12.340939 C -10.783397 12.340939 24.234505 62.760134 65.611463 87.343109 C 89.24444 101.3831 109.44779 103.79308 130.00077 104.58508 C 150.55375 105.37708 171.45854 104.57148 196.73051 112.13558 C 219.75049 119.02487 235.15983 131.38143 252.08981 143.18042 C 269.0198 154.97841 287.47242 166.19866 316.44139 170.63166 C 343.09137 174.70965 363.70667 169.16584 383.55665 163.10234 C 403.40763 157.03885 422.49376 150.46645 446.25974 152.33445 C 496.87169 156.31344 537.7804 187.17237 537.7804 187.17237 L 538.6341 187.81678 L 538.62842 186.74655 L 536.9329 -147.88352 L -15.837906 -163.53023 z M -15.293749 -162.99021 L 536.41045 -147.38174 L 536.47608 -134.47598 L 535.94432 -134.50337 L 537.39489 152.05643 C 537.54587 152.09484 537.77253 152.15426 537.92406 152.19285 L 538.09925 186.73777 C 538.09925 186.73777 497.10455 155.78997 446.3016 151.79598 C 398.53164 148.04098 369.59944 178.21879 316.52149 170.0968 C 258.78155 161.26081 243.12936 125.45824 196.88141 111.61726 C 146.16346 96.437372 112.96617 114.84792 65.881216 86.875951 C 24.665258 62.388975 -10.348795 12.026227 -10.348795 12.026227 L -11.058834 -13.10989 L -11.0547 -13.110406 C -10.885809 -12.927283 -10.68347 -12.718103 -10.51106 -12.532143 L -14.748042 -162.44192 L 7.4905562 -161.81301 L -15.293749 -162.99021 z " />
      <path
         d="m-15.294-162.99-7.3742 136.39s50.481 66.573 127.49 89.603c43.282 9.9237 78.455-2.2394 109.85 2.1451 45.546 6.362 69.565 38.249 130 49.987 40.531 7.8728 83.798-4.57 126.45 8.678 24.315 7.552 52.961 24.761 60.594 26.778 7.6333 2.0174 11.58 2.9569 11.58 2.9569l2.9388-41.765c-8.6568-0.32821-36.287-2.2185-70.299-13.421-40.51-13.343-65.505-29.642-97.792-39.995-51.284-16.445-93.642-0.59382-141.48-9.2496-74.961-13.564-100.84-74.329-146.66-101.8-54.993-32.964-102.43-24.775-102.43-24.775l-2.282-71.214 517.48 12.45zm576.3 29.782-5.1811 108.72 7.6414-108.59z"
         color="#000000"
         fill="#ffffff"
         opacity=".08"
         stroke-width="1.0583"
         style="-inkscape-stroke:none"
         id="path54" />
      <path
         id="path56"
         style="-inkscape-stroke:none;fill:#e0e0e0;fill-opacity:1"
         d="M -15.792947 -163.54005 L -23.207019 -26.419769 L -23.089712 -26.265772 C -23.089712 -26.265772 27.453423 40.431224 104.67035 63.523201 L 104.68792 63.529402 L 104.70342 63.533019 C 148.13738 73.491709 183.39149 61.326963 214.60346 65.685359 C 237.26943 68.851355 254.58718 78.371651 273.84317 88.607641 C 293.09915 98.84363 314.28124 109.78421 344.57321 115.6682 C 385.27617 123.57429 428.50236 111.14432 470.96332 124.3344 C 483.06831 128.0941 496.29244 134.2733 507.44043 139.7682 C 513.01402 142.5155 518.06728 145.08997 522.21328 147.10837 C 526.35927 149.12677 529.56977 150.58698 531.57867 151.11798 C 539.21626 153.13647 543.17236 154.07906 543.17236 154.07906 L 543.77801 154.22324 L 543.82297 153.60053 L 564.02964 -133.56957 L -15.792947 -163.54005 z M -15.293749 -162.99021 L 502.77143 -136.22162 L 483.21538 -136.69188 L 560.9807 -132.67349 L 561.00603 -133.20783 L 563.46636 -133.07812 L 555.82491 -24.48809 L 556.92408 -47.549899 L 545.71331 111.75627 C 545.86003 111.76229 546.09749 111.77794 546.23473 111.78314 L 543.29587 153.54782 C 543.29587 153.54782 539.3489 152.60827 531.71561 150.59087 C 524.08262 148.57387 495.43694 131.36498 471.12197 123.81298 C 428.47001 110.565 385.20288 123.00769 344.67192 115.1349 C 284.23698 103.39691 260.21762 71.509913 214.67167 65.14792 C 183.2767 60.763424 148.10372 72.926505 104.82176 63.002815 C 27.812836 39.972838 -22.66803 -26.600121 -22.66803 -26.600121 L -15.293749 -162.99021 z " />
      <path
         d="m-14.704-148.66 2.282 71.214s47.437-8.1893 102.43 24.775c45.82 27.471 71.699 88.236 146.66 101.8 47.838 8.6557 90.196-7.1954 141.48 9.2496 32.287 10.353 57.282 26.652 97.792 39.995 41.136 13.549 73.39 13.516 73.39 13.516l2.2345-46.893c-7.3929-1.8585-19.188-5.0047-25.663-7.7091-9.8522-4.1146-32.68-14.871-54.483-21.887-30.63-9.8574-68.317-5.7996-103.27-11.527-45.175-7.4016-79.837-25.061-91.939-35.185-22.152-18.533-31.647-42.896-31.647-42.896l-10.083-48.643 325.16-1.5441 1.4495-30.412z"
         color="#000000"
         fill="#ffffff"
         opacity=".03"
         stroke-width="1.0583"
         style="-inkscape-stroke:none"
         id="path58" />
      <path
         id="path60"
         style="-inkscape-stroke:none;fill:#e0e0e0;fill-opacity:1"
         d="M -15.249824 -149.21007 L -12.931602 -76.828946 L -12.332151 -76.932299 C -12.332151 -76.932299 34.89187 -85.098617 89.737815 -52.22355 C 112.53779 -38.553563 130.44922 -16.52948 152.04919 3.8215 C 173.64917 24.17248 198.96996 42.837266 236.57592 49.64126 C 284.57887 58.326851 326.87894 42.484955 377.98589 58.873838 C 410.19486 69.201828 435.20499 85.505085 475.77495 98.868071 C 516.98891 112.44206 549.33017 112.41101 549.33017 112.41101 L 549.83402 112.41101 L 549.85934 111.90716 L 561.6401 -135.33278 L -15.249824 -149.21007 z M -14.704117 -148.66023 L 561.08923 -134.80671 L 559.63969 -104.39439 L 559.10639 -104.39181 L 551.04119 64.861113 C 551.20059 64.901353 551.40908 64.957392 551.56467 64.996507 L 549.33017 111.88959 C 549.33017 111.88959 517.07576 111.92251 475.9398 98.373524 C 435.42984 85.030537 410.43512 68.731764 378.14815 58.378774 C 326.86421 41.933791 284.50585 57.784834 236.6679 49.129142 C 161.70698 35.565156 135.82804 -25.200098 90.008085 -52.671071 C 35.01514 -85.635338 -12.422069 -77.445967 -12.422069 -77.445967 L -14.704117 -148.66023 z " />
      <path
         d="m558.15 66.601s-22.397-5.2033-32.249-9.3179c-9.8522-4.1146-32.68-14.871-54.483-21.887-30.63-9.8574-68.317-5.7996-103.27-11.527-45.175-7.4016-79.837-25.061-91.939-35.185-22.152-18.533-31.647-42.896-31.647-42.896l-10.083-48.643 340.06-1.6146z"
         color="#000000"
         fill="#ffffff"
         opacity=".15"
         stroke-width="1.0583"
         style="-inkscape-stroke:none"
         id="path62" />
      <path
         id="path64"
         style="-inkscape-stroke:none;fill:#e0e0e0;fill-opacity:1"
         d="M 575.12 -105.00004 L 233.82981 -103.37894 L 244.05304 -54.06066 L 244.06854 -54.017769 C 244.06854 -54.017769 253.59924 -29.539956 275.86941 -10.908974 C 288.1204 -0.65998465 322.79744 16.974978 368.06239 24.391971 C 403.11436 30.135665 440.78674 26.094089 471.25271 35.899879 C 493.00769 42.900572 515.80772 53.644126 525.69371 57.773122 C 535.6625 61.936518 558.02582 67.116806 558.02582 67.116806 L 558.61546 67.25375 L 558.67178 66.652232 L 575.12 -105.00004 z M 574.53915 -104.46932 L 558.14985 66.601072 C 558.14985 66.601072 535.75293 61.397822 525.90094 57.283226 C 516.04875 53.16863 493.22105 42.412023 471.41808 35.39603 C 440.78811 25.53864 403.10114 29.596396 368.14817 23.869001 C 322.97322 16.467409 288.31092 -1.191681 276.20893 -11.315671 C 254.05695 -29.848652 244.56205 -54.212073 244.56205 -54.212073 L 234.47887 -102.85494 L 574.53915 -104.46932 z " />
    </g>
  </g>
  <rect
     x="-200"
     y="3724.1"
     width="2320"
     height="1280"
     rx=".99553"
     ry=".97458"
     fill="#2f3541"
     stop-color="#000000"
     stroke-linecap="round"
     stroke-linejoin="round"
     stroke-width="3.94"
     style="paint-order:normal"
     id="rect69" />
  <rect
     x="-200"
     y="2444.1"
     width="2320"
     height="1280"
     rx=".99553"
     ry=".97458"
     fill="#d3d7df"
     stop-color="#000000"
     stroke-linecap="round"
     stroke-linejoin="round"
     stroke-width="3.94"
     style="paint-order:normal"
     id="rect71" />
  <g
     id="background-Light-nord">
    <rect
       x="-1.04e-5"
       y="2560"
       width="1920"
       height="1080"
       fill="none"
       stroke-width="3.7795"
       id="rect73" />
    <g
       transform="matrix(3.7795 0 0 3.7795 -1.04e-5 2560)"
       clip-path="url(#clipPath840)"
       stroke-linecap="round"
       id="g99">
      <path
         d="m-7.6006 15.795 4.2995 117.1s40.16 36.159 72.331 42.981c40.942 8.6817 77.898-8.3162 115.82-1.7751 41.573 7.17 54.4 37.754 114.76 50.966 29.496 6.4568 77.227-9.5086 116.95 0.7214 33.569 8.645 60.777 28.82 85.249 33.521 10.263 1.9718 30.711 2.2061 30.711 2.2061l-0.78962-75.919c-11.676 2.0924-29.667 3.8049-49.158 0.0171-31.698-6.16-36.835-24.095-69.984-27.146-6.9288-0.63781-14.697 0.45586-22.922 2.1978-21.844 6.7156-43.805 13.928-73.144 9.4382-57.74-8.8359-73.392-44.639-119.64-58.48-50.718-15.18-83.915 3.231-131-24.741-34.742-20.641-64.81-59.338-73.482-71.088z"
         color="#000000"
         fill="#ffffff"
         opacity=".42"
         stroke-width="1.0583"
         style="-inkscape-stroke:none"
         id="path75" />
      <path
         id="path77"
         style="-inkscape-stroke:none;fill:#2b303b;fill-opacity:1"
         d="M 528.91008 -136.25004 L -13.539838 -131.58776 L -3.8209805 133.1422 L -3.6530309 133.29258 C -3.6530309 133.29258 6.4085896 142.35176 20.496576 152.26365 C 34.584561 162.17524 52.692863 172.95727 68.920846 176.39827 C 110.06281 185.12246 147.04665 168.1216 184.76062 174.62679 C 205.43159 178.19189 218.94261 187.56819 234.90159 197.76818 C 250.86057 207.96817 269.24163 218.96588 299.4976 225.58788 C 314.39259 228.84857 333.72588 226.44752 354.30086 224.54297 C 374.87584 222.63842 396.68184 221.21904 416.42982 226.30463 C 449.87278 234.91722 477.03505 255.09203 501.71102 259.83203 C 512.09401 261.82693 532.51557 262.04845 532.51557 262.04845 L 533.05662 262.05465 L 533.05094 261.51359 L 528.91008 -136.25004 z M 527.86104 -135.18136 L 531.19884 185.68253 C 531.3676 185.65291 531.56387 185.62601 531.73008 185.59623 L 532.5197 261.51514 C 532.5197 261.51514 512.07168 261.28086 501.80869 259.30906 C 477.33672 254.60807 450.12901 234.43337 416.56004 225.78838 C 376.83708 215.55839 329.10571 231.52377 299.60974 225.06697 C 239.2498 211.85499 226.42297 181.27071 184.85002 174.10072 C 146.92805 167.55963 109.97184 184.55751 69.029884 175.87582 C 36.858917 169.05383 -3.3011118 132.89518 -3.3011118 132.89518 L -7.6006223 15.795017 L -7.5995888 15.7945 C -7.4576574 15.986808 -7.1999676 16.318663 -7.0466469 16.52521 L -12.446873 -130.53665 L 527.86104 -135.18136 z " />
      <path
         d="m537.57 82.146 0.5178 102.16c4.5377-1.0423 7.1825-1.9131 7.1825-1.9131l-0.72708-99.669zm-100.01 69.333c-17.537 0.0785-32.685 4.5124-47.888 9.1865 8.2248-1.7418 15.993-2.8356 22.921-2.1978 33.149 3.051 38.286 20.986 69.984 27.146 21.706 4.2182 41.555 1.6199 52.876-0.73329-9.5278-6.5866-45.634-29.656-89.146-33.077-2.9856-0.23473-5.8978-0.33676-8.7468-0.32401z"
         color="#000000"
         fill="#ffffff"
         opacity=".86"
         stroke-width="1.0583"
         style="-inkscape-stroke:none"
         id="path79" />
      <path
         id="path81"
         style="-inkscape-stroke:none;fill:#2b303b;fill-opacity:1"
         d="M 537.57008 81.615252 L 537.57266 82.145973 L 544.54335 82.723719 L 545.27044 182.39278 C 545.27044 182.39278 542.62622 183.26328 538.08995 184.30534 L 538.09253 184.85156 C 542.73752 183.78946 545.43994 182.89663 545.43994 182.89663 L 545.80529 182.77571 L 545.80116 182.39123 L 545.07045 82.241058 L 537.57008 81.615252 z M 408.61008 158.28452 C 402.77706 158.2631 396.44289 159.23799 389.81109 160.63736 C 387.48742 161.34608 385.16676 162.05055 382.83421 162.76128 C 393.6252 160.18348 403.80318 158.19016 412.54217 158.99456 C 429.02515 160.51155 438.47601 165.70038 447.855 171.32878 C 457.23329 176.95677 466.53583 183.03567 482.47381 186.13367 C 504.59779 190.43306 524.78981 187.68176 536.0668 185.29133 C 535.92175 185.19009 535.67917 185.03103 535.45133 184.88102 C 524.13008 187.23412 504.28217 189.8318 482.57717 185.6138 C 450.8792 179.4538 445.74178 161.51845 412.59281 158.46745 C 411.29382 158.34786 409.96563 158.28949 408.61008 158.28452 z " />
      <path
         d="m-15.294-162.99 551.77 28.514-0.0656-12.906zm4.2354 149.88 0.71003 25.136s35.014 50.363 76.23 74.85c47.085 27.972 80.282 9.5611 131 24.741 46.248 13.841 61.9 49.644 119.64 58.48 53.078 8.122 82.01-22.056 129.78-18.301 50.803 3.994 91.798 34.942 91.798 34.942l-0.17518-34.545c-1.777-0.4526-3.4679-0.87916-6.2048-1.6025-7.6332-2.0174-36.279-19.226-60.594-26.778-42.652-13.248-85.919-0.80527-126.45-8.678-60.435-11.738-84.454-43.625-130-49.987-31.395-4.3845-66.568 7.7786-109.85-2.1451-55.32-16.542-96.821-55.448-115.88-76.113z"
         color="#000000"
         fill="#ffffff"
         opacity=".35"
         stroke-width="1.0583"
         style="-inkscape-stroke:none"
         id="path83" />
      <path
         id="path85"
         style="-inkscape-stroke:none;fill:#2b303b;fill-opacity:1"
         d="M -15.837906 -163.53023 L -10.873315 12.210196 L -10.783397 12.340939 C -10.783397 12.340939 24.234505 62.760134 65.611463 87.343109 C 89.24444 101.3831 109.44779 103.79308 130.00077 104.58508 C 150.55375 105.37708 171.45854 104.57148 196.73051 112.13558 C 219.75049 119.02487 235.15983 131.38143 252.08981 143.18042 C 269.0198 154.97841 287.47242 166.19866 316.44139 170.63166 C 343.09137 174.70965 363.70667 169.16584 383.55665 163.10234 C 403.40763 157.03885 422.49376 150.46645 446.25974 152.33445 C 496.87169 156.31344 537.7804 187.17237 537.7804 187.17237 L 538.6341 187.81678 L 538.62842 186.74655 L 536.9329 -147.88352 L -15.837906 -163.53023 z M -15.293749 -162.99021 L 536.41045 -147.38174 L 536.47608 -134.47598 L 535.94432 -134.50337 L 537.39489 152.05643 C 537.54587 152.09484 537.77253 152.15426 537.92406 152.19285 L 538.09925 186.73777 C 538.09925 186.73777 497.10455 155.78997 446.3016 151.79598 C 398.53164 148.04098 369.59944 178.21879 316.52149 170.0968 C 258.78155 161.26081 243.12936 125.45824 196.88141 111.61726 C 146.16346 96.437372 112.96617 114.84792 65.881216 86.875951 C 24.665258 62.388975 -10.348795 12.026227 -10.348795 12.026227 L -11.058834 -13.10989 L -11.0547 -13.110406 C -10.885809 -12.927283 -10.68347 -12.718103 -10.51106 -12.532143 L -14.748042 -162.44192 L 7.4905562 -161.81301 L -15.293749 -162.99021 z " />
      <path
         d="m-15.294-162.99-7.3742 136.39s50.481 66.573 127.49 89.603c43.282 9.9237 78.455-2.2394 109.85 2.1451 45.546 6.362 69.565 38.249 130 49.987 40.531 7.8728 83.798-4.57 126.45 8.678 24.315 7.552 52.961 24.761 60.594 26.778 7.6333 2.0174 11.58 2.9569 11.58 2.9569l2.9388-41.765c-8.6568-0.32821-36.287-2.2185-70.299-13.421-40.51-13.343-65.505-29.642-97.792-39.995-51.284-16.445-93.642-0.59382-141.48-9.2496-74.961-13.564-100.84-74.329-146.66-101.8-54.993-32.964-102.43-24.775-102.43-24.775l-2.282-71.214 517.48 12.45zm576.3 29.782-5.1811 108.72 7.6414-108.59z"
         color="#000000"
         fill="#ffffff"
         opacity=".6"
         stroke-width="1.0583"
         style="-inkscape-stroke:none"
         id="path87" />
      <path
         id="path89"
         style="-inkscape-stroke:none;fill:#2b303b;fill-opacity:1"
         d="M -15.792947 -163.54005 L -23.207019 -26.419769 L -23.089712 -26.265772 C -23.089712 -26.265772 27.453423 40.431224 104.67035 63.523201 L 104.68792 63.529402 L 104.70342 63.533019 C 148.13738 73.491709 183.39149 61.326963 214.60346 65.685359 C 237.26943 68.851355 254.58718 78.371651 273.84317 88.607641 C 293.09915 98.84363 314.28124 109.78421 344.57321 115.6682 C 385.27617 123.57429 428.50236 111.14432 470.96332 124.3344 C 483.06831 128.0941 496.29244 134.2733 507.44043 139.7682 C 513.01402 142.5155 518.06728 145.08997 522.21328 147.10837 C 526.35927 149.12677 529.56977 150.58698 531.57867 151.11798 C 539.21626 153.13647 543.17236 154.07906 543.17236 154.07906 L 543.77801 154.22324 L 543.82297 153.60053 L 564.02964 -133.56957 L -15.792947 -163.54005 z M -15.293749 -162.99021 L 502.77143 -136.22162 L 483.21538 -136.69188 L 560.9807 -132.67349 L 561.00603 -133.20783 L 563.46636 -133.07812 L 555.82491 -24.48809 L 556.92408 -47.549899 L 545.71331 111.75627 C 545.86003 111.76229 546.09749 111.77794 546.23473 111.78314 L 543.29587 153.54782 C 543.29587 153.54782 539.3489 152.60827 531.71561 150.59087 C 524.08262 148.57387 495.43694 131.36498 471.12197 123.81298 C 428.47001 110.565 385.20288 123.00769 344.67192 115.1349 C 284.23698 103.39691 260.21762 71.509913 214.67167 65.14792 C 183.2767 60.763424 148.10372 72.926505 104.82176 63.002815 C 27.812836 39.972838 -22.66803 -26.600121 -22.66803 -26.600121 L -15.293749 -162.99021 z " />
      <path
         d="m-14.704-148.66 2.282 71.214s47.437-8.1893 102.43 24.775c45.82 27.471 71.699 88.236 146.66 101.8 47.838 8.6557 90.196-7.1954 141.48 9.2496 32.287 10.353 57.282 26.652 97.792 39.995 41.136 13.549 73.39 13.516 73.39 13.516l2.2345-46.893c-7.3929-1.8585-19.188-5.0047-25.663-7.7091-9.8522-4.1146-32.68-14.871-54.483-21.887-30.63-9.8574-68.317-5.7996-103.27-11.527-45.175-7.4016-79.837-25.061-91.939-35.185-22.152-18.533-31.647-42.896-31.647-42.896l-10.083-48.643 325.16-1.5441 1.4495-30.412z"
         color="#000000"
         fill="#ffffff"
         opacity=".51"
         stroke-width="1.0583"
         style="-inkscape-stroke:none"
         id="path91" />
      <path
         id="path93"
         style="-inkscape-stroke:none;fill:#2b303b;fill-opacity:1"
         d="M -15.249824 -149.21007 L -12.931602 -76.828946 L -12.332151 -76.932299 C -12.332151 -76.932299 34.89187 -85.098617 89.737815 -52.22355 C 112.53779 -38.553563 130.44922 -16.52948 152.04919 3.8215 C 173.64917 24.17248 198.96996 42.837266 236.57592 49.64126 C 284.57887 58.326851 326.87894 42.484955 377.98589 58.873838 C 410.19486 69.201828 435.20499 85.505085 475.77495 98.868071 C 516.98891 112.44206 549.33017 112.41101 549.33017 112.41101 L 549.83402 112.41101 L 549.85934 111.90716 L 561.6401 -135.33278 L -15.249824 -149.21007 z M -14.704117 -148.66023 L 561.08923 -134.80671 L 559.63969 -104.39439 L 559.10639 -104.39181 L 551.04119 64.861113 C 551.20059 64.901353 551.40908 64.957392 551.56467 64.996507 L 549.33017 111.88959 C 549.33017 111.88959 517.07576 111.92251 475.9398 98.373524 C 435.42984 85.030537 410.43512 68.731764 378.14815 58.378774 C 326.86421 41.933791 284.50585 57.784834 236.6679 49.129142 C 161.70698 35.565156 135.82804 -25.200098 90.008085 -52.671071 C 35.01514 -85.635338 -12.422069 -77.445967 -12.422069 -77.445967 L -14.704117 -148.66023 z " />
      <path
         d="m558.15 66.601s-22.397-5.2033-32.249-9.3179c-9.8522-4.1146-32.68-14.871-54.483-21.887-30.63-9.8574-68.317-5.7996-103.27-11.527-45.175-7.4016-79.837-25.061-91.939-35.185-22.152-18.533-31.647-42.896-31.647-42.896l-10.083-48.643 340.06-1.6146z"
         color="#000000"
         fill="#ffffff"
         opacity=".82"
         stroke-width="1.0583"
         style="-inkscape-stroke:none"
         id="path95" />
      <path
         id="path97"
         style="-inkscape-stroke:none;fill:#2b303b;fill-opacity:1"
         d="M 575.12 -105.00004 L 233.82981 -103.37894 L 244.05304 -54.06066 L 244.06854 -54.017769 C 244.06854 -54.017769 253.59924 -29.539956 275.86941 -10.908974 C 288.1204 -0.65998465 322.79744 16.974978 368.06239 24.391971 C 403.11436 30.135665 440.78674 26.094089 471.25271 35.899879 C 493.00769 42.900572 515.80772 53.644126 525.69371 57.773122 C 535.6625 61.936518 558.02582 67.116806 558.02582 67.116806 L 558.61546 67.25375 L 558.67178 66.652232 L 575.12 -105.00004 z M 574.53915 -104.46932 L 558.14985 66.601072 C 558.14985 66.601072 535.75293 61.397822 525.90094 57.283226 C 516.04875 53.16863 493.22105 42.412023 471.41808 35.39603 C 440.78811 25.53864 403.10114 29.596396 368.14817 23.869001 C 322.97322 16.467409 288.31092 -1.191681 276.20893 -11.315671 C 254.05695 -29.848652 244.56205 -54.212073 244.56205 -54.212073 L 234.47887 -102.85494 L 574.53915 -104.46932 z " />
    </g>
  </g>
  <g
     id="background-Dark-nord">
    <rect
       x="-1.04e-5"
       y="3800"
       width="1920"
       height="1080"
       fill="none"
       stroke-width="3.7795"
       id="rect102" />
    <g
       transform="matrix(3.7795 0 0 3.7795 -1.04e-5 3800)"
       clip-path="url(#clipPath840)"
       stroke-linecap="round"
       id="g128">
      <path
         d="m-7.6006 15.795 4.2995 117.1s40.16 36.159 72.331 42.981c40.942 8.6817 77.898-8.3162 115.82-1.7751 41.573 7.17 54.4 37.754 114.76 50.966 29.496 6.4568 77.227-9.5086 116.95 0.7214 33.569 8.645 60.777 28.82 85.249 33.521 10.263 1.9718 30.711 2.2061 30.711 2.2061l-0.78962-75.919c-11.676 2.0924-29.667 3.8049-49.158 0.0171-31.698-6.16-36.835-24.095-69.984-27.146-6.9288-0.63781-14.697 0.45586-22.922 2.1978-21.844 6.7156-43.805 13.928-73.144 9.4382-57.74-8.8359-73.392-44.639-119.64-58.48-50.718-15.18-83.915 3.231-131-24.741-34.742-20.641-64.81-59.338-73.482-71.088z"
         color="#000000"
         fill="#cce0ff"
         opacity=".1"
         stroke-width="1.0583"
         style="-inkscape-stroke:none"
         id="path104" />
      <path
         id="path106"
         style="-inkscape-stroke:none;fill:#dbdee5;fill-opacity:1"
         d="M 528.91008 -136.25004 L -13.539838 -131.58776 L -3.8209805 133.1422 L -3.6530309 133.29258 C -3.6530309 133.29258 6.4085896 142.35176 20.496576 152.26365 C 34.584561 162.17524 52.692863 172.95727 68.920846 176.39827 C 110.06281 185.12246 147.04665 168.1216 184.76062 174.62679 C 205.43159 178.19189 218.94261 187.56819 234.90159 197.76818 C 250.86057 207.96817 269.24163 218.96588 299.4976 225.58788 C 314.39259 228.84857 333.72588 226.44752 354.30086 224.54297 C 374.87584 222.63842 396.68184 221.21904 416.42982 226.30463 C 449.87278 234.91722 477.03505 255.09203 501.71102 259.83203 C 512.09401 261.82693 532.51557 262.04845 532.51557 262.04845 L 533.05662 262.05465 L 533.05094 261.51359 L 528.91008 -136.25004 z M 527.86104 -135.18136 L 531.19884 185.68253 C 531.3676 185.65291 531.56387 185.62601 531.73008 185.59623 L 532.5197 261.51514 C 532.5197 261.51514 512.07168 261.28086 501.80869 259.30906 C 477.33672 254.60807 450.12901 234.43337 416.56004 225.78838 C 376.83708 215.55839 329.10571 231.52377 299.60974 225.06697 C 239.2498 211.85499 226.42297 181.27071 184.85002 174.10072 C 146.92805 167.55963 109.97184 184.55751 69.029884 175.87582 C 36.858917 169.05383 -3.3011118 132.89518 -3.3011118 132.89518 L -7.6006223 15.795017 L -7.5995888 15.7945 C -7.4576574 15.986808 -7.1999676 16.318663 -7.0466469 16.52521 L -12.446873 -130.53665 L 527.86104 -135.18136 z " />
      <path
         d="m537.57 82.146 0.5178 102.16c4.5377-1.0423 7.1825-1.9131 7.1825-1.9131l-0.72708-99.669zm-100.01 69.333c-17.537 0.0785-32.685 4.5124-47.888 9.1865 8.2248-1.7418 15.993-2.8356 22.921-2.1978 33.149 3.051 38.286 20.986 69.984 27.146 21.706 4.2182 41.555 1.6199 52.876-0.73329-9.5278-6.5866-45.634-29.656-89.146-33.077-2.9856-0.23473-5.8978-0.33676-8.7468-0.32401z"
         color="#000000"
         fill="#000000"
         opacity=".1"
         stroke-width="1.0583"
         style="-inkscape-stroke:none"
         id="path108" />
      <path
         id="path110"
         style="-inkscape-stroke:none;fill:#dbdee5;fill-opacity:1"
         d="M 537.57008 81.615252 L 537.57266 82.145973 L 544.54335 82.723719 L 545.27044 182.39278 C 545.27044 182.39278 542.62622 183.26328 538.08995 184.30534 L 538.09253 184.85156 C 542.73752 183.78946 545.43994 182.89663 545.43994 182.89663 L 545.80529 182.77571 L 545.80116 182.39123 L 545.07045 82.241058 L 537.57008 81.615252 z M 408.61008 158.28452 C 402.77706 158.2631 396.44289 159.23799 389.81109 160.63736 C 387.48742 161.34608 385.16676 162.05055 382.83421 162.76128 C 393.6252 160.18348 403.80318 158.19016 412.54217 158.99456 C 429.02515 160.51155 438.47601 165.70038 447.855 171.32878 C 457.23329 176.95677 466.53583 183.03567 482.47381 186.13367 C 504.59779 190.43306 524.78981 187.68176 536.0668 185.29133 C 535.92175 185.19009 535.67917 185.03103 535.45133 184.88102 C 524.13008 187.23412 504.28217 189.8318 482.57717 185.6138 C 450.8792 179.4538 445.74178 161.51845 412.59281 158.46745 C 411.29382 158.34786 409.96563 158.28949 408.61008 158.28452 z " />
      <path
         d="m-15.294-162.99 551.77 28.514-0.0656-12.906zm4.2354 149.88 0.71003 25.136s35.014 50.363 76.23 74.85c47.085 27.972 80.282 9.5611 131 24.741 46.248 13.841 61.9 49.644 119.64 58.48 53.078 8.122 82.01-22.056 129.78-18.301 50.803 3.994 91.798 34.942 91.798 34.942l-0.17518-34.545c-1.777-0.4526-3.4679-0.87916-6.2048-1.6025-7.6332-2.0174-36.279-19.226-60.594-26.778-42.652-13.248-85.919-0.80527-126.45-8.678-60.435-11.738-84.454-43.625-130-49.987-31.395-4.3845-66.568 7.7786-109.85-2.1451-55.32-16.542-96.821-55.448-115.88-76.113z"
         color="#000000"
         fill="#ffffff"
         opacity=".01"
         stroke-width="1.0583"
         style="-inkscape-stroke:none"
         id="path112" />
      <path
         id="path114"
         style="-inkscape-stroke:none;fill:#dbdee5;fill-opacity:1"
         d="M -15.837906 -163.53023 L -10.873315 12.210196 L -10.783397 12.340939 C -10.783397 12.340939 24.234505 62.760134 65.611463 87.343109 C 89.24444 101.3831 109.44779 103.79308 130.00077 104.58508 C 150.55375 105.37708 171.45854 104.57148 196.73051 112.13558 C 219.75049 119.02487 235.15983 131.38143 252.08981 143.18042 C 269.0198 154.97841 287.47242 166.19866 316.44139 170.63166 C 343.09137 174.70965 363.70667 169.16584 383.55665 163.10234 C 403.40763 157.03885 422.49376 150.46645 446.25974 152.33445 C 496.87169 156.31344 537.7804 187.17237 537.7804 187.17237 L 538.6341 187.81678 L 538.62842 186.74655 L 536.9329 -147.88352 L -15.837906 -163.53023 z M -15.293749 -162.99021 L 536.41045 -147.38174 L 536.47608 -134.47598 L 535.94432 -134.50337 L 537.39489 152.05643 C 537.54587 152.09484 537.77253 152.15426 537.92406 152.19285 L 538.09925 186.73777 C 538.09925 186.73777 497.10455 155.78997 446.3016 151.79598 C 398.53164 148.04098 369.59944 178.21879 316.52149 170.0968 C 258.78155 161.26081 243.12936 125.45824 196.88141 111.61726 C 146.16346 96.437372 112.96617 114.84792 65.881216 86.875951 C 24.665258 62.388975 -10.348795 12.026227 -10.348795 12.026227 L -11.058834 -13.10989 L -11.0547 -13.110406 C -10.885809 -12.927283 -10.68347 -12.718103 -10.51106 -12.532143 L -14.748042 -162.44192 L 7.4905562 -161.81301 L -15.293749 -162.99021 z " />
      <path
         d="m-15.294-162.99-7.3742 136.39s50.481 66.573 127.49 89.603c43.282 9.9237 78.455-2.2394 109.85 2.1451 45.546 6.362 69.565 38.249 130 49.987 40.531 7.8728 83.798-4.57 126.45 8.678 24.315 7.552 52.961 24.761 60.594 26.778 7.6333 2.0174 11.58 2.9569 11.58 2.9569l2.9388-41.765c-8.6568-0.32821-36.287-2.2185-70.299-13.421-40.51-13.343-65.505-29.642-97.792-39.995-51.284-16.445-93.642-0.59382-141.48-9.2496-74.961-13.564-100.84-74.329-146.66-101.8-54.993-32.964-102.43-24.775-102.43-24.775l-2.282-71.214 517.48 12.45zm576.3 29.782-5.1811 108.72 7.6414-108.59z"
         color="#000000"
         fill="#cce0ff"
         opacity=".08"
         stroke-width="1.0583"
         style="-inkscape-stroke:none"
         id="path116" />
      <path
         id="path118"
         style="-inkscape-stroke:none;fill:#dbdee5;fill-opacity:1"
         d="M -15.792947 -163.54005 L -23.207019 -26.419769 L -23.089712 -26.265772 C -23.089712 -26.265772 27.453423 40.431224 104.67035 63.523201 L 104.68792 63.529402 L 104.70342 63.533019 C 148.13738 73.491709 183.39149 61.326963 214.60346 65.685359 C 237.26943 68.851355 254.58718 78.371651 273.84317 88.607641 C 293.09915 98.84363 314.28124 109.78421 344.57321 115.6682 C 385.27617 123.57429 428.50236 111.14432 470.96332 124.3344 C 483.06831 128.0941 496.29244 134.2733 507.44043 139.7682 C 513.01402 142.5155 518.06728 145.08997 522.21328 147.10837 C 526.35927 149.12677 529.56977 150.58698 531.57867 151.11798 C 539.21626 153.13647 543.17236 154.07906 543.17236 154.07906 L 543.77801 154.22324 L 543.82297 153.60053 L 564.02964 -133.56957 L -15.792947 -163.54005 z M -15.293749 -162.99021 L 502.77143 -136.22162 L 483.21538 -136.69188 L 560.9807 -132.67349 L 561.00603 -133.20783 L 563.46636 -133.07812 L 555.82491 -24.48809 L 556.92408 -47.549899 L 545.71331 111.75627 C 545.86003 111.76229 546.09749 111.77794 546.23473 111.78314 L 543.29587 153.54782 C 543.29587 153.54782 539.3489 152.60827 531.71561 150.59087 C 524.08262 148.57387 495.43694 131.36498 471.12197 123.81298 C 428.47001 110.565 385.20288 123.00769 344.67192 115.1349 C 284.23698 103.39691 260.21762 71.509913 214.67167 65.14792 C 183.2767 60.763424 148.10372 72.926505 104.82176 63.002815 C 27.812836 39.972838 -22.66803 -26.600121 -22.66803 -26.600121 L -15.293749 -162.99021 z " />
      <path
         d="m-14.704-148.66 2.282 71.214s47.437-8.1893 102.43 24.775c45.82 27.471 71.699 88.236 146.66 101.8 47.838 8.6557 90.196-7.1954 141.48 9.2496 32.287 10.353 57.282 26.652 97.792 39.995 41.136 13.549 73.39 13.516 73.39 13.516l2.2345-46.893c-7.3929-1.8585-19.188-5.0047-25.663-7.7091-9.8522-4.1146-32.68-14.871-54.483-21.887-30.63-9.8574-68.317-5.7996-103.27-11.527-45.175-7.4016-79.837-25.061-91.939-35.185-22.152-18.533-31.647-42.896-31.647-42.896l-10.083-48.643 325.16-1.5441 1.4495-30.412z"
         color="#000000"
         fill="#ffffff"
         opacity=".03"
         stroke-width="1.0583"
         style="-inkscape-stroke:none"
         id="path120" />
      <path
         id="path122"
         style="-inkscape-stroke:none;fill:#dbdee5;fill-opacity:1"
         d="M -15.249824 -149.21007 L -12.931602 -76.828946 L -12.332151 -76.932299 C -12.332151 -76.932299 34.89187 -85.098617 89.737815 -52.22355 C 112.53779 -38.553563 130.44922 -16.52948 152.04919 3.8215 C 173.64917 24.17248 198.96996 42.837266 236.57592 49.64126 C 284.57887 58.326851 326.87894 42.484955 377.98589 58.873838 C 410.19486 69.201828 435.20499 85.505085 475.77495 98.868071 C 516.98891 112.44206 549.33017 112.41101 549.33017 112.41101 L 549.83402 112.41101 L 549.85934 111.90716 L 561.6401 -135.33278 L -15.249824 -149.21007 z M -14.704117 -148.66023 L 561.08923 -134.80671 L 559.63969 -104.39439 L 559.10639 -104.39181 L 551.04119 64.861113 C 551.20059 64.901353 551.40908 64.957392 551.56467 64.996507 L 549.33017 111.88959 C 549.33017 111.88959 517.07576 111.92251 475.9398 98.373524 C 435.42984 85.030537 410.43512 68.731764 378.14815 58.378774 C 326.86421 41.933791 284.50585 57.784834 236.6679 49.129142 C 161.70698 35.565156 135.82804 -25.200098 90.008085 -52.671071 C 35.01514 -85.635338 -12.422069 -77.445967 -12.422069 -77.445967 L -14.704117 -148.66023 z " />
      <path
         d="m558.15 66.601s-22.397-5.2033-32.249-9.3179c-9.8522-4.1146-32.68-14.871-54.483-21.887-30.63-9.8574-68.317-5.7996-103.27-11.527-45.175-7.4016-79.837-25.061-91.939-35.185-22.152-18.533-31.647-42.896-31.647-42.896l-10.083-48.643 340.06-1.6146z"
         color="#000000"
         fill="#cce0ff"
         opacity=".15"
         stroke-width="1.0583"
         style="-inkscape-stroke:none"
         id="path124" />
      <path
         id="path126"
         style="-inkscape-stroke:none;fill:#dbdee5;fill-opacity:1"
         d="M 575.12 -105.00004 L 233.82981 -103.37894 L 244.05304 -54.06066 L 244.06854 -54.017769 C 244.06854 -54.017769 253.59924 -29.539956 275.86941 -10.908974 C 288.1204 -0.65998465 322.79744 16.974978 368.06239 24.391971 C 403.11436 30.135665 440.78674 26.094089 471.25271 35.899879 C 493.00769 42.900572 515.80772 53.644126 525.69371 57.773122 C 535.6625 61.936518 558.02582 67.116806 558.02582 67.116806 L 558.61546 67.25375 L 558.67178 66.652232 L 575.12 -105.00004 z M 574.53915 -104.46932 L 558.14985 66.601072 C 558.14985 66.601072 535.75293 61.397822 525.90094 57.283226 C 516.04875 53.16863 493.22105 42.412023 471.41808 35.39603 C 440.78811 25.53864 403.10114 29.596396 368.14817 23.869001 C 322.97322 16.467409 288.31092 -1.191681 276.20893 -11.315671 C 254.05695 -29.848652 244.56205 -54.212073 244.56205 -54.212073 L 234.47887 -102.85494 L 574.53915 -104.46932 z " />
    </g>
  </g>
</svg>
