/* XPM */
static char *bottom_right_active[] = {
/* columns rows colors chars-per-pixel */
"10 10 2 1 ",
"  c None",
". c gray88 s active_color_1",
/* pixels */
"        ..",
"        ..",
"        ..",
"        ..",
"        ..",
"        ..",
"        ..",
"        ..",
"..........",
"......... "
};
