/* XPM */
static char *button[] = {
/* columns rows colors chars-per-pixel */
"34 36 2 1 ",
"  c #2C2C2C s active_color_2",
". c gray88 s active_color_1",
/* pixels */
"..................................",
"..................................",
"                                  ",
"                                  ",
"                                  ",
"                                  ",
"                                  ",
"                                  ",
"                                  ",
"                                  ",
"                                  ",
"                                  ",
"                                  ",
"                                  ",
"                                  ",
"                                  ",
"                                  ",
"                                  ",
"                                  ",
"                                  ",
"                                  ",
"                                  ",
"                                  ",
"                                  ",
"                                  ",
"                                  ",
"                                  ",
"                                  ",
"                                  ",
"                                  ",
"                                  ",
"                                  ",
"                                  ",
"                                  ",
"                                  ",
"                                  "
};
