/* XPM */
static char *top_right_active[] = {
/* columns rows colors chars-per-pixel */
"8 36 3 1 ",
"  c None",
". c #2C2C2C s active_color_2",
"X c gray88 s active_color_1",
/* pixels */
"XXX     ",
"XXXXX   ",
"..XXXX  ",
"....XXX ",
".....XX ",
".....XXX",
"......XX",
"......XX",
"......XX",
"......XX",
"......XX",
"......XX",
"......XX",
"......XX",
"......XX",
"......XX",
"......XX",
"......XX",
"......XX",
"......XX",
"......XX",
"......XX",
"......XX",
"......XX",
"......XX",
"......XX",
"......XX",
"......XX",
"......XX",
"......XX",
"......XX",
"......XX",
"......XX",
"......XX",
"......XX",
"......XX"
};
